<svg id="Layer_1" data-name="Layer 1" xmlns="http://www.w3.org/2000/svg" viewBox="0 0 368.4 218.89"><defs><style>.cls-1{fill:#fff;}</style></defs><title>bg4</title><path class="cls-1" d="M.16,0h368.4V218.92H.16ZM206.87,39.93c-1.39.07-2.86.09-4.31.24-1,.1-1.23-.22-1.23-1.17,0-7-.06-14-.07-21,0-5.39,0-10.79,0-16.19a13,13,0,0,0-.17-1.38h-.38a8.44,8.44,0,0,0-.13,1.1c0,3.72.13,7.43.13,11.14q0,18.12,0,36.23c0,1.53-.26,1.72-1.78,1.48-.81-.13-1.65-.15-2.47-.23l0,.4c1,.12,2,.31,3,.36s1.18.46,1.18,1.28q0,4.9,0,9.81c0,5.24.13,10.47.13,15.7,0,8.19,0,16.39-.07,24.58,0,11.16,0,22.32-.06,33.47,0,2.07-.29,4.15-.3,6.22,0,2.87.13,5.75.19,8.62,0,2-.39,3.92,0,5.92a21.73,21.73,0,0,1,0,3.95q-.12,9.81-.25,19.64c0,.75-.1,1.51-.1,2.26,0,4.62.52,9.25-.31,13.86a3.38,3.38,0,0,0,0,1c.12,1.17.34,2.33.36,3.5,0,3.44,0,6.88,0,10.31,0,2.2-.16,4.39-.16,6.59,0,.36.4.73.61,1.09a4.08,4.08,0,0,0,.59-1.13c.12-.74-.13-1.62.17-2.25,1-2.08.33-4.21.36-6.3s-.36-4.43-.48-6.65c-.05-1.18.39-1.44,1.59-1.3a9.53,9.53,0,0,0,1.31,0v-.5c-.76-.12-1.52-.25-2.29-.34s-1.12-.46-.49-1c1.14-.91,1-2.08,1-3.27,0-1.38-.07-2.77,0-4.16,0-1,.28-2,.23-3-.12-2.86-.34-5.71-.55-8.57a7.41,7.41,0,0,0-.35-1.26,6.94,6.94,0,0,1-.45-1.69c0-3.16.08-6.32-.06-9.47s.46-6.24.05-9.37a11.1,11.1,0,0,1,.18-2q.19-3.49.35-7c0-.59-.1-1.18-.06-1.76.13-1.76.27-3.53.47-5.29a14.16,14.16,0,0,1,.45-1.9c.48-1.29,1.5-1.52,2.78-.94.58.27,1.13.25,1.4-.52-.56-.14-1.44-.23-1.45-.38-.07-1-.85-1.08-1.54-1.36a1.29,1.29,0,0,1-.69-.87c-.14-1.54-.25-3.1-.26-4.65,0-3.06,0-6.13.06-9.19a3.67,3.67,0,0,1,.15-.79,18.26,18.26,0,0,0,.44-2.05,25.91,25.91,0,0,0,.11-2.92,1.38,1.38,0,0,0-.39-.79c-.55-.66-.95-3.21-.42-3.81a1.48,1.48,0,0,0,0-2.06c-1-1.4-.52-2.7.06-4.06.5-1.19.9-2.43,1.31-3.66.05-.16-.06-.38-.09-.58-.11-.89-.18-1.79-.33-2.68s-.37-1.74-.53-2.61a1.79,1.79,0,0,1-.05-1c.66-1.22-.48-2.75.71-3.86,0,0-.07-.29-.11-.44a6.62,6.62,0,0,1,.47-5.36l-1.15-.56a11.54,11.54,0,0,0,1.2-.66,8.39,8.39,0,0,0,.81-.77,9.27,9.27,0,0,0-.93-.85,1.22,1.22,0,0,0-.69-.16c-.71,0-.8-.36-.62-.93.31-1,.58-2,.92-3,.22-.63.1-1-.54-1.21-.85-.24-.94-.8-.57-1.48.48-.88,1-1.74,1.54-2.62-1.8-1.73-1.8-1.73-1.25-2.86-.21-.94-.31-1.65-.53-2.33C202,67,202,67,203.16,67.11a34.3,34.3,0,0,0,.32-3.45,5.31,5.31,0,0,0-.6-1.77c-.22-.55-.68-1.07-.71-1.63-.09-1.64.07-3.3,0-4.95-.16-3.65-.49-7.31-.6-11s0-3.8,3.78-3.83c.19,0,.51,0,.54.1a1.42,1.42,0,0,1,.06.76c-.74.19-.63.69-.33,1.09a1.27,1.27,0,0,0,.86.34,3.2,3.2,0,0,0,.54-1.26A7.71,7.71,0,0,0,206.87,39.93ZM47.26,185h-.1q0,16.19,0,32.39c0,.42.22,1.18.43,1.21a2.59,2.59,0,0,0,1.66-.31c.22-.13.17-.8.17-1.22a12.17,12.17,0,0,0-.1-1.91c-.14-1-.42-1.91-.52-2.88a2.07,2.07,0,0,1,.32-1.48,1.35,1.35,0,0,0,.18-2,4.41,4.41,0,0,1-.64-1.95c-.09-1.55,0-3.1,0-4.65,0-2.37,0-4.74,0-7.11,0-2.76-.12-5.51-.15-8.27,0-3,.09-5.92-.05-8.87s.41-5.88.22-8.84-.19-5.9-.23-8.86c0-3.19,0-6.39,0-9.58,0-.75.17-1.51.14-2.25-.11-2.45-.59-4.91.48-7.29a1.66,1.66,0,0,0,0-.45c.09-1.85.13-3.7.28-5.55.1-1.26.34-2.52.56-3.77a11.6,11.6,0,0,1,.78-3.44,2.94,2.94,0,0,0,.26-2.69c-.23-.64-.25-1.36-.44-2a1.35,1.35,0,0,0-.59-.75c-1.46-.73-1.77-1.25-1.61-2.81.09-.91.14-1.83.14-2.75,0-13.63,0-27.26,0-40.89,0-11.55.11-23.1.17-34.65q0-6.1.08-12.21c0-3.07.07-6.13.09-9.2s0-6,0-9c0-3.19,0-6.39,0-9.58a2.78,2.78,0,0,0-.42-1,3.17,3.17,0,0,0-.49,1c-.1,2.51-.17,5-.19,7.54,0,4.88,0,9.76-.06,14.64,0,2.9-.21,5.8-.21,8.71,0,3.22.19,6.44.2,9.66,0,2.44-.18,4.87-.22,7.3,0,2.6,0,5.2,0,7.8,0,9.87,0,19.73-.06,29.6,0,3.27-.23,6.55-.21,9.83.06,10.35.21,20.69.25,31,0,1.9-.53,3.79-.55,5.69,0,3.74.11,7.49.19,11.23.06,2.9.18,5.8.19,8.7Q47.28,169.05,47.26,185ZM15,15.6h0V12.84q0-5.7,0-11.39c0-1-.53-1.48-1.13-1a1.71,1.71,0,0,0-.36,1.16c-.1,4.31-.17,8.62-.25,12.94-.05,2.67,0,5.35-.19,8s.44,5.27.07,7.92c-.1.74.37,1.55.41,2.33.14,3.15.68,6.34-.51,9.42-.05.12.08.3.11.45a10.26,10.26,0,0,1,.39,1.94c0,2.91-.15,5.83.07,8.71.18,2.23-1.37,4.4-.12,6.62,0,.06,0,.16,0,.24-.14,2.55-.34,5.09-.4,7.64,0,1.55.25,3.1.24,4.65,0,3.08-.23,6.15-.24,9.22,0,3.23.16,6.46.17,9.7s-.09,6.3-.11,9.46c0,1,.16,2.07.12,3.1-.06,1.39-.33,2.77-.38,4.15-.11,3.56-.19,7.11-.19,10.67,0,5.83.08,11.67.11,17.5,0,1.76-.1,3.52-.08,5.28,0,3.42.14,6.85.2,10.27,0,1.23,0,2.45,0,3.68.06,5.42.18,10.84.18,16.27,0,3-.23,5.9-.24,8.85,0,2.79.26,5.59.22,8.38,0,3-.43,6-.44,9.07,0,6.43.12,12.87.18,19.3,0,.68,0,1.33,1,1.31s.81-.72.8-1.3q-.12-11.21-.27-22.42c0-1.63,0-3.27,0-4.9-.07-3.1-.21-6.2-.26-9.3-.07-5-.12-9.91-.12-14.87,0-3.92.12-7.83.13-11.75,0-7,0-14.08,0-21.11,0-9.36.16-18.71.22-28.07q.08-11.39.09-22.79c0-8,0-16,.05-24,0-3.36.31-6.7.37-10.06.12-6.51.18-13,.24-19.53C15.05,24.24,15,19.92,15,15.6ZM217.56,218.65H218a5.11,5.11,0,0,0,.28-1c.09-5.91.21-11.82.23-17.74,0-4.55-.15-9.09-.17-13.64,0-2.87.12-5.73.15-8.6q.12-12.23.2-24.45c0-9.76,0-19.51.05-29.26,0-3.11.17-6.22.18-9.33,0-2.88-.15-5.75-.15-8.63,0-3.14.15-6.28.15-9.43,0-3.54-.11-7.08-.11-10.62,0-3.79.13-7.58.14-11.38,0-11.19,0-22.39,0-33.59,0-1.26.28-2.51.39-3.77a4.66,4.66,0,0,0-.09-1.17,9.22,9.22,0,0,1-.3-1.62c.07-10.91.17-21.83.23-32.74a4,4,0,0,0-.49-1.29c-.36.39-1,.74-1,1.19a14,14,0,0,0,0,2.5q0,10.55,0,21.1c0,6,0,12,0,17.94s0,11.92,0,17.87c0,10.32-.08,20.63-.1,30.94,0,9.34,0,18.69,0,28,0,7.39-.1,14.79-.12,22.18q-.07,26-.13,52c0,7.75,0,15.51,0,23.27A8.88,8.88,0,0,0,217.56,218.65ZM235,.34l-.45.14a8.44,8.44,0,0,0-.12,1c0,4.43,0,8.86,0,13.29.07,9.9.19,19.8.23,29.71s0,20.07,0,30.11c0,8.64.14,17.27.15,25.91,0,5.11-.16,10.23-.17,15.34,0,10.51.07,21,.05,31.53,0,4.06-.21,8.13-.27,12.19q-.15,9.83-.24,19.65c0,1.48.2,2.95.2,4.43,0,.82-.36,1.64-.35,2.46.06,5,.2,10,.29,15.08,0,2.59,0,5.19,0,7.78a5.21,5.21,0,0,1-.41,1.23l-.83-1.41-.26.05v3.72c-1.15-.64-1.59-.54-1.7.33-.21,1.61-.39,3.23-.45,4.85,0,.29.59.79,1,.85.86.14,1.77,0,2.63.1,1.22.16,1.55-.36,1.51-1.48-.12-3.79-.21-7.59-.23-11.38a7.71,7.71,0,0,1,.52-2c-.16-.33-.5-.71-.52-1.1-.12-3-.26-6.07-.25-9.1q.08-28.6.21-57.22c0-8.64,0-17.28,0-25.91q0-26.44.06-52.89c0-4.71,0-9.43,0-14.15q0-20.1,0-40.2a10.64,10.64,0,0,0-.07-1.79A4.8,4.8,0,0,0,235,.34Zm67.22,9.79a18.73,18.73,0,0,1,.81,3c.13,1.5.06,3,.08,4.53q.06,7.29.11,14.6.15,16.71.28,33.41c0,3.16,0,6.31,0,9.47q0,24.71.08,49.42c0,12.2.05,24.4,0,36.59-.07,16.43-.22,32.87-.34,49.3,0,2.36-.05,4.72,0,7.08a3.59,3.59,0,0,0,.37,1.07,3.37,3.37,0,0,0,.42-1.11c0-2.08,0-4.17,0-6.25,0-6.08.06-12.15.07-18.22,0-4.28,0-8.56,0-12.83,0-2.68.07-5.36.14-8,.09-3.43.29-6.87.31-10.3s-.11-6.63-.2-9.94c0-.86,0-1.69.92-2.15a.8.8,0,0,0,.3-.6,11.48,11.48,0,0,0,.06-3.2c-.54-2.19.83-4.38-.15-6.53-.06-.13,0-.32,0-.48,0-2.38-.11-4.76-.1-7.14a23.41,23.41,0,0,1,.32-2.62,3.39,3.39,0,0,0,0-.78,17.15,17.15,0,0,1-.35-3c.07-1,.15-1.9-.91-2.56,1.1-1.43.9-3,.62-4.52a9.78,9.78,0,0,1-.14-1.63c0-1.33,0-2.66,0-4a17.6,17.6,0,0,1-.08-3.07,17.5,17.5,0,0,1,.93-3c-.48-.34-1-.51-1-.71a8,8,0,0,1,.13-2,16.5,16.5,0,0,0,.49-2.14c.08-2.36,0-4.72.1-7.08s.38-4.49.5-6.74a1.17,1.17,0,0,0-.62-.91c-1-.33-.87-.94-.73-1.78a20.07,20.07,0,0,0,.1-3.2c0-.07-.11-.13-.13-.2a4.35,4.35,0,0,1-.31-1.33c.1-1.35.43-2.69.41-4,0-.95-.18-1.72,1-1.95.12,0,.24-.3.27-.48s-.22-.33-.29-.31c-1.87.56-1.12-.62-1-1.42,0-.14-.11-.3-.11-.45,0-.76,0-1.51,0-2.26a6.17,6.17,0,0,0,0-1.13c-.17-1-.5-1.91-.59-2.87s.12-1.76.11-2.63c-.05-4.86-.17-9.72-.19-14.58,0-6.82,0-13.64,0-20.45,0-2.56-.17-5.11-.22-7.66a44.25,44.25,0,0,1,.09-4.75c.2-2.27.81-4.51,0-6.78a4.68,4.68,0,0,1-.12-1.55c0-1.84,0-3.68,0-5.52a9.6,9.6,0,0,0-.23-1.49l-.46,0c0,.35-.1.71-.1,1.06,0,2,.05,4,.06,6C303,8.5,303.29,9.7,302.17,10.13Zm16.72,151.28a5.63,5.63,0,0,1,0,1.47c-.58,1.66.8,3.12.34,4.82a40.73,40.73,0,0,0-.52,4.47,25,25,0,0,0,.68,8.49,4.28,4.28,0,0,1,.08,1.38,28.46,28.46,0,0,0-.51,3.25c0,2.53.1,5.07.24,7.6.07,1.13.37,2.24.51,3.37a6,6,0,0,1-.08,1.4,10,10,0,0,0-.23,1.4c.08,3.34.22,6.68.28,10a16.2,16.2,0,0,1-.3,2.58c-.22,1.49-.48,3-.72,4.47a4.06,4.06,0,0,0-.18,1.52,1.45,1.45,0,0,0,.88.94c1.21.24,1.46,0,1.46-1.33,0-5.63,0-11.25,0-16.88,0-4.75.19-9.5.21-14.25,0-9.15,0-18.3,0-27.46,0-11.07,0-22.15,0-33.22,0-9.64-.19-19.27-.26-28.9,0-7,0-13.92-.07-20.88,0-5.31-.09-10.62-.15-15.93-.1-7.71-.26-15.43-.3-23.14,0-9.68,0-19.35,0-29,0-2.11-.13-4.21-.22-6.32a4.42,4.42,0,0,0-.19-.86h-.35a13.64,13.64,0,0,0-.16,1.54q.06,9.84.14,19.67.06,7.24.16,14.48c0,2.79.12,5.58.15,8.37.07,5-.21,10.1,0,15.15.29,6.22.37,12.45.46,18.68q.18,13.66.24,27.32c0,3.35-.15,6.7-.22,10-.1,4.39-.17,8.77-.29,13.15-.06,2.25-.2,4.49-.29,6.74a4.43,4.43,0,0,0,.09.95,28.24,28.24,0,0,1,.5,3.26c.07,2.48,0,5,0,7.44,0,4.39,0,8.78,0,13.17C320.33,161.12,320.4,162.08,318.89,161.41ZM167.21.39l-.53,0A15.41,15.41,0,0,0,166.5,2c0,10.11,0,20.22,0,30.34q0,27.47-.1,54.93,0,22.24-.14,44.5c0,9.63-.19,19.26-.22,28.89,0,7.12.11,14.24.11,21.35,0,4.27-.15,8.55-.17,12.82,0,7.5.16,15-.75,22.49-.07.57-.16,1.3.77,1.32s.66-.72.72-1.23c.28-2.57.59-5.13.81-7.7a27,27,0,0,0-.07-3.11c0-.85-.1-1.7-.08-2.56,0-.47.2-.94.2-1.41,0-3.15,0-6.29,0-9.44,0-.7-.56-1.38-.59-2.08-.09-1.91-.05-3.83,0-5.74,0-1.13.2-2.27.19-3.4,0-1.71-.21-3.42-.2-5.13,0-4.39.14-8.78.17-13.18,0-2.79-.12-5.58-.07-8.37.06-3.59.31-7.18.34-10.77.05-7.19,0-14.38,0-21.57q0-8.75,0-17.5c0-5.06,0-10.13,0-15.2,0-3.35-.15-6.7-.16-10,0-2.55.16-5.11.15-7.66,0-5-.12-9.91-.14-14.87,0-3.39.09-6.79.11-10.19,0-2.63-.06-5.27,0-7.9,0-3.91.08-7.83.07-11.74,0-4.75-.11-9.5-.12-14.25,0-3.92.07-7.84.09-11.75A10.49,10.49,0,0,0,167.21.39ZM83.66,2.85l0,.53a5.66,5.66,0,0,0,1.21.25c2.93,0,5.86,0,8.8.08.35,0,.69.18,1,.21A11.23,11.23,0,0,0,96.94,4c1.32-.13,1.56,0,1.57,1.36,0,5.11,0,10.21,0,15.32,0,3.91-.15,7.83-.15,11.74,0,14.78,0,29.57,0,44.35,0,2.83-.2,5.66-.21,8.5,0,2.3.2,4.6.18,6.9,0,5-.19,10-.26,15,0,1.44.15,2.88.12,4.31q-.15,7.44-.38,14.88c0,1.79-.22,3.58-.26,5.38,0,2.15,0,4.3,0,6.45,0,4.94.16,9.86.59,14.79.3,3.54-.19,7.15-.31,10.73a9.72,9.72,0,0,0,0,1.43,22.86,22.86,0,0,1,.36,2.58c0,6.87-.07,13.74-.2,20.61,0,2.5-.33,5-.53,7.5a7.66,7.66,0,0,1-.31,1,5.51,5.51,0,0,0-.16,1.45c.09,1.18.25,2.35.39,3.52a7.36,7.36,0,0,0,.12.82,7.86,7.86,0,0,1,.48,2c-.08,1.57-.43,3.13-.51,4.7-.14,2.74-.16,5.5-.23,8.25,0,.63.17,1.23.9,1.08a1.41,1.41,0,0,0,.8-1c.06-.9.48-1.16,1.3-1.17a6.38,6.38,0,0,0,1.19-.27l0-.38c-.29,0-.58-.09-.87-.1-1.73,0-1.78-.06-1.78-1.71,0-4.16,0-8.32,0-12.48q0-39.31.07-78.64c0-5.07.12-10.14.15-15.21,0-7.91,0-15.83.08-23.75,0-9.31.14-18.62.18-27.93,0-4.12,0-8.24,0-12.36,0-2.51.15-5,.19-7.54,0-1.15.33-1.93,1.69-1.82.12,0,.26-.22.38-.34a1.78,1.78,0,0,0-1.17-.16c-.79.13-1.09-.2-1.09-1,0-5.24.05-10.47.09-15.7,0-4.4.11-8.8.13-13.19a21,21,0,0,0-.26-2.74,4.24,4.24,0,0,0-.44-.91c-.08.59-.14.86-.16,1.12-.09,1.69-.26,1.81-1.93,1.72-3.13-.18-6.26-.33-9.39-.43C86.08,2.65,84.87,2.79,83.66,2.85ZM337.71,218.57l.45,0a6.73,6.73,0,0,0,.17-1.08c.07-3.48.15-7,.16-10.43,0-8.32.08-16.63.05-24.94,0-8-.16-15.91-.22-23.86,0-2.8,0-5.59,0-8.38q.1-14,.24-28c0-.64.17-1.28.13-1.91-.17-2.94-.39-5.88-.59-8.82a11.52,11.52,0,0,1,0-1.44c.14-1.78.39-3.55.42-5.33,0-2.12-.11-4.25-.19-6.38,0-1.26-.17-2.51-.16-3.76,0-2.47.17-4.94.12-7.41-.07-4.5-.33-9-.37-13.49,0-4.8.13-9.59.15-14.39,0-3.47-.09-6.93-.1-10.4,0-2.31,0-4.63,0-6.94,0-2.79-.1-5.58-.11-8.38,0-3.86.08-7.73.06-11.6,0-2.18-.23-4.36-.24-6.54,0-4.24.06-8.47.09-12.71a4.39,4.39,0,0,0-.13-1.31c-.09-.27-.39-.48-.6-.72-.15.28-.43.56-.42.84,0,1.56.13,3.11.14,4.67q.17,27.72.31,55.43c0,10.51,0,21,.07,31.54,0,5.36.09,10.72.13,16.07q.06,7.08.1,14.15c.06,9.91.16,19.83.17,29.75q0,32.22,0,64.44A12,12,0,0,0,337.71,218.57Zm-67.9,0c-.07-1.33-.19-2.52-.18-3.71q.15-17.78.31-35.53c0-2.83-.05-5.66-.08-8.49-.05-4.72-.14-9.44-.13-14.15,0-4.32.13-8.63.15-12.95,0-3.91,0-7.83,0-11.74-.05-13.32-.13-26.64-.14-40,0-6.23.09-12.47.13-18.71,0-2.59.07-5.19,0-7.78,0-1.18.2-2,1.62-1.77.09,0,.2-.16.41-.35a2.34,2.34,0,0,0-.71-.15c-1.06.17-1.3-.39-1.3-1.31,0-1.24-.19-2.47-.18-3.71q0-22,.13-43.91c0-1.6-.11-3.19-.13-4.79,0-2.68,0-5.36-.06-8a5.73,5.73,0,0,0-.27-1.18l-.5,0c-.05.6-.16,1.2-.16,1.8.07,13.75.19,27.51.23,41.26q.07,31.8.06,63.6c0,12.16-.1,24.31-.12,36.47,0,12.51.05,25,0,37.54,0,8.64-.11,17.27-.16,25.91,0,3.52,0,7,0,10.56C268.76,218.19,268.73,219,269.81,218.54ZM112,216.07l.06.47c.55,0,1.09,0,1.64,0,.73,0,1.1.24,1.16,1,0,.35.35.68.55,1,.16-.37.47-.74.47-1.11,0-1.79-.06-3.59-.07-5.38q0-13.17-.06-26.36c0-10,0-20,.06-30,0-4.35,0-8.7,0-13,0-1.91,0-3.82,0-5.73,0-2.35.14-4.69.14-7,0-2.18-.12-4.36-.12-6.54,0-2.86.09-5.73.09-8.59,0-2.19-.11-4.37-.11-6.55,0-2.84.08-5.68.09-8.52,0-5.55,0-11.1,0-16.66,0-4.43.21-8.86.25-13.3,0-2.14-.21-4.28-.2-6.42,0-5.19.17-10.38.22-15.58.06-6.1.07-12.21.12-18.32,0-5.35.11-10.7.15-16,0-2.66,0-5.33,0-8,0-1.43-.08-2.86-.18-4.29,0-.29-.25-.55-.39-.83l-.37.07A13.92,13.92,0,0,0,115.4,2c0,8.23,0,16.46-.05,24.69,0,2.16-.12,4.32-.12,6.48,0,7,.09,14,.08,21,0,10.36-.13,20.71-.17,31.07,0,5.8,0,11.59,0,17.39q0,16.78,0,33.57,0,20-.06,40c0,3-.23,6.06-.26,9.1,0,1.76-.65,3.52,0,5.28a2.78,2.78,0,0,1,0,1q0,4,0,8c0,5,0,10,0,15,0,1-.34,1.38-1.33,1.34A8.39,8.39,0,0,0,112,216.07Zm20.29,2.57h.49a9.91,9.91,0,0,0,.25-1.51c0-1.24,0-2.48,0-3.71,0-8.58,0-17.15.08-25.73,0-1.9.41-3.8.4-5.7,0-2.74-.31-5.48-.36-8.22,0-1.54.27-3.08.3-4.62,0-1.77-.11-3.54-.16-5.32-.08-3.15-.16-6.3-.21-9.46,0-1.48.05-3,.09-4.43.05-1.94.19-3.88.16-5.81,0-3.46-.23-6.91-.26-10.37,0-6.21,0-12.41,0-18.62,0-3.3,0-6.6,0-9.9,0-3.74.08-7.48.1-11.21q0-8.49,0-17c0-3.91,0-7.83,0-11.74,0-1.72-.15-3.44-.11-5.15.09-4.75.31-9.5.36-14.26,0-3.7-.15-7.41-.13-11.12,0-7.32.15-14.63.24-21.95,0-3.56.12-7.11.13-10.67A7.52,7.52,0,0,0,133.4.51L133,.58c0,.42-.1.83-.1,1.25-.07,5.88-.16,11.75-.18,17.62,0,8.16,0,16.32,0,24.47q-.07,18.78-.21,37.55c0,3.64,0,7.28,0,10.92-.06,12.43-.16,24.87-.18,37.31q-.06,21.53,0,43.07c0,2.92.12,5.84.1,8.75,0,6.08-.13,12.15-.17,18.22,0,5.8,0,11.6,0,17.4A11,11,0,0,0,132.33,218.64ZM355.51,87l-.45,0c0,1.7,0,3.4,0,5.11q.12,20.08.24,40.18c0,1.64,0,3.28-.05,4.92q-.06,16.42-.11,32.86c0,6.27,0,12.55-.07,18.83-.05,6.67-.14,13.34-.23,20,0,2.84-.14,5.67-.16,8.5a1.57,1.57,0,0,0,.49,1.2,2.28,2.28,0,0,0,2.84-1.25,1.77,1.77,0,0,1,.76-.87c1-.41,1-1,.7-1.92-.54-1.6-1.44-3.15-.87-5,.07-.23-.37-.83-.66-.91a1.44,1.44,0,0,1-1.17-1.69c.1-1.58.29-3.15.38-4.73.05-.83,0-1.66-.06-2.5a9.42,9.42,0,0,1,.05-2.06c.37-1.77,1-3.53-1-4.84-.17-.11-.18-.55-.17-.84,0-.54.11-1.09.14-1.64s0-1,0-1.55c.13-1.2.32-2.39.46-3.59a10.17,10.17,0,0,0,.11-1.83c-.11-1.5-.3-3-.41-4.49,0-.25.21-.52.35-.85.88.5,1.27,1,1,1.93-.11.38.14.86.22,1.3l.33-.08c.12-1.09.15-1,1.37-1.57a1.28,1.28,0,0,0,.53-1.15,7.28,7.28,0,0,0-1.19-2.07c-.19-.25-.68-.28-1.14-.46,0,.61.07.94.12,1.58-.58-.23-1.22-.28-1.33-.56a2.29,2.29,0,0,1,0-1.57c.15-.4.67-.65,1-1a1.21,1.21,0,0,0,.33-.68c0-.13-.34-.37-.52-.37-1.15,0-1.12-.77-1.12-1.57,0-1.59,0-3.18,0-4.76,0-2.44-.08-4.88-.07-7.32,0-2.22.18-4.44.17-6.66,0-2.54-.18-5.09-.18-7.63,0-2.83.17-5.67.18-8.5,0-1.82-.18-3.64-.19-5.46,0-4.46,0-8.91,0-13.37,0-2.48-.21-5-.21-7.44,0-2.31.17-4.62.21-6.94,0-.66-.24-1.32-.24-2,0-1.88.09-3.76.1-5.63,0-1.14-.08-2.28-.14-3.42C355.74,90.79,355.62,88.87,355.51,87ZM184.44,30.59h.08c0-4.08,0-8.16,0-12.23,0-5.48,0-10.95,0-16.43a5.37,5.37,0,0,0-.5-1.53A6.13,6.13,0,0,0,183.58,2c0,8.75,0,17.5,0,26.25,0,11.56-.07,23.11-.09,34.66,0,8.64,0,17.27,0,25.9q-.09,38.39-.19,76.76c0,4.76,0,9.51,0,14.26q0,18.7,0,37.4c0,.56-.31,1.48.73,1.44s.75-.92.71-1.49a29.85,29.85,0,0,1-.4-3.08,37.74,37.74,0,0,0,.15-6.3,62.77,62.77,0,0,1,0-7.13c0-3.78-.12-7.56-.17-11.35-.07-5.48-.17-11-.19-16.46q0-21.77,0-43.53c0-6.4.12-12.79.16-19.19s0-12.79.08-19.19c.05-11,.14-21.91.17-32.86C184.46,48.9,184.44,39.74,184.44,30.59ZM286.08,218.93c.32-.42.56-.58.57-.75.1-2,.2-4.06.24-6.09.08-3.63.1-7.27.19-10.91.05-2.06.3-4.13.29-6.19,0-2.3-.45-4.61-.35-6.9.18-3.69.19-7.37.17-11.05,0-1.56-.15-3.11-.16-4.67,0-3,.05-6.06.05-9.1,0-1.73-.44-3.48.41-5.17a3,3,0,0,0,0-1.52,19,19,0,0,1-.28-2.35c.1-2.94.37-5.88.38-8.82,0-2.72-.25-5.44-.36-8.15a5.68,5.68,0,0,1,.1-1.43,31,31,0,0,0,1-8.14c-.17-2.63-.16-5.27-.15-7.91a1.46,1.46,0,0,1,.66-1.11c.66-.3.54-.55.32-1.09-.34-.87-.49-1.8-.76-2.7a3.33,3.33,0,0,0-.5-1.3,4.31,4.31,0,0,1-.65-4.35,9.39,9.39,0,0,0,.71-2.63,22.93,22.93,0,0,0,.26-3.79,4.63,4.63,0,0,0-.65-1.66c-.18-.4-.6-.77-.6-1.16-.05-8.58,0-17.16-.06-25.74,0-1.56.08-3.13-.06-4.67s1-3,.07-4.55c-.15-.24.08-.7.1-1.06,0-.91.1-1.83.07-2.75,0-1.34-.21-2.68-.22-4q-.11-10.41-.14-20.84c0-5.47,0-10.93,0-16.4q0-9.24,0-18.46a5.54,5.54,0,0,0-.27-1.12l-.36,0c0,.41-.1.81-.09,1.22.07,4.11.19,8.23.22,12.34q.17,18.54.27,37.07c0,7.75,0,15.51,0,23.27,0,17.36.16,34.72.18,52.07,0,10-.12,19.91-.18,29.87s-.08,19.67-.17,29.51c-.1,10.75-.25,21.51-.37,32.26A7.75,7.75,0,0,0,286.08,218.93Zm-204.56-.37h.66c.4-9-.3-18.08-.2-27.12s0-18.24,0-27.36.16-18.22.21-27.34,0-18.15,0-27.22,0-18.24,0-27.36.1-18.23.16-27.35.29-18.17.13-27.26.6-18.1-.3-27.14C81.45,73.13,81.53,145.84,81.52,218.56Zm67.83,0,.3,0q.36-109,.7-218A1.84,1.84,0,0,0,150,1.67q-.12,10.68-.22,21.35c-.05,5.87-.07,11.74-.12,17.62,0,3.79-.09,7.59-.13,11.39-.11,9.79-.23,19.59-.29,29.38,0,9.32,0,18.64,0,28q0,15.59,0,31.18,0,30.12,0,60.24c0,2.56-.17,5.11-.17,7.67,0,2.92.1,5.84.17,8.75A11.79,11.79,0,0,0,149.35,218.54ZM65.43.41,65,.31a10.78,10.78,0,0,0-.24,1.58c0,6.47.18,13,.16,19.42,0,7.84-.18,15.67-.21,23.5,0,11.36,0,22.71,0,34.07,0,5.28,0,10.56,0,15.83-.09,7.51-.27,15-.36,22.53,0,2.12.18,4.23.19,6.34q.1,27.11.17,54.21,0,11.09,0,22.17c0,5.68-.12,11.35-.15,17a8.68,8.68,0,0,0,.3,1.65l.27-.08ZM252.26.58l-.6,198.26c0,6.4,0,12.8,0,19.19a1.09,1.09,0,0,0,.17.44s.06,0,.1,0a2.31,2.31,0,0,0,.45.07C252.62,145.88,252.91,73.23,252.26.58ZM30.73,133.07l-.44-.06a2.85,2.85,0,0,0-.21.71c.08,6.35.21,12.7.27,19.05,0,5.76,0,11.51,0,17.27q0,9.11,0,18.21c0,5.88.06,11.76,0,17.64,0,3.83-.17,7.67-.2,11.5,0,.41.41.82.64,1.22a3.38,3.38,0,0,0,.48-1.18c0-4,.06-7.9,0-11.85,0-2.2-.23-4.39-.23-6.58q0-20.28,0-40.56c0-.64-.11-1.27-.13-1.91,0-1.47-.1-2.93-.1-4.4,0-.63.21-1.26.2-1.88,0-1.36-.1-2.72-.14-4.07q-.11-5.2-.2-10.41C30.71,134.87,30.73,134,30.73,133.07ZM354.6,38H355c0-1.34,0-2.67,0-4-.08-2.51-.29-5-.27-7.52,0-2.71.36-5.41.36-8.12,0-5.43-.16-10.85-.25-16.28a7.74,7.74,0,0,0,0-1.08,2.07,2.07,0,0,0-.31-.61,2.58,2.58,0,0,0-.34,1.44c.07,7.34.16,14.68.22,22,0,4,0,8.07,0,12.1C354.4,36.65,354.53,37.34,354.6,38Zm.3,1.79-.57.09.37,16.64.5.07a2.8,2.8,0,0,0,.4-.95c0-1.3,0-2.6,0-3.9,0-3.06,0-6.11-.08-9.16A14.82,14.82,0,0,0,354.9,39.82ZM30.3,70.89l.64.08a4.5,4.5,0,0,0,.32-1.15q0-7.26-.13-14.51a4.52,4.52,0,0,0-.28-1.11l-.55.06C30.08,59.8,30.38,65.35,30.3,70.89Zm23,84c-.94.07-1.6-.41-1.4-1,.49-1.57-1-3.31.65-4.72l-.21-.2-2.87.9c.52,1.45,1.35,2.67,1.3,3.86-.08,1.64.82,2.11,1.82,2.61.55-.4,1-.8,1.54-1.11a17.25,17.25,0,0,1,1.64-.75l-.09-.62-2.9-.36ZM53.68,141l-.13-.15c-.49.09-1.07.4-1.45.24-.94-.43-1.33.22-1.77.73-.18.21-.29.74-.16.9s.75.43.93.31C52,142.42,52.82,141.7,53.68,141ZM354.83,62.87c1-.91,1-4.23,0-5.69ZM31.12,113.11h.4l.16-4.25c-.28,0-.69-.13-.82,0C30.34,109.39,30.58,112.44,31.12,113.11Zm18.38,8.24,3.33,1.27c-.27-.72-.35-1.48-.64-1.58A2.54,2.54,0,0,0,49.5,121.35ZM30,125.05l.2,4.34C31.15,128.23,31,125.67,30,125.05ZM31.57,107c.71-1.51-.54-2.14-1.14-3.24C29.76,105.27,30.33,106.16,31.57,107ZM18.41,181l-1.3-1c-.26.34-.76.72-.72,1s.55.72.86,1.08ZM232,187.87a23.43,23.43,0,0,0,0,2.43c0,.2.43.45.68.48s.55-.31.54-.46C233.22,189.49,233.32,188.56,232,187.87ZM30.92,10.48c.91-.67,1-3.2,0-4.08ZM179.1,21.61l0,.24,3.65.25,0-.49ZM30.34,97a1.47,1.47,0,0,0,0-2.6ZM291.46,10.35c-1.49-.68-2.18-.59-3,.32ZM359,2.2h.41V.48H359ZM214.65,40.14v-.36h-2.49v.36Zm126.28-.3,0,.48,2.3-.25,0-.23Z" transform="translate(-0.16 -0.04)"/><path d="M206.87,39.93a7.71,7.71,0,0,1,.14,1.61,3.2,3.2,0,0,1-.54,1.26,1.27,1.27,0,0,1-.86-.34c-.3-.4-.41-.9.33-1.09a1.42,1.42,0,0,0-.06-.76c0-.09-.35-.1-.54-.1-3.81,0-3.89,0-3.78,3.83s.44,7.32.6,11c.08,1.65-.08,3.31,0,4.95,0,.56.49,1.08.71,1.63a5.31,5.31,0,0,1,.6,1.77,34.3,34.3,0,0,1-.32,3.45c-1.19-.1-1.16-.1-.65,1.48.22.68.32,1.39.53,2.33-.55,1.13-.55,1.13,1.25,2.86-.52.88-1.06,1.74-1.54,2.62-.37.68-.28,1.24.57,1.48.64.19.76.58.54,1.21-.34,1-.61,2-.92,3-.18.57-.09.94.62.93a1.22,1.22,0,0,1,.69.16,9.27,9.27,0,0,1,.93.85,8.39,8.39,0,0,1-.81.77,11.54,11.54,0,0,1-1.2.66l1.15.56a6.62,6.62,0,0,0-.47,5.36c0,.15.16.39.11.44-1.19,1.11-.05,2.64-.71,3.86a1.79,1.79,0,0,0,.05,1c.16.87.39,1.73.53,2.61s.22,1.79.33,2.68c0,.2.14.42.09.58-.41,1.23-.81,2.47-1.31,3.66-.58,1.36-1.07,2.66-.06,4.06a1.48,1.48,0,0,1,0,2.06c-.53.6-.13,3.15.42,3.81a1.38,1.38,0,0,1,.39.79,25.91,25.91,0,0,1-.11,2.92,18.26,18.26,0,0,1-.44,2.05,3.67,3.67,0,0,0-.15.79c0,3.06-.08,6.13-.06,9.19,0,1.55.12,3.11.26,4.65a1.29,1.29,0,0,0,.69.87c.69.28,1.47.31,1.54,1.36,0,.15.89.24,1.45.38-.27.77-.82.79-1.4.52-1.28-.58-2.3-.35-2.78.94a14.16,14.16,0,0,0-.45,1.9c-.2,1.76-.34,3.53-.47,5.29,0,.58.08,1.17.06,1.76q-.15,3.49-.35,7a11.1,11.1,0,0,0-.18,2c.41,3.13-.2,6.24-.05,9.37s0,6.31.06,9.47a6.94,6.94,0,0,0,.45,1.69,7.41,7.41,0,0,1,.35,1.26c.21,2.86.43,5.71.55,8.57.05,1-.21,2-.23,3,0,1.39,0,2.78,0,4.16,0,1.19.14,2.36-1,3.27-.63.49-.19.87.49,1s1.53.22,2.29.34v.5a9.53,9.53,0,0,1-1.31,0c-1.2-.14-1.64.12-1.59,1.3.12,2.22.52,4.43.48,6.65s.62,4.22-.36,6.3c-.3.63-.05,1.51-.17,2.25a4.08,4.08,0,0,1-.59,1.13c-.21-.36-.61-.73-.61-1.09,0-2.2.13-4.39.16-6.59,0-3.43.06-6.87,0-10.31,0-1.17-.24-2.33-.36-3.5a3.38,3.38,0,0,1,0-1c.83-4.61.3-9.24.31-13.86,0-.75.09-1.51.1-2.26q.13-9.83.25-19.64a21.73,21.73,0,0,0,0-3.95c-.35-2,.08-4,0-5.92-.06-2.87-.2-5.75-.19-8.62,0-2.07.29-4.15.3-6.22,0-11.15,0-22.31.06-33.47,0-8.19.08-16.39.07-24.58,0-5.23-.09-10.46-.13-15.7q0-4.9,0-9.81c0-.82-.29-1.24-1.18-1.28s-2-.24-3-.36l0-.4c.82.08,1.66.1,2.47.23,1.52.24,1.78,0,1.78-1.48q0-18.1,0-36.23c0-3.71-.09-7.42-.13-11.14a8.44,8.44,0,0,1,.13-1.1h.38a13,13,0,0,1,.17,1.38c0,5.4-.05,10.8,0,16.19,0,7,.07,14,.07,21,0,1,.26,1.27,1.23,1.17C204,40,205.48,40,206.87,39.93Z" transform="translate(-0.16 -0.04)"/><path d="M47.26,185q0-15.9,0-31.8c0-2.9-.13-5.8-.19-8.7-.08-3.74-.23-7.49-.19-11.23,0-1.9.55-3.79.55-5.69,0-10.35-.19-20.69-.25-31,0-3.28.2-6.56.21-9.83,0-9.87,0-19.73.06-29.6,0-2.6,0-5.2,0-7.8,0-2.43.22-4.86.22-7.3,0-3.22-.19-6.44-.2-9.66,0-2.91.18-5.81.21-8.71,0-4.88,0-9.76.06-14.64,0-2.51.09-5,.19-7.54a3.17,3.17,0,0,1,.49-1,2.78,2.78,0,0,1,.42,1c0,3.19,0,6.39,0,9.58,0,3,0,6,0,9s-.07,6.13-.09,9.2q-.06,6.11-.08,12.21c-.06,11.55-.14,23.1-.17,34.65,0,13.63,0,27.26,0,40.89,0,.92-.05,1.84-.14,2.75-.16,1.56.15,2.08,1.61,2.81a1.35,1.35,0,0,1,.59.75c.19.66.21,1.38.44,2a2.94,2.94,0,0,1-.26,2.69,11.6,11.6,0,0,0-.78,3.44c-.22,1.25-.46,2.51-.56,3.77-.15,1.85-.19,3.7-.28,5.55a1.66,1.66,0,0,1,0,.45c-1.07,2.38-.59,4.84-.48,7.29,0,.74-.14,1.5-.14,2.25,0,3.19,0,6.39,0,9.58,0,3,0,5.91.23,8.86s-.35,5.88-.22,8.84,0,5.91.05,8.87c0,2.76.12,5.51.15,8.27,0,2.37,0,4.74,0,7.11,0,1.55-.06,3.1,0,4.65a4.41,4.41,0,0,0,.64,1.95,1.35,1.35,0,0,1-.18,2,2.07,2.07,0,0,0-.32,1.48c.1,1,.38,1.91.52,2.88a12.17,12.17,0,0,1,.1,1.91c0,.42.05,1.09-.17,1.22a2.59,2.59,0,0,1-1.66.31c-.21,0-.43-.79-.43-1.21q0-16.2,0-32.39Z" transform="translate(-0.16 -0.04)"/><path d="M15,15.6c0,4.32,0,8.64,0,13-.06,6.51-.12,13-.24,19.53-.06,3.36-.34,6.7-.37,10.06-.06,8,0,16-.05,24q0,11.4-.09,22.79c-.06,9.36-.17,18.71-.22,28.07,0,7,0,14.07,0,21.11,0,3.92-.13,7.83-.13,11.75,0,5,.05,9.91.12,14.87.05,3.1.19,6.2.26,9.3,0,1.63,0,3.27,0,4.9q.13,11.22.27,22.42c0,.58.15,1.29-.8,1.3s-.95-.63-1-1.31c-.06-6.43-.2-12.87-.18-19.3,0-3,.4-6.05.44-9.07,0-2.79-.22-5.59-.22-8.38,0-2.95.25-5.9.24-8.85,0-5.43-.12-10.85-.18-16.27,0-1.23,0-2.45,0-3.68-.06-3.42-.16-6.85-.2-10.27,0-1.76.09-3.52.08-5.28,0-5.83-.11-11.67-.11-17.5,0-3.56.08-7.11.19-10.67,0-1.38.32-2.76.38-4.15,0-1-.13-2.07-.12-3.1,0-3.16.12-6.31.11-9.46s-.18-6.47-.17-9.7c0-3.07.21-6.14.24-9.22,0-1.55-.27-3.1-.24-4.65.06-2.55.26-5.09.4-7.64,0-.08.07-.18,0-.24-1.25-2.22.3-4.39.12-6.62-.22-2.88,0-5.8-.07-8.71a10.26,10.26,0,0,0-.39-1.94c0-.15-.16-.33-.11-.45,1.19-3.08.65-6.27.51-9.42,0-.78-.51-1.59-.41-2.33.37-2.65-.24-5.27-.07-7.92s.14-5.35.19-8c.08-4.32.15-8.63.25-12.94A1.71,1.71,0,0,1,13.92.45c.6-.48,1.13,0,1.13,1q0,5.69,0,11.39V15.6Z" transform="translate(-0.16 -0.04)"/><path d="M217.56,218.65a8.88,8.88,0,0,1-.19-1.33c0-7.76,0-15.52,0-23.27q.06-26,.13-52c0-7.39.1-14.79.12-22.18,0-9.34,0-18.69,0-28,0-10.31.08-20.62.1-30.94,0-6,0-11.91,0-17.87s0-12,0-17.94q0-10.56,0-21.1a14,14,0,0,1,0-2.5c.08-.45.68-.8,1-1.19a4,4,0,0,1,.49,1.29c-.06,10.91-.16,21.83-.23,32.74a9.22,9.22,0,0,0,.3,1.62,4.66,4.66,0,0,1,.09,1.17c-.11,1.26-.39,2.51-.39,3.77,0,11.2,0,22.4,0,33.59,0,3.8-.13,7.59-.14,11.38,0,3.54.12,7.08.11,10.62,0,3.15-.15,6.29-.15,9.43,0,2.88.15,5.75.15,8.63,0,3.11-.16,6.22-.18,9.33,0,9.75,0,19.5-.05,29.26q-.06,12.23-.2,24.45c0,2.87-.17,5.73-.15,8.6,0,4.55.18,9.09.17,13.64,0,5.92-.14,11.83-.23,17.74a5.11,5.11,0,0,1-.28,1Z" transform="translate(-0.16 -0.04)"/><path d="M235,.34a4.8,4.8,0,0,1,.52,1.16,10.64,10.64,0,0,1,.07,1.79q0,20.1,0,40.2c0,4.72.06,9.44,0,14.15q0,26.44-.06,52.89c0,8.63,0,17.27,0,25.91q-.09,28.6-.21,57.22c0,3,.13,6.07.25,9.1,0,.39.36.77.52,1.1a7.71,7.71,0,0,0-.52,2c0,3.79.11,7.59.23,11.38,0,1.12-.29,1.64-1.51,1.48-.86-.11-1.77,0-2.63-.1-.37-.06-1-.56-1-.85.06-1.62.24-3.24.45-4.85.11-.87.55-1,1.7-.33v-3.72l.26-.05.83,1.41a5.21,5.21,0,0,0,.41-1.23c0-2.59,0-5.19,0-7.78-.09-5-.23-10.05-.29-15.08,0-.82.34-1.64.35-2.46,0-1.48-.21-3-.2-4.43q.07-9.83.24-19.65c.06-4.06.26-8.13.27-12.19,0-10.51-.06-21-.05-31.53,0-5.11.18-10.23.17-15.34,0-8.64-.13-17.27-.15-25.91,0-10,0-20.08,0-30.11s-.16-19.81-.23-29.71c0-4.43,0-8.86,0-13.29a8.44,8.44,0,0,1,.12-1Z" transform="translate(-0.16 -0.04)"/><path d="M302.17,10.13c1.12-.43.84-1.63.84-2.72,0-2-.05-4-.06-6,0-.35.07-.71.1-1.06l.46,0a9.6,9.6,0,0,1,.23,1.49c0,1.84,0,3.68,0,5.52a4.68,4.68,0,0,0,.12,1.55c.83,2.27.22,4.51,0,6.78a44.25,44.25,0,0,0-.09,4.75c.05,2.55.21,5.1.22,7.66,0,6.81,0,13.63,0,20.45,0,4.86.14,9.72.19,14.58,0,.87-.19,1.76-.11,2.63s.42,1.91.59,2.87a6.17,6.17,0,0,1,0,1.13c0,.75,0,1.5,0,2.26,0,.15.14.31.11.45-.15.8-.9,2,1,1.42.07,0,.3.22.29.31s-.15.46-.27.48c-1.19.23-1,1-1,1.95,0,1.33-.31,2.67-.41,4a4.35,4.35,0,0,0,.31,1.33c0,.07.13.13.13.2a20.07,20.07,0,0,1-.1,3.2c-.14.84-.3,1.45.73,1.78A1.17,1.17,0,0,1,306,88c-.12,2.25-.41,4.49-.5,6.74s0,4.72-.1,7.08a16.5,16.5,0,0,1-.49,2.14,8,8,0,0,0-.13,2c0,.2.5.37,1,.71a17.5,17.5,0,0,0-.93,3,17.6,17.6,0,0,0,.08,3.07c0,1.33,0,2.66,0,4a9.78,9.78,0,0,0,.14,1.63c.28,1.56.48,3.09-.62,4.52,1.06.66,1,1.55.91,2.56a17.15,17.15,0,0,0,.35,3,3.39,3.39,0,0,1,0,.78,23.41,23.41,0,0,0-.32,2.62c0,2.38.06,4.76.1,7.14,0,.16-.07.35,0,.48,1,2.15-.39,4.34.15,6.53a11.48,11.48,0,0,1-.06,3.2.8.8,0,0,1-.3.6c-1,.46-.94,1.29-.92,2.15.09,3.31.22,6.63.2,9.94s-.22,6.87-.31,10.3c-.07,2.67-.13,5.35-.14,8,0,4.27,0,8.55,0,12.83,0,6.07-.05,12.14-.07,18.22,0,2.08,0,4.17,0,6.25a3.37,3.37,0,0,1-.42,1.11,3.59,3.59,0,0,1-.37-1.07c0-2.36,0-4.72,0-7.08.12-16.43.27-32.87.34-49.3.06-12.19,0-24.39,0-36.59q0-24.7-.08-49.42c0-3.16,0-6.31,0-9.47q-.13-16.71-.28-33.41-.06-7.3-.11-14.6c0-1.51.05-3-.08-4.53A18.73,18.73,0,0,0,302.17,10.13Z" transform="translate(-0.16 -0.04)"/><path d="M318.89,161.41c1.51.67,1.44-.29,1.45-1.06,0-4.39,0-8.78,0-13.17,0-2.48.05-5,0-7.44a28.24,28.24,0,0,0-.5-3.26,4.43,4.43,0,0,1-.09-.95c.09-2.25.23-4.49.29-6.74.12-4.38.19-8.76.29-13.15.07-3.34.23-6.69.22-10q-.06-13.65-.24-27.32c-.09-6.23-.17-12.46-.46-18.68-.24-5.05,0-10.1,0-15.15,0-2.79-.11-5.58-.15-8.37q-.09-7.23-.16-14.48-.09-9.84-.14-19.67a13.64,13.64,0,0,1,.16-1.54h.35a4.42,4.42,0,0,1,.19.86c.09,2.11.21,4.21.22,6.32,0,9.68,0,19.35,0,29,0,7.71.2,15.43.3,23.14.06,5.31.12,10.62.15,15.93,0,7,0,13.92.07,20.88.07,9.63.22,19.26.26,28.9,0,11.07,0,22.15,0,33.22,0,9.16,0,18.31,0,27.46,0,4.75-.17,9.5-.21,14.25,0,5.63,0,11.25,0,16.88,0,1.3-.25,1.57-1.46,1.33a1.45,1.45,0,0,1-.88-.94,4.06,4.06,0,0,1,.18-1.52c.24-1.49.5-3,.72-4.47a16.2,16.2,0,0,0,.3-2.58c-.06-3.34-.2-6.68-.28-10a10,10,0,0,1,.23-1.4,6,6,0,0,0,.08-1.4c-.14-1.13-.44-2.24-.51-3.37-.14-2.53-.25-5.07-.24-7.6a28.46,28.46,0,0,1,.51-3.25,4.28,4.28,0,0,0-.08-1.38,25,25,0,0,1-.68-8.49,40.73,40.73,0,0,1,.52-4.47c.46-1.7-.92-3.16-.34-4.82A5.63,5.63,0,0,0,318.89,161.41Z" transform="translate(-0.16 -0.04)"/><path d="M167.21.39a10.49,10.49,0,0,1,.16,1.47c0,3.91-.1,7.83-.09,11.75,0,4.75.11,9.5.12,14.25,0,3.91-.06,7.83-.07,11.74,0,2.63.06,5.27,0,7.9,0,3.4-.12,6.8-.11,10.19,0,5,.12,9.91.14,14.87,0,2.55-.15,5.11-.15,7.66,0,3.35.14,6.7.16,10,0,5.07,0,10.14,0,15.2q0,8.75,0,17.5c0,7.19,0,14.38,0,21.57,0,3.59-.28,7.18-.34,10.77-.05,2.79.09,5.58.07,8.37,0,4.4-.15,8.79-.17,13.18,0,1.71.19,3.42.2,5.13,0,1.13-.17,2.27-.19,3.4,0,1.91-.08,3.83,0,5.74,0,.7.58,1.38.59,2.08.07,3.15,0,6.29,0,9.44,0,.47-.2.94-.2,1.41,0,.86.05,1.71.08,2.56a27,27,0,0,1,.07,3.11c-.22,2.57-.53,5.13-.81,7.7-.06.51.18,1.24-.72,1.23s-.84-.75-.77-1.32c.91-7.48.71-15,.75-22.49,0-4.27.18-8.55.17-12.82,0-7.11-.13-14.23-.11-21.35,0-9.63.18-19.26.22-28.89q.11-22.26.14-44.5.07-27.47.1-54.93c0-10.12,0-20.23,0-30.34a15.41,15.41,0,0,1,.18-1.65Z" transform="translate(-0.16 -0.04)"/><path d="M83.66,2.85c1.21-.06,2.42-.2,3.62-.17,3.13.1,6.26.25,9.39.43,1.67.09,1.84,0,1.93-1.72,0-.26.08-.53.16-1.12a4.24,4.24,0,0,1,.44.91,21,21,0,0,1,.26,2.74c0,4.39-.1,8.79-.13,13.19,0,5.23,0,10.46-.09,15.7,0,.78.3,1.11,1.09,1a1.78,1.78,0,0,1,1.17.16c-.12.12-.26.35-.38.34-1.36-.11-1.68.67-1.69,1.82,0,2.52-.18,5-.19,7.54,0,4.12.05,8.24,0,12.36,0,9.31-.13,18.62-.18,27.93,0,7.92,0,15.84-.08,23.75,0,5.07-.14,10.14-.15,15.21q0,39.32-.07,78.64c0,4.16,0,8.32,0,12.48,0,1.65,0,1.71,1.78,1.71.29,0,.58.07.87.1l0,.38a6.38,6.38,0,0,1-1.19.27c-.82,0-1.24.27-1.3,1.17a1.41,1.41,0,0,1-.8,1c-.73.15-.91-.45-.9-1.08.07-2.75.09-5.51.23-8.25.08-1.57.43-3.13.51-4.7a7.86,7.86,0,0,0-.48-2,7.36,7.36,0,0,1-.12-.82c-.14-1.17-.3-2.34-.39-3.52a5.51,5.51,0,0,1,.16-1.45,7.66,7.66,0,0,0,.31-1c.2-2.5.48-5,.53-7.5.13-6.87.17-13.74.2-20.61a22.86,22.86,0,0,0-.36-2.58,9.72,9.72,0,0,1,0-1.43c.12-3.58.61-7.19.31-10.73-.43-4.93-.61-9.85-.59-14.79,0-2.15-.06-4.3,0-6.45,0-1.8.21-3.59.26-5.38q.23-7.44.38-14.88c0-1.43-.14-2.87-.12-4.31.07-5,.21-10,.26-15,0-2.3-.19-4.6-.18-6.9,0-2.84.2-5.67.21-8.5,0-14.78,0-29.57,0-44.35,0-3.91.13-7.83.15-11.74,0-5.11,0-10.21,0-15.32C98.5,4,98.26,3.91,96.94,4a11.23,11.23,0,0,1-2.24-.12c-.36,0-.7-.21-1-.21-2.94,0-5.87,0-8.8-.08a5.66,5.66,0,0,1-1.21-.25Z" transform="translate(-0.16 -0.04)"/><path d="M337.71,218.57a12,12,0,0,1-.14-1.33q0-32.22,0-64.44c0-9.92-.11-19.84-.17-29.75q0-7.08-.1-14.15c0-5.35-.11-10.71-.13-16.07,0-10.51,0-21-.07-31.54q-.14-27.72-.31-55.43c0-1.56-.13-3.11-.14-4.67,0-.28.27-.56.42-.84.21.24.51.45.6.72a4.39,4.39,0,0,1,.13,1.31c0,4.24-.1,8.47-.09,12.71,0,2.18.22,4.36.24,6.54,0,3.87-.06,7.74-.06,11.6,0,2.8.1,5.59.11,8.38,0,2.31-.06,4.63,0,6.94,0,3.47.11,6.93.1,10.4,0,4.8-.19,9.59-.15,14.39,0,4.5.3,9,.37,13.49.05,2.47-.11,4.94-.12,7.41,0,1.25.11,2.5.16,3.76.08,2.13.22,4.26.19,6.38,0,1.78-.28,3.55-.42,5.33a11.52,11.52,0,0,0,0,1.44c.2,2.94.42,5.88.59,8.82,0,.63-.12,1.27-.13,1.91q-.13,14-.24,28c0,2.79,0,5.58,0,8.38.06,8,.19,15.9.22,23.86,0,8.31,0,16.62-.05,24.94,0,3.47-.09,6.95-.16,10.43a6.73,6.73,0,0,1-.17,1.08Z" transform="translate(-0.16 -0.04)"/><path d="M269.81,218.54c-1.08.43-1.05-.35-1.06-1,0-3.52,0-7,0-10.56.05-8.64.15-17.27.16-25.91,0-12.51,0-25,0-37.54,0-12.16.12-24.31.12-36.47q0-31.8-.06-63.6c0-13.75-.16-27.51-.23-41.26,0-.6.11-1.2.16-1.8l.5,0a5.73,5.73,0,0,1,.27,1.18c0,2.68,0,5.36.06,8,0,1.6.13,3.19.13,4.79q-.06,22-.13,43.91c0,1.24.16,2.47.18,3.71,0,.92.24,1.48,1.3,1.31a2.34,2.34,0,0,1,.71.15c-.21.19-.32.37-.41.35-1.42-.2-1.64.59-1.62,1.77,0,2.59,0,5.19,0,7.78,0,6.24-.14,12.48-.13,18.71,0,13.32.09,26.64.14,40,0,3.91.05,7.83,0,11.74,0,4.32-.15,8.63-.15,12.95,0,4.71.08,9.43.13,14.15,0,2.83.1,5.66.08,8.49q-.13,17.76-.31,35.53C269.62,216,269.74,217.21,269.81,218.54Z" transform="translate(-0.16 -0.04)"/><path d="M112,216.07a8.39,8.39,0,0,1,1.55-.22c1,0,1.34-.35,1.33-1.34,0-5,0-10,0-15q0-4,0-8a2.78,2.78,0,0,0,0-1c-.66-1.76,0-3.52,0-5.28,0-3,.25-6.07.26-9.1q.08-20,.06-40,0-16.79,0-33.57c0-5.8,0-11.59,0-17.39,0-10.36.14-20.71.17-31.07,0-7-.07-14-.08-21,0-2.16.12-4.32.12-6.48,0-8.23,0-16.46.05-24.69a13.92,13.92,0,0,1,.16-1.57l.37-.07c.14.28.38.54.39.83.1,1.43.17,2.86.18,4.29,0,2.66,0,5.33,0,8,0,5.35-.11,10.7-.15,16,0,6.11-.06,12.22-.12,18.32-.05,5.2-.19,10.39-.22,15.58,0,2.14.22,4.28.2,6.42,0,4.44-.21,8.87-.25,13.3,0,5.56,0,11.11,0,16.66,0,2.84-.09,5.68-.09,8.52,0,2.18.11,4.36.11,6.55,0,2.86-.09,5.73-.09,8.59,0,2.18.13,4.36.12,6.54,0,2.34-.11,4.68-.14,7,0,1.91,0,3.82,0,5.73,0,4.35,0,8.7,0,13,0,10-.06,20-.06,30q0,13.18.06,26.36c0,1.79.09,3.59.07,5.38,0,.37-.31.74-.47,1.11-.2-.33-.52-.66-.55-1-.06-.78-.43-1.05-1.16-1-.55,0-1.09,0-1.64,0Z" transform="translate(-0.16 -0.04)"/><path d="M132.33,218.64a11,11,0,0,1-.19-1.5c0-5.8,0-11.6,0-17.4,0-6.07.14-12.14.17-18.22,0-2.91-.09-5.83-.1-8.75q0-21.54,0-43.07c0-12.44.12-24.88.18-37.31,0-3.64,0-7.28,0-10.92q.11-18.77.21-37.55c0-8.15,0-16.31,0-24.47,0-5.87.11-11.74.18-17.62,0-.42.06-.83.1-1.25l.43-.07a7.52,7.52,0,0,1,.38,1.66c0,3.56-.09,7.11-.13,10.67-.09,7.32-.2,14.63-.24,22,0,3.71.17,7.42.13,11.12,0,4.76-.27,9.51-.36,14.26,0,1.71.1,3.43.11,5.15,0,3.91,0,7.83,0,11.74q0,8.49,0,17c0,3.73-.08,7.47-.1,11.21,0,3.3,0,6.6,0,9.9,0,6.21,0,12.41,0,18.62,0,3.46.22,6.91.26,10.37,0,1.93-.11,3.87-.16,5.81,0,1.47-.11,3-.09,4.43.05,3.16.13,6.31.21,9.46,0,1.78.18,3.55.16,5.32,0,1.54-.33,3.08-.3,4.62.05,2.74.34,5.48.36,8.22,0,1.9-.39,3.8-.4,5.7-.07,8.58-.07,17.15-.08,25.73,0,1.23,0,2.47,0,3.71a9.91,9.91,0,0,1-.25,1.51Z" transform="translate(-0.16 -0.04)"/><path d="M355.51,87c.11,1.92.23,3.84.33,5.75.06,1.14.14,2.28.14,3.42,0,1.87-.1,3.75-.1,5.63,0,.66.25,1.32.24,2,0,2.32-.21,4.63-.21,6.94,0,2.48.19,5,.21,7.44,0,4.46,0,8.91,0,13.37,0,1.82.2,3.64.19,5.46,0,2.83-.18,5.67-.18,8.5,0,2.54.17,5.09.18,7.63,0,2.22-.15,4.44-.17,6.66,0,2.44,0,4.88.07,7.32,0,1.58,0,3.17,0,4.76,0,.8,0,1.58,1.12,1.57.18,0,.52.24.52.37a1.21,1.21,0,0,1-.33.68c-.32.35-.84.6-1,1a2.29,2.29,0,0,0,0,1.57c.11.28.75.33,1.33.56-.05-.64-.07-1-.12-1.58.46.18.95.21,1.14.46a7.28,7.28,0,0,1,1.19,2.07,1.28,1.28,0,0,1-.53,1.15c-1.22.54-1.25.48-1.37,1.57l-.33.08c-.08-.44-.33-.92-.22-1.3.28-.93-.11-1.43-1-1.93-.14.33-.37.6-.35.85.11,1.5.3,3,.41,4.49a10.17,10.17,0,0,1-.11,1.83c-.14,1.2-.33,2.39-.46,3.59-.05.51,0,1,0,1.55s-.13,1.1-.14,1.64c0,.29,0,.73.17.84,2,1.31,1.33,3.07,1,4.84a9.42,9.42,0,0,0-.05,2.06c0,.84.11,1.67.06,2.5-.09,1.58-.28,3.15-.38,4.73a1.44,1.44,0,0,0,1.17,1.69c.29.08.73.68.66.91-.57,1.82.33,3.37.87,5,.3.9.29,1.51-.7,1.92a1.77,1.77,0,0,0-.76.87,2.28,2.28,0,0,1-2.84,1.25,1.57,1.57,0,0,1-.49-1.2c0-2.83.12-5.66.16-8.5.09-6.67.18-13.34.23-20,.05-6.28,0-12.56.07-18.83q0-16.44.11-32.86c0-1.64.06-3.28.05-4.92q-.1-20.08-.24-40.18c0-1.71,0-3.41,0-5.11Z" transform="translate(-0.16 -0.04)"/><path d="M184.44,30.59c0,9.15,0,18.31,0,27.47,0,11-.12,21.91-.17,32.86,0,6.4,0,12.8-.08,19.19S184,122.9,184,129.3q0,21.76,0,43.53c0,5.49.12,11,.19,16.46,0,3.79.14,7.57.17,11.35a62.77,62.77,0,0,0,0,7.13,37.74,37.74,0,0,1-.15,6.3,29.85,29.85,0,0,0,.4,3.08c0,.57.27,1.45-.71,1.49s-.73-.88-.73-1.44q0-18.7,0-37.4c0-4.75,0-9.5,0-14.26q.09-38.37.19-76.76c0-8.63,0-17.26,0-25.9,0-11.55.08-23.1.09-34.66,0-8.75,0-17.5,0-26.25A6.13,6.13,0,0,1,184.05.4a5.37,5.37,0,0,1,.5,1.53c0,5.48,0,11,0,16.43,0,4.07,0,8.15,0,12.23Z" transform="translate(-0.16 -0.04)"/><path d="M286.08,218.93a7.75,7.75,0,0,1-.15-.9c.12-10.75.27-21.51.37-32.26.09-9.84.12-19.67.17-29.51s.19-19.91.18-29.87c0-17.35-.13-34.71-.18-52.07,0-7.76,0-15.52,0-23.27q-.09-18.54-.27-37.07c0-4.11-.15-8.23-.22-12.34,0-.41.06-.81.09-1.22l.36,0a5.54,5.54,0,0,1,.27,1.12q0,9.23,0,18.46c0,5.47,0,10.93,0,16.4q0,10.43.14,20.84c0,1.34.18,2.68.22,4,0,.92,0,1.84-.07,2.75,0,.36-.25.82-.1,1.06,1,1.55-.22,3-.07,4.55s.06,3.11.06,4.67c0,8.58,0,17.16.06,25.74,0,.39.42.76.6,1.16a4.63,4.63,0,0,1,.65,1.66,22.93,22.93,0,0,1-.26,3.79,9.39,9.39,0,0,1-.71,2.63,4.31,4.31,0,0,0,.65,4.35,3.33,3.33,0,0,1,.5,1.3c.27.9.42,1.83.76,2.7.22.54.34.79-.32,1.09a1.46,1.46,0,0,0-.66,1.11c0,2.64,0,5.28.15,7.91a31,31,0,0,1-1,8.14,5.68,5.68,0,0,0-.1,1.43c.11,2.71.37,5.43.36,8.15,0,2.94-.28,5.88-.38,8.82a19,19,0,0,0,.28,2.35,3,3,0,0,1,0,1.52c-.85,1.69-.41,3.44-.41,5.17,0,3-.06,6.07-.05,9.1,0,1.56.16,3.11.16,4.67,0,3.68,0,7.36-.17,11.05-.1,2.29.32,4.6.35,6.9,0,2.06-.24,4.13-.29,6.19-.09,3.64-.11,7.28-.19,10.91,0,2-.14,4.06-.24,6.09C286.64,218.35,286.4,218.51,286.08,218.93Z" transform="translate(-0.16 -0.04)"/><path d="M81.52,218.56c0-72.72-.07-145.43.76-218.15.9,9,.13,18.1.3,27.14s-.07,18.18-.13,27.26-.13,18.24-.16,27.35,0,18.24,0,27.36,0,18.15,0,27.22S82.06,155,82,164.08s.06,18.24,0,27.36.6,18.08.2,27.12Z" transform="translate(-0.16 -0.04)"/><path d="M149.35,218.54a11.79,11.79,0,0,1-.17-1.33c-.07-2.91-.17-5.83-.17-8.75,0-2.56.17-5.11.17-7.67q0-30.12,0-60.24,0-15.59,0-31.18c0-9.32,0-18.64,0-28,.06-9.79.18-19.59.29-29.38,0-3.8.1-7.6.13-11.39,0-5.88.07-11.75.12-17.62q.09-10.68.22-21.35a1.84,1.84,0,0,1,.39-1.21q-.34,109-.7,218Z" transform="translate(-0.16 -0.04)"/><path d="M65.43.41l-.35,218.15-.27.08a8.68,8.68,0,0,1-.3-1.65c0-5.68.13-11.35.15-17q0-11.09,0-22.17-.08-27.1-.17-54.21c0-2.11-.21-4.22-.19-6.34.09-7.51.27-15,.36-22.53.06-5.27,0-10.55,0-15.83,0-11.36,0-22.71,0-34.07,0-7.83.2-15.66.21-23.5,0-6.47-.11-12.95-.16-19.42A10.78,10.78,0,0,1,65,.31Z" transform="translate(-0.16 -0.04)"/><path d="M252.26.58c.65,72.65.36,145.3.11,218a2.31,2.31,0,0,1-.45-.07s-.09,0-.1,0a1.09,1.09,0,0,1-.17-.44c0-6.39,0-12.79,0-19.19Z" transform="translate(-0.16 -0.04)"/><path d="M30.73,133.07c0,.9,0,1.8,0,2.7q.09,5.21.2,10.41c0,1.35.14,2.71.14,4.07,0,.62-.2,1.25-.2,1.88,0,1.47.05,2.93.1,4.4,0,.64.13,1.27.13,1.91q0,20.28,0,40.56c0,2.19.21,4.38.23,6.58,0,3.95,0,7.9,0,11.85a3.38,3.38,0,0,1-.48,1.18c-.23-.4-.65-.81-.64-1.22,0-3.83.18-7.67.2-11.5,0-5.88,0-11.76,0-17.64q0-9.1,0-18.21c0-5.76,0-11.51,0-17.27-.06-6.35-.19-12.7-.27-19.05a2.85,2.85,0,0,1,.21-.71Z" transform="translate(-0.16 -0.04)"/><path d="M354.6,38c-.07-.69-.2-1.38-.21-2.07,0-4,0-8.07,0-12.1-.06-7.34-.15-14.68-.22-22A2.58,2.58,0,0,1,354.48.4a2.07,2.07,0,0,1,.31.61,7.74,7.74,0,0,1,0,1.08c.09,5.43.24,10.85.25,16.28,0,2.71-.34,5.41-.36,8.12,0,2.51.19,5,.27,7.52,0,1.34,0,2.67,0,4Z" transform="translate(-0.16 -0.04)"/><path d="M354.9,39.82a14.82,14.82,0,0,1,.65,2.79c.09,3,.07,6.1.08,9.16,0,1.3,0,2.6,0,3.9a2.8,2.8,0,0,1-.4.95l-.5-.07-.37-16.64Z" transform="translate(-0.16 -0.04)"/><path d="M30.3,70.89c.08-5.54-.22-11.09,0-16.63l.55-.06a4.52,4.52,0,0,1,.28,1.11q.09,7.26.13,14.51A4.5,4.5,0,0,1,30.94,71Z" transform="translate(-0.16 -0.04)"/><path d="M53.26,154.85l-.52-1.44,2.9.36.09.62a17.25,17.25,0,0,0-1.64.75c-.52.31-1,.71-1.54,1.11-1-.5-1.9-1-1.82-2.61.05-1.19-.78-2.41-1.3-3.86l2.87-.9.21.2c-1.65,1.41-.16,3.15-.65,4.72C51.66,154.44,52.32,154.92,53.26,154.85Z" transform="translate(-0.16 -0.04)"/><path d="M53.68,141c-.86.69-1.68,1.41-2.58,2-.18.12-.75-.09-.93-.31s0-.69.16-.9c.44-.51.83-1.16,1.77-.73.38.16,1-.15,1.45-.24Z" transform="translate(-0.16 -0.04)"/><path d="M354.83,62.87V57.18C355.81,58.64,355.82,62,354.83,62.87Z" transform="translate(-0.16 -0.04)"/><path d="M31.12,113.11c-.54-.67-.78-3.72-.26-4.23.13-.14.54,0,.82,0l-.16,4.25Z" transform="translate(-0.16 -0.04)"/><path d="M49.5,121.35a2.54,2.54,0,0,1,2.69-.31c.29.1.37.86.64,1.58Z" transform="translate(-0.16 -0.04)"/><path d="M30,125.05c1,.62,1.12,3.18.2,4.34Z" transform="translate(-0.16 -0.04)"/><path d="M31.57,107c-1.24-.82-1.81-1.71-1.14-3.24C31,104.84,32.28,105.47,31.57,107Z" transform="translate(-0.16 -0.04)"/><path d="M18.41,181,17.25,182c-.31-.36-.8-.69-.86-1.08s.46-.68.72-1Z" transform="translate(-0.16 -0.04)"/><path d="M232,187.87c1.28.69,1.18,1.62,1.25,2.45,0,.15-.37.48-.54.46s-.65-.28-.68-.48A23.43,23.43,0,0,1,232,187.87Z" transform="translate(-0.16 -0.04)"/><path d="M30.92,10.48V6.4C31.92,7.28,31.83,9.81,30.92,10.48Z" transform="translate(-0.16 -0.04)"/><path d="M179.1,21.61h3.66l0,.49-3.65-.25Z" transform="translate(-0.16 -0.04)"/><path d="M30.34,97v-2.6A1.47,1.47,0,0,1,30.34,97Z" transform="translate(-0.16 -0.04)"/><path d="M291.46,10.35l-3,.32C289.28,9.76,290,9.67,291.46,10.35Z" transform="translate(-0.16 -0.04)"/><path d="M359,2.2V.48h.41V2.21Z" transform="translate(-0.16 -0.04)"/><path d="M214.65,40.14h-2.5v-.36h2.49Z" transform="translate(-0.16 -0.04)"/><path d="M340.93,39.84h2.3l0,.23-2.3.25Z" transform="translate(-0.16 -0.04)"/></svg>