<?xml version="1.0" encoding="utf-8"?>
<!-- Generator: Adobe Illustrator 22.0.1, SVG Export Plug-In . SVG Version: 6.00 Build 0)  -->
<svg version="1.1" id="Layer_1" xmlns="http://www.w3.org/2000/svg" xmlns:xlink="http://www.w3.org/1999/xlink" x="0px" y="0px"
	 viewBox="0 0 430.7 360" style="enable-background:new 0 0 430.7 360;" xml:space="preserve">
<style type="text/css">
	.st0{opacity:0.27;}
</style>
<g class="st0">
	<path d="M430.7,54.3c-0.6-1.8-0.4-3.6-0.4-5.4c-0.2-7.8-0.3-15.7-0.8-23.5c-0.2-3.7-1.6-7.2-2.6-10.7c-0.3-1.2-1.8-1.7-2.2-2.9
		c-0.1-0.3-0.6-0.2-1,0c-2.1,1.2-3.1,2.9-3.1,5.4c0.1,10.6,0.1,21.2-0.1,31.7c-0.1,5.7,0.2,11.5,0.2,17.2c0,4.6-0.5,9.3,0.3,14
		c0.5,2.7,0.5,2.8,3.3,2.8c0.8,0,1.5,0,2.3,0.1c-3.2-0.1-6.5,0.5-10.1,0c1.2-0.4,1.4-1.2,1.5-2.1c0.8-4.7,1.3-9.4,1.2-14.2
		c0-2.8-0.4-3.1-3.2-3.1c-0.9,0-0.9,0-1.8-0.6c0.9-0.6,1.8-0.4,2.6-0.2c1.9,0.3,2.6-0.5,2.5-2.3c-0.1-1.7-0.4-3.5-0.3-5.2
		c0.1-6.8,0.5-13.6,0.3-20.4c-0.2-6.2,0-12.4-0.9-18.6c-0.4-2.5-1.6-3.6-4-3.4c-3.2,0.2-4.5,1.3-4.6,3.7c-0.2,6.9-0.7,13.9-0.8,20.8
		c-0.2,7.1-0.2,14.2-0.3,21.2c0,7.3,0,14.6,0.2,21.9c0.7-1,0-2.2,0.9-3.4c0.3,2.2,0.6,4,0.9,5.9c-3.5,0.1-2.9,0.6-2.9-2.7
		c0-12.5,0-24.9,0.1-37.4c0-1.7-0.5-2.7-2.6-2c-1,0.3-2.2,0.3-3.6-0.1c1.3-0.7,2.4-0.9,3.5-0.7c2.2,0.2,2.8-0.9,2.7-2.9
		c-0.1-5.6-0.1-11.2-0.1-16.8c0-2,0.1-3.9-0.5-5.8c-0.6-1.7-1.5-2.5-3.3-1.7c-0.9,0.4-1.7,0-2.4-0.3c-2.7-1.1-3.9-0.4-4.1,2.6
		c-0.9,12.2-0.4,24.4-0.5,36.6c-0.1,9,0.1,17.9,0.1,26.9c0,1.3,0.2,2.5,0.2,3.8c0,0.5,0,1.1-0.7,1.1c-0.6-0.1-0.6-0.6-0.6-1.1
		c1-10.9,0.4-21.8,0.5-32.8c0-9.4-0.3-18.8-0.4-28.1c0-3.2-1.4-6.1-2.3-9.1c-0.4-1.4-1.6-1.5-2.8-1.3c-1.7,0.3-3.9,0.3-4,2.6
		c-0.2,3.2-1,6.3-0.8,9.6c0.2,3.1-0.4,6.3-0.4,9.4c-0.1,13.3-0.2,26.6-0.3,39.9c0,2.9,0.2,5.9,0.4,8.8c0.1,1.5-0.3,2.4-2.1,2.2
		c-1.2-0.2-2.3,0-4.1,0c3.9-1.2,5.2-3.7,4.8-7.4c-0.2-2,0.1-4,0.2-6.1c0.1-3.1-0.5-6.4-0.1-9.3c0.7-5.6,0.3-11.2,0.5-16.8
		c0.2-4.1-0.1-8.3,0-12.4c0-2.3-0.5-4.4-1.1-6.6c-0.2-0.7-0.3-1.4-1.2-1.4c-0.6,0-1.3-0.2-1.7,0.5c-0.4,0.7,0,1.3,0.6,1.8
		c0.2,0.2,0.3,0.5,0.1,0.9c-1,0.1-1.9-0.5-2.5-1.1c-0.8-0.7-0.8-1.9,0.1-2.3c1-0.5,2.1-0.8,3.2-1.1c1.2-0.3,1.9-0.7,1.8-2.1
		c-0.1-2.2-0.1-4.5-0.9-6.6c-0.4-1.2-0.8-2-2-0.4c-0.9,1.1-2,2.4-3.5,0.4c-0.5-0.6-1.5,0.3-1.5,0.9c-0.1,2.3-1.8,4.2-1.5,6.5
		c0.8,6.3-0.3,12.5-0.3,18.7c0,14,0.4,28,0.5,42c0,0.4,0,0.8-0.1,1.3c-0.1,0.4-0.3,0.7-0.7,0.6c-0.4,0-0.5-0.4-0.5-0.8
		c0-0.5,0-1,0-1.5c0.6-16.5,0.3-32.9,0.2-49.4c0-5-0.5-10-0.4-15.1c0-0.1,0-0.1,0-0.2c-0.3-0.9-0.2-2.4-1.3-2.3
		c-0.7,0-1.2,1.5-0.9,2.5c0.3,1.3-0.7,2.4-0.5,3.7c0.3,3.1-0.6,6.2-0.4,9.4c-1.5-2.2-1.7-4.6-1.8-7.1c-0.1-2.5-0.1-4.8,0.3-7.3
		c0.2-1-0.4-2-1.8-2.2c-0.3,0-0.6,0.1-0.8,0c-2.4-0.8-2.4-0.8-2.5,1.9c-0.2,7.5,0.2,15,0.1,22.5c-0.1,8.3,0.4,16.7,0.2,25
		c-0.1,5.3,0,10.5,0,15.8c0,0.9-0.1,1.8,0.3,2.7c0.4,1,0.1,1.8-0.5,2.5c-0.3,0.3-0.8,0.4-1.2,0.2c-0.9-0.6-0.8-1.7-0.7-2.4
		c0.5-3.9,0.3-7.8,0.4-11.7c0.2-10.1,0.2-20.3,0-30.4c-0.1-6.6,0.2-13.1,0-19.7c0-1.1,0.4-3.2-0.6-3.2c-1.5,0-0.8,2-1,3.2
		c-0.1,0.4-0.1,0.8-0.2,1.2c-0.1,0.5-0.3,1-0.9,0.9c-0.5-0.1-0.4-0.6-0.5-1c-0.4-2.5-1.4-4.5-3.5-6c-0.5-0.3-0.3-0.9-0.4-1.3
		c-0.1-0.6-0.2-1.1-0.9-1.2c-0.7-0.1-1.2,0.2-1.6,0.8c-0.5,0.9-0.7,1.9-0.7,2.8c0,7-0.7,14-0.2,21c0.1,1.7-0.2,3.3-0.4,5
		c-0.6-4.4-0.2-8.7-0.3-13.1c0-1.2,0-2.3-1.5-2.5c-0.3,0-0.7-0.3-0.8-0.6c-1.2-2.4-3.4-2.1-5.3-1.6c-2,0.5-2.4,2.5-2.4,4.3
		c0,3.8,0.3,7.6,0.3,11.3c0,8.4-0.2,16.8-0.3,25.2c-0.1,5.6-0.3,11.2-0.1,16.8c0.1,2.2-0.6,2.9-2.6,2.5c-0.3-0.1-0.7,0-1.2-0.2
		c3.2-0.5,2.5-3.1,2.7-4.9c0.6-6.5,0.3-13,0.3-19.5c0-12.5,0.2-24.9-0.4-37.4c-0.1-2.3-2.3-2.5-3.6-3.6c-0.5-0.4-1.5-0.3-1.3-1.3
		c0.2-0.9,1-0.9,1.7-0.9c0.8-0.1,1.5-0.1,2.5-0.2c-0.4-0.9-0.7-1.7-1-2.4c-0.5-1.2-1.1-2.3-2.6-1c-0.5,0.4-1,0.2-1.6,0
		c-2-0.6-3-0.1-3.8,1.9c-0.8,2.2-0.7,4.5-0.5,6.7c0.7,9,0.4,17.9,0.2,26.9c-0.2,10.1-0.1,20.2,0,30.3c0,1.5-0.4,3.2,0.8,4.6
		c0.2,0.3,0.2,0.8-0.1,1.2c-0.3,0.3-0.7,0.3-1.1,0c-0.5-0.4-0.9-0.2-1.3,0.1l0,0c-0.4-2.8,0.6-5.5,0.7-8.3c0.4-10,0.1-20,0.2-30.1
		c0-3.1-0.3-3.4-2.8-3.9c2.8-0.3,2.9-0.3,2.9-3.1c0-4.6,0.2-9.3-0.1-13.9c-0.2-2.6,0.2-5.1-0.1-7.7c-0.3-3-1.4-4-4.3-4.3
		c-2.7-0.3-3.7,0.5-4.2,3.1c-0.6,3.2-0.7,6.4-0.7,9.6c-0.3,18.1-0.2,36.2-0.1,54.2c0,0.8,0.1,1.5,0.2,2.3c0.3,2,0.3,2-2.1,1.7
		c1.1-0.5,1.1-1.4,1.2-2.3c0.1-3.5,0.3-7,0.3-10.5c0-10.9,0.1-21.9,0-32.8c0-7.1-0.1-14.3-0.6-21.4c-0.1-1.6-1.2-2.7-1.8-4
		c-0.3-0.7-1.5-1-2.6-0.4c-1.2,0.7-2.4,1.3-3.7,1.7c-1.6,0.6-1.8,2.2-1.8,3.7c-0.2,6.9-0.5,13.9-0.5,20.8c0.1,7.7,0,15.4-0.1,23.1
		c0,6.9,0.1,13.8,0.1,20.8c0,0.4,0.3,1-0.4,1.3c-0.8-0.4-0.6-1.2-0.5-1.9c0.9-7.1,0.2-14.3,0.3-21.4c0.2-13.1,0.2-26.2-0.1-39.3
		c-0.1-2.4-1-4.8-0.7-7.2c0-0.5-0.1-1.2-0.8-1.3c-0.7-0.1-0.8,0.6-1,1.1c-0.2,0.5-0.2,1.1-0.5,1.6c-0.4,0.9-1.3,1.2-2.1,1
		c-1.4-0.3-0.6-1.6-1-2.5c-0.1,0-0.2-0.2-0.3-0.2c-3.5,0.8-3.6,0.8-3.7,4.5c-0.3,7.6-0.4,15.3-0.5,22.9c-0.1,11,0,22,0,33.1
		c0,2.7,0.1,5.3,0.7,7.9c0.2,0.7,0.5,1.7-0.7,1.8c-1.2,0.1-0.8-1.1-0.8-1.7c0.3-13,0-25.9,0.1-38.9c0-8.4,0.3-16.8-0.2-25.2
		c-0.1-1.5-0.3-2.9-0.4-4.4c-0.1-1-0.3-1.9-1.7-1.2c-0.2,0.1-0.5,0-0.8-0.1c-4.1-1.6-6.4-0.1-6.7,4.3c-0.2,2.8-0.3,5.6-0.5,8.4
		c-0.7,12.3-0.3,24.5-0.5,36.8c-0.1,6.9,0.1,13.7,0.1,20.6c0,0.5,0.5,1.5-0.5,1.5c-0.8,0-0.6-1-0.6-1.6c0-8.9,0.1-17.8,0.1-26.7
		c0-11.6,0.8-23.3,0.2-34.9c-0.1-2.2,0.2-4.6-1.2-6.9c-0.9,1.2-0.9,2.2-0.8,3.4c0.1,0.8,0.4,1.6,0.2,2.3c-0.2,0.7,0.5,1.8-0.8,2
		c-1.7,0.3-2.7-0.3-2.9-2.1c0-0.4,0-0.8,0-1.4c0.7,0.3,0.5,0.8,0.5,1.1c0.1,0.3,0,0.8,0.5,0.8c0.4,0,0.7-0.2,0.8-0.6
		c0.3-0.9,0.2-1.8-0.1-2.7c-0.4-1.2-1.4-2-1.5-3.4c0-0.6-0.7-1-1.5-0.8c-1.2,0.4-3.5,3.4-3.6,4.7c-0.3,8.2-0.8,16.4-0.8,24.6
		c0,12.8,0,25.5-0.1,38.3c0,1,0.1,2.1,0.2,3.1c0,0.4,0,0.9-0.5,1.1c-0.3,0.1-0.7,0-1-0.2c-0.5-0.3-0.2-0.7,0-1.1
		c0.9-1.4,0.8-3,0.8-4.5c0-17.7,0-35.5,0-53.2c0-3.2,0-6.4-0.1-9.7c0-2.2-0.8-2.7-2.9-1.9c-1.2,0.4-2.2,0.6-3.4,0.2
		c-2.2-0.8-3-0.3-3.3,2c-0.4,4.1-0.8,8.2-0.9,12.4c-0.2,10.9-0.3,21.9-0.3,32.8c0,5.5,0.1,11.1,0.2,16.6c0,1.7-0.1,3.5,0.8,5.1
		c0.3,0.5,0.7,1.5-0.5,1.6c-1.1,0.2-1.1-0.7-1.1-1.4c-0.3-4.6,0.3-9.1,0.3-13.6c0-13.2,0-26.5,0-39.7c0-2.9-0.3-5.9-0.4-8.8
		c-0.1-2.3-1.1-4.3-2-6.3c-0.1,0.5-0.3,0.9-0.4,1.3c-0.4,0.2-0.4-0.1-0.4-0.3c-0.2-0.9,0.1-2.1-1.4-2.1c-1.4,0-1.7,0.9-1.8,2.1
		c0,1-0.1,1-1.2,0.7c-0.8-0.3-2.4,1.7-2.4,3.2c-0.1,3.1-0.2,6.2-0.3,9.2c-0.4,16.7-0.5,33.5-0.2,50.2c0,1,0.3,1.9,0.9,2.8
		c0.7,0.9,0.6,2-0.2,2.7c-0.8,0.7-1.9,0.5-2.8,0.1c-1-0.4-0.5-1.3,0-1.7c1.1-0.9,1.1-2.1,1.1-3.3c0.3-21.2,0.2-42.5-0.1-63.7
		c0-2.6-1.5-3.5-3.9-2.6c-1.1,0.4-2.1-0.6-3.3,0.1c-2.1,1.3-2.6,3.2-2.8,5.5c-0.7,11.3-0.3,22.7-0.6,34c0,0.6-0.1,1.2-0.3,1.8
		c-0.5-1.4,0-2.7-0.1-4.1c-0.1-8.7-0.2-17.4-0.3-26.1c0-2.2-0.8-2.5-2.9-1.9c-1.5,0.5-3-0.5-4.3-1.2c-2.8-1.5-3.2-1.4-3.4,1.7
		c-0.5,7.1-0.3,14.3-0.3,21.4c0,12.6,0,25.2,0.3,37.8c0,1.3,0.3,3.1-2.1,2.3c0.8-3.1,1.4-6.2,1.4-9.4c0.1-18.4,0.1-36.7-0.1-55.1
		c0-2.3-1.4-3.4-2.7-4.6c-1-0.9-1.6,0-1.8,1.1c-0.3,1.5-0.4,3-1.9,3.9c0.7-1.3-0.3-2.8,0.8-4.1c0.6-0.7-0.1-0.9-0.7-1.1
		c-2.1-0.4-3.3,0.4-3.2,2.7c0,6.8-0.4,13.6-0.6,20.4c-0.2,6.1-0.3,12.2-0.1,18.3c0.3,8.8-0.2,17.5,0.4,26.3c0,0.7,0.4,1.7-0.8,1.7
		c-1.1,0-1-1.1-0.9-1.8c0.4-5.8,0.3-11.6,0.2-17.4c0-11.8,0.5-23.7,0.1-35.5c-0.1-2.5-0.7-3-3.2-2.9c-1,0-2.1,0.4-3.2-0.3
		c1.2-1,2.4-0.3,3.4-0.3c2.6,0,3.1-0.3,3.2-3c0-2.2-0.2-4.5-0.3-6.7c0-0.9-0.2-1.8-1.2-2.3c-1.2-0.6-1.2,0.9-2.1,1.2
		c0.3-1.8-0.9-2.8-1.8-3.9c-1-1.3-1.9-0.3-2.5,0.6c-0.4,0.7-0.2,1.7-1.7,1.2c-1.1-0.3-1,1.1-1,1.9c0,4.1-0.1,8.1,0,12.2
		c0.3,7.8-0.3,15.6,0,23.3c0.4,10.5-0.3,21-0.4,31.5c0,0.5,0.2,1.1-0.7,1.7c0-2.3,0-4.5,0-6.6c0-2.2,0-4.5,0-6.7
		c0-2.7-0.1-2.7-2.6-2c-1.9,0.5-3.8,0.5-5.9-0.6c1.6-0.9,3.1-0.6,4.5-0.6c3.9-0.1,3.9,0,3.9-3.9c0.2-16.5,0.2-33.1,0-49.6
		c0-2.8-0.7-3.3-3.3-1.9c-1.2,0.7-2.5,0.8-3.6,0.3c-1.3-0.6-1.7,0-2.2,1c-0.5,1.2-0.8,2.4-0.9,3.6c-0.8,17-1,34-0.8,51.1
		c0.1,4.8-0.3,9.7-0.1,14.5c0,0.5,0.2,1.3-0.7,1.2c-0.7-0.1-0.9-0.6-0.7-1.3c1.7-4.7,0.4-9.6,0.6-14.4c0.2-10.7,0.1-21.4,0.2-32.1
		c0-2.5,0-5,0-7.6c0-1.2,0.1-2.6-1.4-3.3c-0.4-0.2-0.5-0.3-0.2-0.8c1.6-2.7,0-5.6,0.3-8.4c-0.7,0.6-0.4,1.5-0.4,2.2
		c0,0.8-0.1,1.7-0.1,2.5c0,0.7,0.2,1.7-0.6,1.8c-0.9,0.1-0.7-1-0.9-1.6c-0.3-0.7-0.7-1.5-0.7-2.2c0.1-2.4-1.7-3.4-3.4-4
		c-1.2-0.4-1.3-1.1-1.6-2.2c-1,1.3-1.1,2.5-1.1,3.7c-0.3,12.3-0.6,24.6-0.5,37c0.1,7.1,0,14.3,0,21.4c0,2.5,0.2,5,0.6,7.5
		c0.1,0.8,0.3,1.7-0.8,1.7c-0.9,0-0.9-0.9-0.8-1.6c1.3-14.7,0.3-29.4,0.8-44.1c0.1-2.9,0-5.7,0-9.1c-1.1,1.6-0.3,3.1-1.4,4.2
		c0-1.8-0.6-3.5-1.5-5c-0.2-0.3-0.1-1.2-0.4-0.9c-0.6,0.8-1.4-0.5-2,0.6c-0.9,1.5-0.6,3.1-1,4.7c0.1-3-1.7-6,0-9.1
		c0.1-0.2,0.1-0.6,0-0.8c-1.9-2.6-0.7-5.7-1.4-8.5c-0.1-0.6,0.2-1.4-0.7-1.5c-0.7-0.1-1.1,0.6-1.4,1.1c-0.4,0.7-0.4,1.5-0.5,2.2
		c-0.5,10.2-0.3,20.5-0.2,30.7c0.1,4.8,0,9.6,0,14.5c-0.2,0-0.5,0-0.7,0c0-8.4,0-16.7,0-25.1c0-5.2-0.2-10.4-0.2-15.5
		c0-2.4-0.4-4.5-3.4-5.2c0.3,3.2-0.4,6.5,0.1,9.8c0.1,1,0.5,2.5-0.4,2.6c-1.4,0.2-0.9-1.4-1.1-2.2c-0.5-1.6,0.1-3.7-1.8-4.9
		c-0.2-0.1-0.2-0.8-0.1-1c2.4-2.7-1.3-4.9-0.3-7.5c-1.3,2.4-3.7,3.9-3.6,7.1c0.3,8.7,0,17.4,0,26.1c0,10.8,0.1,21.7,0.1,32.5
		c0,0.4,0,0.7,0,1.1c0.1,1.5,0.7,3.2,0.2,4.6c-0.6,1.5-2.6,0.4-3.9,1c-1.4,0.7-2.5,1.7-3.7,2.6c0.3-1.2,1.1-2.3,2-2.6
		c3.8-1.5,4.5-4.5,4.5-8.1c0-8.3,0.1-16.5,0.1-24.8c0-8.8,0.3-17.5-0.1-26.3c-0.1-2.5-0.1-5.1-0.1-7.6c0-1.5-0.7-3-1.4-4.3
		c-0.5-0.9-1.5-1.7-2.6-0.7c-0.8,0.7-1.4,0.6-2.3,0.2c-1.8-0.9-3.2-0.2-3.6,1.8c-0.3,1.5-0.4,3.1-0.4,4.6c-0.2,21-0.3,42.1-0.5,63.1
		c0,0.5,0.1,1.1-0.4,1.8c-0.6-1-0.5-2-0.5-2.9c0.1-15.8,0.2-31.5,0.3-47.3c0-5.3-0.1-10.5-0.1-15.8c0-2.7-1.6-4.8-2-7.5
		c-0.8,1.5-2.7,1-3.5,2.5c-0.3,0.6-0.8-0.1-1.1-0.5c-0.5-0.6-0.8-1.5-1.8-1.1c-1,0.4-1.8,1.2-1.9,2.3c-0.2,1.8-0.3,3.6-0.4,5.5
		c0,6.6,0,13.2,0,19.8c-0.2,0-0.5,0-0.7,0c0-6.5,0-13.1,0-19.6c0-2.3-0.1-4.6-0.5-6.9c-0.2-1.3-0.3-3.2-2.7-1.7
		c-0.4,0.3-2,0.2-3-0.2c-2.2-0.7-3.1-0.2-3.5,2.1c-0.6,3.6-0.6,7.3-0.5,10.9c0.1,15.3-0.5,30.5-0.5,45.7c0,4.1-0.2,8.3,0.3,12.4
		c0.1,0.6,0.4,1.5-0.4,1.6c-1.1,0.1-0.8-1-0.8-1.6c0.1-8.8,0.3-17.5,0.3-26.3c0-14.6,0.2-29.3-0.4-43.9c0-0.4,0-0.8-0.1-1.2
		c-0.1-0.4-0.4-0.9-0.9-0.6c-0.5,0.2-0.4,0.7-0.1,1.1c1.1,1.5,1,2.4-1,3c-1.2,0.4-0.9,1.9-1,3c-0.1,0.7,0.3,1.9-0.8,1.8
		c-0.7,0-1.4-0.9-1.4-2c0-2.5-1.6-3.6-3.6-4.3c-0.9-0.3-1.3-0.5-1.5,0.9c-0.6,4.8-0.4,9.7-0.4,14.5c0,10.3-0.1,20.6,0.2,30.9
		c0.2,7.7-1,15.4-0.3,23.1c0,0.4,0,1-0.4,1c-0.7,0-0.6-0.6-0.6-1.1c0.7-12.3,0.7-24.6,0.6-37c-0.1-8.8-0.3-17.7-0.4-26.5
		c0-0.7,0-1.4-0.5-2c-1-1.1-1.4-2.1-0.7-3.6c0.4-1,0.1-1.9-1.4-1.2c-0.7,0.3-1.3,0.5-2,0.1c-0.8-0.5-1.4-0.1-1.6,0.7
		c-0.3,1.2-0.8,1.3-1.7,0.4c-1.3-1.3-1.8-0.4-2,0.8c-0.1,0.8-0.1,1.5-0.1,2.3c0.2,6.6-0.3,13.1-0.9,19.7c0-2.2,0-4.5,0-6.7
		c0-2.8-0.6-3.5-3.4-4.1c-1.2-0.2-2.3-0.4-3.5-0.8c1.5,0,3,0,4.6,0c1.4,0,2-0.3,2-1.9c0-3.6,0.1-7.3-1.1-10.8
		c-0.8-2.4-2.4-2.9-4.5-1.5c-0.2,0.2-0.4,0.4-0.7,0.5c-3.7,0.4-3.8,3.3-3.8,5.8c-0.1,10.7-0.3,21.4,0.1,32.1
		c0.4,11.1,0.1,22.1,0.5,33.2c0,0.8,0,1.5-1,1.4c-0.8,0-0.7-0.7-0.7-1.3c0.5-9.2,0.2-18.3,0.3-27.5c0.2-11.7-0.4-23.4-0.5-35.1
		c0-2.6-1.9-4.9-1.4-7.6c0.2-1.4-0.7-2.2-1.6-2.2c-1.7,0-3.6-0.7-5.2,0.9c0.9,0.8,2.8,1.5,1.7,2.9c-1,1.3-2-0.3-2.9-1
		c-0.8,1.5-0.7,2.9-0.7,4.4C80,27.9,80,38.5,80,49.1c0,10.5,0,21,0,31.5c0,0.6-0.1,1.3-0.1,1.9c0,0.7-0.1,1.3-1,1.2
		c-0.8-0.2-0.6-0.8-0.5-1.3c0.3-2.7,1.1-5.3,1.1-8.1c-0.2-18.4,0.4-36.7-0.1-55.1c-0.1-2.3-0.2-4.6-0.4-6.9
		c-0.1-0.9-0.2-1.9-1.4-2.1c-2.2-0.4-4.3,0.6-6.2,1.3c-1.7,0.6-2.4,2.5-2.4,4.7c0.2,10.7-0.7,21.4-0.2,32.1
		c0.5,11-0.1,21.9,0.6,32.9c0,0.3,0,0.7,0,1.1c0,0.7,0.1,1.5-1,1.5c-0.9,0-0.8-0.8-0.8-1.4c0-3.2,0.1-6.3,0.1-9.5
		c0-14.7-0.1-29.4-0.2-44.2c0-3.2-1-4-4.2-3.9c-0.6,0-2,1-2-1.1c0-0.7,0-0.6,0.4-0.6c1.4-0.1,2.8-0.1,4.2-0.2
		c0.9-0.1,1.6-0.5,1.5-1.6c-0.1-3-0.2-6-0.4-9c-0.1-1-0.5-2-1.7-2.1c-0.6-0.1-1.4-0.2-1.6,0.6c-0.2,0.7-0.3,1.5-0.5,2.5
		c-1-0.8-1.4-3.1-3.2-1.3c0,0-0.5-0.2-0.6-0.4c-1.4-2.2-1.9-0.6-2.1,0.6c-0.7,3.1-0.5,6.3-0.4,9.4c0.1,2-0.1,3.9-0.1,5.9
		c-0.1,16,0,32.1,0,48.2c0,2.2,0,4.3,0,6.5c0,1-0.3,1.5-1.4,1.6c-1.3,0.1-2.6,0.4-4,0c-0.5-0.1-1-0.3-1-0.9c0-0.6,0.3-0.9,0.8-1.1
		c0.1,0,0.3-0.1,0.4-0.1c2.6-0.3,3.1-1.8,3.4-4.4c1.4-9.9,0.9-19.8,0.9-29.7c0-6.1,0.1-12.2,0-18.3c-0.1-5.1-0.2-10.2-0.5-15.3
		c0-0.4,0.8-3.7-1.7-1.2c-0.3,0.3-0.6,0-0.9-0.2c-0.9-0.9-2.9-1.4-3.1-0.9c-0.9,1.6-3.3,2.2-3.2,4.7c0.2,5.3-0.5,10.5-0.6,15.7
		c-0.4,15.8-0.4,31.5-0.1,47.3c0,1.1,0.2,2.2,0.3,3.3c0.1,0.8-0.4,1.4-1.1,1.2c-1-0.3-2.4,0.3-3-1c-0.2-0.5,0.5-1,0.7-0.9
		c1.8,0.6,1.4-0.8,1.6-1.6c1-5,0.4-10.1,0.5-15.1c0.1-16,0.1-32.1,0-48.1c0-1.4,0.1-2.7-1-4c-0.1,1.2-0.1,2.3-0.2,3.5
		c-0.1,0.7,0.1,1.5-1,1.5c-0.9-0.1-1.3-0.6-1.4-1.5c-0.1-1.4,0.1-2.9-0.4-4.6c-1.5,1.9-0.4,3.8-0.6,5.8c-2-1.6-0.1-4.2-2.1-5.8
		c0.1,1.4-0.2,2.4-0.9,3.3c-0.3,0.4-0.3,1.3-1,1.2c-0.7-0.1-0.5-0.9-0.6-1.4c-0.1-0.3,0-0.6-0.7-0.7c-0.5,2.9-0.8,5.7-0.8,8.6
		C34,32.5,34,42.3,33.9,52.1c0,9.8-0.1,19.6,0.6,29.4c0,0.4,0.1,0.8,0.1,1.3c0,0.4-0.2,0.7-0.6,0.7c-0.2,0-0.4-0.4-0.5-0.6
		c-0.1-0.3,0-0.7,0-1c0.5-22.6,0.2-45.3,0-67.9c0-0.4,0-0.7,0-1.1c0-0.8-0.4-1.5-1.2-1.8c-0.4-0.1-0.7-0.1-0.9,0.3
		c-0.4,0.8,0,1.4,0.5,2.1c0.9,1.3,2,2.7-0.3,3.9c-0.3,0.1-0.3,0.9-0.3,1.4c-0.1,1.2-0.1,2.5-0.3,3.7c-0.4-2.1,0-4.3-1.5-6.2
		c-0.6-0.7,0.2-1.9,0.7-2.7c0.5-0.7,0.6-1.6-0.1-2.1c-0.8-0.7-1.3,0.2-1.7,0.6c-0.5,0.5-1.1,0.9-1.8,1.1c-2.2,0.6-2.9,2.2-3,4.3
		c-0.3,6.9-0.1,13.7-0.1,20.6c0,3.6-0.3,7.1-0.3,10.7c0,7.9,0.2,15.8,0.3,23.7c0,2.8,0.7,5.6,1.1,8.3c0.3,1.7,3.1,2.3,4.4,1
		c0.9-0.9,2.7-0.5,2.9,0.7c0.2,1.1-0.7,1.1-1.4,1c-2.7,0-5.5-0.1-8.2-0.2c-1.8-0.1-3.6-0.2-5.9-0.4c5.1-0.9,5.6-1.5,5.8-6.5
		c0.6-11.1,0.2-22.3,0.2-33.4c0-6.1-0.2-12.2-0.4-18.3c-0.1-1.5,0.6-3.1-0.9-4.5c-0.5-0.4,0.1-1.6,0.4-2.4c0.4-0.8,0.5-1.6,0.4-2.5
		c-0.5,0.2-1.1,1.5-1.3-0.1c-0.1-0.9,0.6-1.9,0.1-2.9c-0.7,0.1-0.7,0.9-1.1,1.2c-0.2,0.2-0.6,0.4-0.8,0.5c-1.2-2-2.6,0.3-3.9-0.1
		c-1.7-0.5-2.4,0.7-2.5,2.2c-0.2,4.1-0.3,8.1-0.5,12.2c-0.1,2.5-0.3,4.9-0.4,7.3c-0.3,3.6,0.3,7.2-0.4,11.2c-0.5-4.5,0-8.7-0.2-12.9
		c-0.2-3.6-0.4-7.2-0.6-10.9c0-0.3,0-0.7-0.2-1c-0.4-0.9-0.1-2.7-1.5-2.6c-1.4,0.1-1.2,1.6-1.2,2.7c0,0.7-0.2,1.3-0.9,2.2
		c-0.1-1.8,0.9-3.6-0.6-4.4c-1.3-0.6-1.6-1.6-1.7-2.5c-0.2-2.3-1.4-4.2-1.9-6.6c-1.3,0.6-1.6,1.8-1.7,2.9c-0.6,4.2-0.5,8.4-0.5,12.6
		c-0.1,12-0.3,24-0.1,36c0.1,6.3-0.5,12.6,0.3,18.9c0.1,0.7,0.2,1.5-0.7,1.8C0,56.9,0,30.6,0,4.2C0.8,3.9,1.6,3.9,2.4,4
		c1.9,0.4,3.7,0,5.1-1.2c1.3-1.1,2.8-2,4.2-2.9c3.4,0,6.7,0,10.1,0c0.2,2,2.3,3.6,4.6,3.2c1.3-0.2,2.6-0.3,3.7,0.3
		c1.6,0.8,3.2,1,4.9,1c2.4,0,4.8,0,7.1,0c11.1,0.2,22.2,0.1,33.2-0.5c2.7-0.1,5.4-0.4,8.2,0.8C85.4,5.7,87.9,5.4,90,5
		C92,4.6,94,4.2,96.1,4.2c1.3,0,2.6,1.1,3.7,0.4c2.8-1.6,5.4-0.1,8.1,0.1c3.1,0.2,4.5,0,6-2.9C113.8,4,116.5,4,116.2,6
		c0,0.3,0.7,0.3,1.1,0.2c1-0.2,2.1-0.2,3.1-0.5c3.6-0.9,7.1-2.4,11-2.4c2,0,3.9,0.9,5.8,0.5c4.7-0.9,9.3-0.1,13.9-0.2
		c3.3,0,6.6,0,9.8,0.8c1.3,0.3,2.5-0.9,3.6-0.5c2,0.8,4,0.5,6,0.6c1.2,0.1,2.5,0,3.7,0.6c3,1.4,6,1.9,9.3,1c0.2-0.1,0.5,0.1,0.8,0.1
		c2.2-0.2,4.2,0.8,6.3,1.1c2.2,0.3,4.3-0.4,6.6-0.2c3,0.3,3,0,3.3-3.1c0-0.1,0.2-0.1,0.3-0.2c0.6,1.6,1.7,3.2,3.3,3.5
		c6.3,1,12.7,0.9,19.1,1.1c3.4,0.1,6.6-1,9.9-1.4c4.3-0.5,8.7,0.1,13,0.4c1.5,0.1,3-0.1,4.4,0.2c2.7,0.6,4.6-0.6,5.9-2.6
		c1.1-1.6,2.5-2.3,4.2-2.8c2.8-0.7,5.6-1.5,8.4-2.3c0.6,1.2,1,2.4,2.9,1.9c1-0.3,0.9,0.2,0.4,1c-0.9,1.4-0.4,2.1,1,2.1
		c0.1,0,0.4,0.1,0.4,0.1c-0.1,1.2,1.3,1,1.7,1.9c0.5,1,1.1,1.8,1.2,3c0.6-1.1,0.2-2.2-0.2-3.5c1.8,0.9,3.3-0.1,5,0.3
		c4.2,1.2,4.3,1.1,6.8-2.2c0.1,0.3,0.2,0.6,0.2,0.8c-0.2,2.1,0.7,2.4,2.8,2.3c2.7-0.1,5.4-0.6,8.1-0.5c4.5,0.3,9,1.3,13.5-0.4
		c0.7-0.3,1.5-0.1,2.3-0.1c2.1,0,4.2-0.2,6.3-0.1c2.3,0.2,4.7-1.1,6.8-0.6c5.7,1.4,11.6,1.1,17.4,1.8c0.4,0,0.9,0,1.2-0.2
		c1.8-1.4,3.9-1.1,5.9-1.2c2.6-0.2,5.1-0.2,5.7-3.9c1,2.2,2.4,3.5,4.2,3.4c3.6-0.2,7.2-0.6,10.8-0.8c10.3-0.6,20.5-1.1,30.8-1.2
		c8.8-0.1,17.6,1,26.3,0C430.7,20.6,430.7,37.4,430.7,54.3z M341.1,18.4c0,0-0.1,0-0.1,0c0,1,0,2.1,0,3.1c-0.1,1.7,0.7,2.2,2.3,1.9
		c1.6-0.3,3.2-0.3,4.8-0.4c1.1-0.1,2.4,0.1,2.8-1.3c0.4-1.5,0.6-3.4-0.6-4.4c-1.4-1.2-1.6-2.6-1.7-4.2c0-0.9-0.5-1.2-1.2-1.5
		c-3.6-1.4-6.6,0.6-6.5,4.4C341,16.8,341.1,17.6,341.1,18.4z M230.8,19.7c2.6,0,3-0.4,3-2.4c0-0.7-2.9-3.6-3.5-3.6
		c-0.3,0-0.6,0-0.8,0.2c-1.3,1.4-1.2,3.1-1.1,4.7C228.4,20.1,229.9,19.5,230.8,19.7z M234.6,14.7c0,1.5-0.2,2.7,0,3.9
		c0.2,1.3,1.5,0.9,2.4,1c0.9,0.1,1.6-0.1,1.6-1.1c0-1,0.7-2.5-0.7-3c-1.6-0.5-0.8,1.5-1.6,2C235.1,17,235.9,15.5,234.6,14.7z
		 M14.5,1.5c-0.7,1.3,0.4,2.1,0.3,3.1c0,0.5,0.5,0.6,0.9,0.5c0.4-0.1,0.5-0.6,0.3-0.9C15.5,3.4,15.5,2.3,14.5,1.5z M19.1,8.8
		c0.9-0.2,2,0.3,2.5-0.8c0.2-0.4-0.2-1-0.5-1C20.1,7.1,19.8,8.2,19.1,8.8z"/>
	<path d="M430.7,106.4c-1.3-0.4-1.4-2.6-3.3-2.3c-0.7,0.1-1.5-0.1-0.9,1c0.5,0.9,0.7,1.7-0.4,2c-1,0.3-1.7-0.4-1.9-1.5
		c-0.1-0.3-0.1-0.5-0.2-0.9c-0.9-0.1-1.3,1.3-2.5,0.7c-0.6-0.3-1,0.6-1.2,1.2c-0.4,1-0.4,2-0.5,3.1c-0.2,6.7,0.3,13.3,0.1,20
		c-0.3,9.7-0.1,19.3-0.2,29c0,2.6,0.2,5.2,0.2,7.8c0,1.5,0.5,1.7,1.9,1.5c1.7-0.2,3.5-0.1,5.2,0.2c-1,0-2,0-3,0
		c-1.7,0-3,0.7-3.3,2.5c-0.4,2,0.2,2.7,2.7,3.7c-1.1,0.1-1.8,0.3-2.5,0.3c-2.6,0.1-2.7-0.2-2.3-2.7c0.4-2.6,0.5-5.3,0.6-7.9
		c0.2-11.5,0.4-23,0-34.5c-0.1-4.4-0.1-8.7,0-13.1c0.1-2.8-0.3-5.6-0.7-8.3c-0.2-1.2-1-2.3-1.7-3.2c-0.7-1.1-2.3-0.7-3.5-0.5
		c-3.6,0.5-3.8,0.5-4.2,4.1c-0.7,7.2-0.5,14.4-0.3,21.6c0.1,5.6,0,11.2,0,16.8c0,2,0,4,0,6c-0.2,0-0.5,0-0.7,0c0-1.3,0-2.7,0-4
		c-0.1-13.2-0.2-26.4-0.1-39.5c0-2.8-1.5-4-3.4-5.1c-0.7-0.4-2.1-1.8-2.4,0.6c-0.7-0.6-1.7-0.1-2.2-0.6c-1.2-1.1-1.3,0-1.5,0.6
		c-0.5,1.7-0.8,3.4-0.8,5.2c-0.1,14.2-0.9,28.4-0.5,42.6c0.1,3.3-0.1,6.7,0,10c0,0.8-0.4,1.9,0.7,2.4c0.1,0,0.3,0.2,0.3,0.2
		c-1.9,2.8,0,6-1,8.9c0,0.1-0.2,0.2-0.3,0.2c-0.6-0.4-0.4-1-0.4-1.5c0.3-16.1,0.4-32.2,0.3-48.3c-0.1-5.9-0.3-11.9-0.4-17.8
		c0-1.4-0.3-2.8-1.8-3.2c-1.7-0.5-3.5-2.1-5.2,0c-0.8,1.1-1.5,0.4-2.4-0.3c-0.8,2.6-0.8,5.1-0.8,7.5c-0.1,7.5-0.2,15-0.3,22.5
		c-0.1,9.9,0.2,19.7,0.2,29.6c0,3,0.2,6.1,0.1,9.2c0,1.1,0.8,1.6,1.3,2.3c-0.8,0.5-1.6,0.3-2.3,0.3c-0.3,0-0.5-0.1-0.8-0.2
		c0.5-1.3-0.9-2.6-0.6-3.6c1.5-4.8,1.1-9.8,1.3-14.7c0.1-2-0.1-4,0.1-6.1c0.5-3.6-0.5-7.3-0.3-10.9c0.4-6.3-0.3-12.7-0.1-19
		c0.1-4,0.1-8-0.5-11.9c-0.3-2-1.9-3.9-3.2-5.5c-1-1.2-3.1-0.6-3.9,0.9c-0.9,1.7-1.7,3.4-1.7,5.3c-0.1,5.7-0.2,11.5-0.2,17.2
		c0,15.1-0.4,30.2-0.2,45.3c0,1.1-0.1,2.1,2,2.4c-2.2,0.8-3.7,0.7-5.2,0.3c-0.8-0.2-0.9-0.7-0.3-1.1c0.5-0.3,1-0.6,0.9-1.2
		c-0.6-5.2,2.3-10,1.8-15.2c-0.4-5.1-0.1-10.2,0-15.3c0.2-10,0-20-0.2-30c0-1.8-0.6-3.4-1.2-5c-0.1-0.2-0.3-0.5-0.3-0.5
		c-1.2,0.5-2.4,0.9-3.8,0.9c-0.7,0-0.3,1.4-0.6,2.4c1.3-0.9,3-0.4,3.2,1c0.3,2.2,0.4,4.5,0.6,6.7c0,0.6,0.1,1.5-0.8,1.4
		c-0.8-0.1-0.7-0.9-0.7-1.5c0.1-1.8,0.6-3.6-0.4-5.3c-0.2-0.3-0.1-0.9-0.7-0.8c-0.5,0.1-0.5,0.6-0.6,1c-0.1,0.7-0.2,1.5-0.3,2.7
		c-1-1.4,0-2.9-1.1-3.8c-0.7,0.8,0.1,2.1-1,3.2c0-1.8,0-3.4,0-4.9c0-0.5,0.4-1.3-0.3-1.5c-0.9-0.2-0.7,0.8-0.9,1.4
		c-1.3,2.8-1.3,5.9-1.4,8.9c-0.1,11.2-0.3,22.4,0,33.6c0.2,7.3-0.2,14.6-0.1,21.8c0,0.9,0,1.8-1.3,1.6c-0.8-0.1-1.5-0.2-0.9-1.4
		c1.4-2.9,1.2-6,1.2-9.2c0-7.5,0.1-15,0.1-22.4c0-10.4,0-20.9-0.1-31.3c0-2.2-0.8-4.3-1.2-6.4c-0.1-0.8-0.7-1.4-1.4-1.3
		c-1.7,0.4-3.3,0.2-5-0.1c-0.9-0.2-1.5,0.5-1.9,1.4c-0.5,1.3-0.7,2.5-0.8,3.9c0,6.9-0.1,13.7-0.2,20.6c0,1,0,1.9-0.3,2.9
		c-0.6-2.1,0-4.3-0.3-6.4c-0.5-3-0.6-6.1-0.7-9.2c0-2.6,0.5-5.1,0.4-7.7c0-3.5-2.4-5.3-5.7-3.6c-1.2,0.6-2.3,1.5-3.7,2
		c-1,0.3-1,1.4-1,2.4c-0.1,7.1-0.1,14.3-0.2,21.4c-0.1,13,0,26,0.3,39.1c0,1.2,0.2,2.4,0.2,3.6c0,0.6,0.1,1.4-0.8,1.4
		c-1.1,0.1-0.7-0.8-0.7-1.4c0-8,0-16,0-23.9c0-1.6,0.1-3.4-2.5-2.9c-0.1,0-0.4-0.1-0.5-0.3c-0.1-0.3,0.1-0.5,0.3-0.7
		c0.6-0.4,1.4-0.1,2-0.9c-1.5-0.5-2.9-0.1-4.4-0.2c0.2-0.1,0.3-0.2,0.3-0.2c5.7,0.1,4.8,0,4.8-4.9c0-7.6,0.1-15.1-0.2-22.7
		c-0.1-2.6-0.5-5.3-0.8-7.9c-0.2-1.5-1.1-2.6-2.7-2.9c-1.5-0.3-2.7,0.1-3.7,1.3c-1.6,1.9-2.4,4.1-2.4,6.6c-0.1,4.8-0.2,9.5-0.3,14.3
		c-0.3,14.1-0.8,28.3-0.7,42.4c0,1.4,0,2.7,0,4.1c-0.5,0-0.5-0.2-0.5-0.5c0-9,0-17.9,0-26.9c0-1.8,0.3-3.7-2.6-3.3
		c-0.4,0.1-0.7-0.4-0.8-0.8c0.1-0.4,0.4-0.4,0.6-0.4c2.2,0.2,2.7-1.2,2.7-2.9c0.1-7.1,0.4-14.2,0.1-21.2c-0.2-3.5-0.8-7.1-2.2-10.5
		c-0.2-0.5-0.7-1.1-1-0.5c-1.6,2.7-3.1,0.5-4-0.3c-1.7-1.5-1.8-0.5-2,0.8c-0.8,4.4-0.5,8.8-0.6,13.2c-0.1,8.5,0,17.1,0,25.6
		c0,1.7,0,3.4-0.2,5c0-7.7,0-15.5,0-23.2c0-6.4-0.1-12.8-0.1-19.1c0-2.6-2.1-4.5-5.1-4.7c-2.7-0.2-5.4,1.7-5.6,4.2
		c-0.5,4.5-0.1,9.1-0.2,13.7c-0.1,7.5,0,15-0.1,22.5c0,1.2,0,2.5,0,3.7c-0.3,0-0.6,0-0.9,0c0-2.9-0.1-5.8,0-8.7
		c0.3-10.2,0.6-20.3,0.5-30.5c0-1.5-0.3-2.9-0.9-4.3c-0.6-1.4-1.9-1.9-3.1-1.7c-3,0.6-6.4,2.7-6.4,6.9c-0.2,12.5-0.5,25.1-0.5,37.6
		c0,1.6,0,3.2,2.5,2.9c-1.6,0.9-2.2,2.1-2.2,3.7c0.1,6.2,0.1,12.3,0.2,18.5c0,0.6,0.5,1.4-0.5,1.5c-1,0.1-0.8-0.8-0.8-1.4
		c0-4.9,0.2-9.8,0.2-14.7c0.1-17.2,0.1-34.3,0.1-51.5c0-3-2.7-4.4-6.1-3.3c-3.2,1-4.4,3.1-4.5,6.2c-0.4,10.9-0.3,21.9-0.5,32.8
		c-0.2,9.5-0.2,18.9,0.3,28.3c0.1,2.8,0.4,3,3.2,2.4c1.4-0.3,2.6,0.3,3.7,0.9c-2.2-0.1-4.4-0.4-6.7,0c-1.4,0.3-1.2-0.8-1.2-1.6
		c0-10.3,0-20.6,0-30.9c0-8.5,0-17,0-25.4c0-0.8,0-1.7-0.2-2.5c-0.2-1.1-0.1-2.3-2.2-1.6c-1.4,0.4-3-1.2-5.2-0.5
		c1.1-1,2-0.4,2.7-0.9c-0.1-0.1-0.1-0.1-0.2-0.1c-5.1-0.4-5.6,0-5.6,5.1c0,8.1,0.3,16.3,0,24.4c0,0.7,0.2,1.5-0.7,2.2
		c0-3.1-0.1-6.2,0-9.3c0.4-7,0.3-14-0.2-21c-0.1-1.3,0.1-2.5,0.1-3.8c0-1.4-0.7-2.5-2.2-2.6c-2-0.1-4.1-0.2-6.1,0.2
		c-1.1,0.3-1.7,0.8-1.9,1.9c-0.5,2.6-0.3,5.2-0.3,7.8c-0.1,7.8-0.1,15.5-0.1,23.3c0,0.5,0.1,1.1-0.5,1.8c0-3.9,0-7.5,0-11.2
		c-0.1-7.2-0.1-14.4-0.2-21.6c0-2.3-3.1-3.6-5.2-3c-4.7,1.4-5.8,4.6-5.4,8.9c0,0.5,0,1,0,1.5c-0.3,10.6,0.4,21.2-0.1,31.7
		c0,0.3,0,0.7,0,1c-0.2,0-0.5,0-0.7,0c0-9.9,0-19.8,0-29.7c0-3.4,0.2-6.8-0.4-10.2c-0.4-2.1-1.6-2.8-3.1-2.4
		c-1.7,0.6-3.6,0.5-5.3,1.1c-0.9,0.3-1.2,0.6-1.3,1.5c-0.3,10.4-0.8,20.9-0.5,31.3c0.1,6.9-0.1,13.7,0,20.6
		c0.1,4.3-0.4,8.6,0.8,12.7c0.2,0.6,0.4,1.3-0.6,1.4c-1,0.1-1-0.5-1-1.2c0.1-4.6,0.1-9.3,0.2-13.9c0.1-3.9-0.1-7.7-0.6-11.5
		c-0.1-1.1-0.6-1.1-1.4-1.1c-2.2,0-4.5,0-6.7-0.4c1.9,0,3.9-0.1,5.8,0c1.9,0.1,2.6-0.5,2.7-2.5c0.1-10.3,0.8-20.6,0.4-30.9
		c-0.1-2.6,0.4-5.3-0.9-7.8c-0.3-0.5-0.4-1.1-1.1-1.1c-1.5,0-3-0.3-4.6,0.2c-3.3,1-3.8,3.8-3.9,6.5c-0.3,7.8-0.5,15.6-0.4,23.3
		c0.1,11.5-0.3,22.9-0.3,34.4c0,1.1,0.1,2.2,0.2,3.4c0.2,2.5,0.1,2.7-2.3,2.6c-0.4,0-0.8-0.1-1.4-0.1c0.9-1.9,0.3-4.3,2.6-5.6
		c0.7-0.4,0.4-1.7,0.4-2.6c0.1-4.5,0.5-9,0-13.4c-0.7-6.1,0.4-12,0.4-18.1c0-6.2,0-12.5,0-18.7c0-3,0-6-0.4-9
		c-0.2-1.3-0.3-2.9-2.4-1.8c-0.7,0.3-1.7,0-2.5-0.1c-2.5-0.4-3.8,0.4-4.5,2.8c-0.7,2.5-0.7,5-0.8,7.5c-0.4,17.5-0.6,35-0.2,52.6
		c0,1.6,0.1,3.2,0.9,4.7c0.6,1.1,0.1,2-1.2,2c-3.7,0-7.4,0-11.1,0c-1.3,0-1.4-1-1.2-1.9c0.9-8.5,0.4-17.1,0.7-25.6
		c0.1-2.2-0.1-4.3-0.1-6.5c0-1.1-0.1-2.3,0.9-4c-0.6,6-0.6,11.5-0.5,16.9c0.1,6,0.1,11.9,0.2,17.9c0,1.5,0.7,2.3,2.2,2.6
		c2.3,0.5,4.6,0.1,6.9-0.2c1.5-0.2,1.6-1.4,1.6-2.5c0-5,0-10.1,0-15.1c0-15.6,0.1-31.1,0.1-46.7c0-1.2,0.6-3.1-0.6-3.5
		c-1.7-0.6-3.8-0.9-5.6-0.1c-0.7,0.3-1.2,0.7-2.1,0.7c-1.5,0-1.7,1.4-1.8,2.4c-0.2,2-0.3,4-0.3,6.1c-0.1,2.8-0.1,5.6-0.1,8.4
		c0,0.1-0.1,0.2-0.8,0.3c0-5.4,0.1-10.8,0-16.2c-0.1-3.2-0.5-3.5-3.8-3.6c-5.9-0.3-6.4,0.1-6.5,6.1c-0.1,12.7-0.1,25.5-0.1,38.3
		c0,3.6,0,7.1-0.3,10.7c-0.8-2.5-0.3-5-0.3-7.5c-0.1-10.2-0.1-20.5-0.3-30.7c-0.1-4.5,0.2-9.1,0-13.6c-0.1-2.9-0.4-3.3-3.3-3.4
		c-1.3-0.1-2.6,0.2-4,0.3c-0.8,0.1-1,0.6-1.5,1.3c-1.5,2.8-1.6,5.7-1.6,8.7c0,18.3,0,36.6-0.1,54.9c0,1.4,0.2,2.8,0.5,4.1
		c0.1,0.6,0.3,1.5-0.8,1.5c-1,0-1.4-0.6-1.2-1.5c1.2-7,0.4-14.1,0.5-21.1c0.1-5.3,0.3-10.6,0.3-15.9c0-4.4-0.1-8.9-0.2-13.3
		c-0.1-3.5,0.2-7.1,0.3-10.6c0.1-2.1-0.5-4.2-0.4-6.3c0-1.2-0.9-1.7-1.9-1.9c-1.7-0.3-3.3-0.3-5-0.1c-1.2,0.1-1.8,0.9-2.2,2
		c-1.4,3.6-1.1,7.5-1.1,11.2c-0.1,10.8,0.1,21.6-0.1,32.4c-0.1,5.7,0.1,11.3-0.2,17c-0.1,2.4-0.3,4.8,0.3,7.1c0.1,0.4,0.2,0.9-0.3,1
		c-0.5,0.1-0.8-0.2-1-0.5c-0.4-0.6-0.4-1.2-0.2-1.8c1.1-3.3,0.8-6.6,0.1-9.9c-0.3-1.4,0.6-2.5,0.6-3.9c0-7.1,0.1-14.3,0.3-21.4
		c0.2-8,0-16.1-0.1-24.1c0-2.3-0.4-4.6-0.8-6.9c-0.3-1.2-1-1.9-2.3-2.2c-3.5-0.8-6.5,1.1-6.7,4.6c-0.4,6.5-0.7,13-0.8,19.5
		c-0.2,15.1-0.3,30.1,0.1,45.2c0,0.6,0.4,1.6-0.7,1.6c-0.7,0-0.7-0.8-0.6-1.3c0.8-6.6,0.4-13.2,0.4-19.7c0.1-10.4,0.2-20.7,0.2-31.1
		c0-4.8-0.2-9.5-0.2-14.3c0-1.5-0.5-2.4-2.1-2.9c-1.6-0.4-2.3,0.3-3,1.4c-1,1.6-3.4,2-4.9,0.7c-0.8,2.2-0.5,4.4-0.4,6.6
		c0,1,1.1,0.9,2,1.4c-1.8,0.1-2.1,1-2.1,2.4c-0.1,16.6-0.3,33.2,0.2,49.8c0.1,2,0.1,3.9,0.1,5.9c0,0.4-0.1,1-0.5,1.1
		c-0.6,0.1-0.6-0.4-0.7-0.8c-0.1-0.3-0.1-0.7-0.2-0.8c-3.4-0.4,0.7-1.8-0.4-2.5c1-0.4,0.7-1.3,0.7-2c-0.1-18.5-0.2-37-0.3-55.5
		c0-0.3,0-0.5-0.1-0.9c-0.9,0.4-0.3,1.3-0.6,1.8c-0.3,0.5-0.3,1.5-1.4,0.4c-0.9-0.9-1,0.3-1,0.8c-0.1,1.2,0,2.5-0.1,3.8
		c0,0.4-0.1,1.4-0.6,1c-0.6-0.4-2,0-1.7-1.3c0.4-1.9,0.2-3.5-1.1-5.1c-0.9-1.2,0.5-1.9,1.4-2.2c1.1-0.4,1.8-0.8,1.5-2
		c-0.2-1.3-1.3-1.8-2.3-2.3c-0.5-0.3-0.7,0.4-0.8,0.7c-0.5,0.9-0.9,1.9-1.4,2.8c-0.2,0.4-0.2,1-0.5,1.1c-3.2,1.7-2,4.7-2,7.2
		c-0.1,14.8,0.1,29.6,0.1,44.3c0,1.4,0,2.8-0.2,4.2c-0.1,1.6,0,3,1.9,3.3c-0.4,0-0.8,0.1-1.1,0.1c-0.4,0.9,1.7,0.7,0.7,1.5
		c-1.1,0.8-1,3.6-3.1,2.4c1.2-4.3,0.9-8.7,0.9-13.4c-0.5,0.8-0.9,1.3-1,1.8c-0.4,2.4-2.4,1.6-3.8,2c-0.4,0.1-0.5-0.3-0.6-0.7
		c-0.3-1.7,0.5-3.3,2.2-3.8c1.3-0.4,0.8-1.5,0.8-2.3c-0.1-1.3-0.3-2.3,1.5-2.6c1-0.2,1-1.4,1-2.3c0-9.7,0.1-19.3,0.1-29
		c0-1.8,0.1-3.5,0-5.3c0-1.5,0-2.9-1.1-4.2c-0.5-0.6-0.5-1.2-0.2-2c1-2.3,0.4-4.7-0.1-7c-0.3-1.2-1.1-1.9-2.2-0.6
		c-0.3,0.4-0.5,0.7-1.1,0.2c-1.8-1.3-3.2-0.9-4,1.1c-1,2.6-1.6,5.3-1.7,8.2c-0.1,11.6-0.2,23.3-0.3,34.9c1.7,2.6,0.2,5.4,0.3,8.1
		c0.2,2.9,0.1,5.7,0.3,8.6c0.1,2,0.2,4,0.6,6.1c0.2,0.8,0,1.7,1.4,1.8c-1.6,0.4-3,1.5-4.1,0.2c-0.9-1.1-0.9-2.6,0.1-3.9
		c0.6-0.7,0.4-1.8,0.4-2.7c-0.4-16.8-0.1-33.6-0.2-50.5c0-2,0-4.1-0.1-6.1c0-1.3-0.3-2.5-2.1-2.1c-1.3,0.3-2.3-0.9-3.6-1
		c-1.5-0.1-2.7,0.4-4.1,0.8c-1.1,0.3-0.9,1.4-1,2.3c0,4.6,0,9.2-0.4,13.9c-0.2-2.6,0-5.3-0.7-7.7c-1-3.5-0.2-6.9-0.6-10.3
		c-0.2-1.7-0.9-2.2-2.5-2c-1,0.2-2,0.4-3.1,0.4c-1.7,0-0.7,1.8-1.5,2.4c-0.8-0.2,0.1-1.6-1-1.4c-1,0.2-1.1,1.2-1.1,2.1
		c-0.1,3.8-0.2,7.6-0.2,11.3c0,14.9,0,29.8,0,44.8c0,2.8,0.2,5.6,0.2,8.4c0,0.6,0.3,1.5-0.6,1.5c-0.9,0-0.7-1-0.7-1.5
		c0-2.1,0.1-4.2,0.1-6.3c0-8.1,0.1-16.1,0-24.2c0-1.3,0.7-2.9-1.1-3.7c-0.3-0.2-0.2-0.5,0.1-0.7c1.5-1.1,1.1-2.7,1.1-4.2
		c0-7.6,0-15.3-0.1-22.9c0-2-0.3-4-1.8-5.6c0.1-0.6,1.4-1.1,0.6-1.7c-0.7-0.5-1.9-0.5-2.9,0.4c1,0.4,1.9,0.5,2.3,1.3
		c-1.5,1.4-2.9,0.3-4.2-0.3c-1.7-0.7-3-0.4-3.4,1.5c-0.3,1.4-0.5,2.9-0.4,4.4c0.2,6.1-0.1,12.2,0,18.3c0.1,5.3-0.7,10.7-0.6,16.1
		c0.1,7,0.1,14,0.2,21c0,2,0,4.1,0.5,6.1c0.5,2.1-0.4,2.5-2.2,2.3c-0.8-0.1-1.5-0.2-2.1-0.3c0.5-2.3,2.9-3.7,2.9-6.4
		c0-11.2,0-22.4,0-33.6c0-2.4,0.2-3.3-2.9-2.7c-0.5,0.1-1-0.1-1.4-0.3c-0.8-0.4-2.3-0.3-2-1.7c0.2-1,1.4-0.5,2.2-0.6
		c3.2-0.3,4-1.1,4-4.3c0-5.2-0.1-10.4-0.1-15.6c0-0.9-0.2-1.8-0.3-2.7c-0.2-1.4-0.7-2.4-2.4-1.6c-0.5,0.3-0.9,0-1.4-0.2
		c-2.6-1-4.9,0.2-5.4,2.9c-0.3,1.5-0.4,3.1-0.4,4.6c-0.5,8.1-0.6,16.2-0.6,24.3c0,0.5-0.1,1.1-0.3,1.7c-0.8-3.1-0.6-6.4-0.8-9.6
		c-0.1-1.7-0.2-3.5,0-5.2c0.4-3.6-2-5.5-4.4-7.4c-0.7-0.6-1.6-0.4-2.6-0.8c1.9-0.6,3.6-0.3,5.3-0.3c1.4,0,2.1-0.5,2-2
		c-0.1-1.2-0.1-2.4,0-3.6c0.2-2.6-1.1-4-3.1-5.4c-1.5-1-1.9,1.2-2.8,0.5c-1.2-1-1.6-0.6-2.7,0.3c-1.5,1.3-1.6,2.9-1.6,4.5
		c-0.1,4.7,0,9.4-0.1,14.1c-0.1,13.9-0.3,27.7-0.5,41.6c0,1.7,0.1,3.4,0,5c-0.1,1.5,0.6,2.1,2,2c1.9,0,3.8,0,5.7-0.2
		c2.6-0.3,3.1-0.8,3.1-3.5c0.1-5.6,0.1-11.2,0.2-16.8c0-2.4,0-4.9,0-7.3c0.2,0,0.5,0,0.7,0c0,3.2,0,6.4,0,9.6c0,5.7-0.4,11.3,0.9,17
		c0.1,0.6,0.2,1.3,0.5,1.8c1.2,1.6,0.6,2-1.1,2c-4.6-0.1-9.1-0.1-13.7-0.2c-0.4,0-0.9,0.1-1.2-0.4c1.8-1.9,2.2-4.4,2.2-6.9
		c0.1-11.6,0.1-23.3,0.1-34.9c0-3.7-0.1-3.7-4.6-4.4c0.1-0.1,0.2-0.2,0.3-0.2c4.5-0.1,4.3,0.8,4.3-4.5c0-4.7,0-9.4,0-14.1
		c0-0.6,0.2-1.2-0.3-1.7c-1.4-1.4-2.4-3.6-5.1-2.9c-0.3,0.1-0.7,0.1-1,0.1c-4,0.1-4.2,0.1-4.2,4.1c-0.1,15.1,0,30.1-0.1,45.2
		c0,5.5-0.1,11.1,0.3,16.6c0,0.5-0.1,1,0.1,1.5c1.1,2.3,0.1,2.6-2,2.5c-5-0.2-9.9,0-14.9-0.1c-1.7,0-3.3-0.6-5-0.2
		c-2.2,0.5-2.1-0.8-1.6-2.4c1.7,1.2,3.5,0.9,5.3,0.4c1.1-0.3,2-0.5,3.1,0.3c0.8,0.6,1.9,0.8,2.3-0.8c0.2-0.9,0.4-1.7,0.5-2.6
		c0.2-15.1-0.4-30.3-0.5-45.4c0-1.5-0.3-2.9-0.1-4.4c0.1-0.5,0.2-1.2-0.4-1.7c-0.8-0.8-0.8-0.9,0.2-1.7c0.1-0.1,0.2-0.2,0.2-0.3
		c0-2.5,0.4-5-0.6-7.5c-0.1-0.2-0.3-0.5-0.4-0.5c-2.5,0.7-4.5-1.9-7-1.3c-1.3,0.3-1.3,1.4-1.2,2.4c0.2,6.1-0.8,12.2-0.7,18.3
		c0.1,10.2,0,20.4,0,30.7c0,0.3,0,0.7-0.1,1.2c-0.6-0.6-0.5-1.1-0.4-1.6c0.2-6.9,0.2-13.9-0.3-20.8c-0.5-6.5,0.4-13,0-19.5
		c-0.1-1.4,0.1-2.6-2.1-2.5c-0.9,0.1-2.1-0.2-2.9-1.3c-0.5-0.8-1.6-1.1-2.6-1.1c-1,0-1.6,0.2-1.7,1.5c-0.5,7.3-0.1,14.7-0.5,22.1
		c-0.4,8.3,0.1,16.7-0.6,25c-0.1,1.2,0.1,2.5,0.3,3.7c0.3,1.7,0.6,3.3-0.1,4.9c-0.3,0.7,0,1.3,0.3,2c0.6,1.5-0.3,2.8-1.9,3
		c-1.5,0.2-3,0.6-4.4-0.5c-0.3-0.2-0.9-0.5-0.8,0.3c0,0.3,0.6,0.8-0.2,0.9c-0.3,0-0.6-0.3-0.8-0.6c-0.3-0.4-0.5-0.9-0.6-1.3
		c-0.2-0.7-1-1.5,0-2c0.9-0.5,2.3-0.8,2.8,0.3c1,2,1.9,1.3,3,0.2c1-1,1.1-2.8-0.1-3.6c-0.5-0.4-1.1-0.6-0.5-1.1
		c2.1-1.5,1.4-3.7,1.7-5.7c1-6.6,0.5-13.1,0.5-19.7c0-11.1-0.3-22.3-0.4-33.4c0-0.7,0-1.4-0.2-2.1c-0.2-0.9-0.3-2.3-1.7-0.8
		c-0.9,0.9-1.4,0.2-1.7-0.6c-0.5-1.3-1.5-1.4-2.5-1.1c-1,0.3-2,0.7-3,0.8c-1.3,0.1-1.2,1.2-1.3,2.1c-0.3,3.8-0.4,7.7-0.4,11.5
		c0,7.5,0,15,0,22.5c0,0.3-0.1,0.5-0.4,0.8c0-1.6,0-3.3,0-4.9c0-3.6,0-7.3,0.1-10.9c0-1.5-1.2-2.6-1.4-3.8c-0.1-0.8,1.4-1.9,1.4-3.5
		c-0.1-3.4-0.2-6.9-0.1-10.3c0.1-2.2-0.6-3.4-2.7-4.2c-3.4-1.3-4.7-0.7-6,2.6c-1.9,4.5-0.7,9.1-0.9,13.7c0,0.9,0.5,1.4,1.4,1.4
		c1,0,1.9,0,3.1,0c-0.2,0.2-0.3,0.3-0.4,0.3c-3.4,0.2-3.9,0.6-4.2,4.7c-0.2,2.8-0.3,5.6-0.2,8.4C1.2,146,0.4,157.1,1,168.2
		c0.1,1.8-0.1,3.6-0.2,5.5c0,0.6-0.2,1.1-0.8,1.3c0-25.2,0-50.5,0-75.7c2.4,0,4.7-0.7,7.1,0.2c0.4,0.2,1.1,0.2,1.4,0
		c3.7-2.2,8-1.1,11.7-0.8c4.8,0.3,9-1.8,13.6-1.3c2.9,0.3,5.8,1.1,8.7,0.8c3.9-0.3,7.9,1.3,11.6-0.9c0.9-0.5,0.9,0.8,1.7,0.4
		c0.1-0.8,0.2-1.7,0.4-3.2c1.3,4.9,4.7,0.8,6.7,2.5c-0.5,0.7-1.4,0-2,0.7c2.6,0.7,5.2,0.9,7.6,0.3c4.2-1,8.3-1,12.5-0.5
		c3.7,0.4,7.4-0.1,11.1,0.8c3.1,0.7,6.2,1.4,9.4,1.5c3.2,0.2,6.4,0.4,9.5,0.1c2-0.2,4,0.5,6,0.5c3.7,0.1,7.6,1.4,11-1.3
		c0.8-0.6,1.9-0.6,2.9-0.4c2.8,0.6,5.4-0.5,8.1-1c0.9-0.2,1.4-0.8,1.8-1.6c1-2,2.6-2.5,4.7-1.2c1.2,0.8,1.6,2.5,0.4,4.4
		c1.3-0.8,3-0.8,1.7-2.7c-0.3-0.4,0.3-0.9,0.6-1.2c0.8-1,1.6-2,2.5-3c0.1,0.1,0.4,0.2,0.3,0.3c-0.7,2.6,0.7,4,2.9,5
		c1,0.4,1.9,1.2,2.8,1.8c1.4,0.9,2.8,1.6,4.5,0.6c0.4-0.2,1.1-0.4,1.4-0.2c2.3,1.3,4.8,0,7.1,0.7c1.2,0.4,1.7-0.1,2.2-1.1
		c0.7-1.4,1.6-2.6,3.6-1c1.5,1.2,3.5-0.1,5.3-0.2c4.8-0.3,9.6-0.7,14.3,0c1.4,0.2,2.8,0.5,3,2.4c0.1,0.8,0.6,0.8,1.1,0.1
		c1.1-1.9,2.7-2.3,5-2.1c4.5,0.3,9,0.8,13.6-0.2c1.8-0.4,3.6,0.7,5.6,0.6c2.3,0,4.4-0.4,6.6-0.8c2.3-0.4,4.3,0.5,6.4,1.5
		c0-0.9-0.1-1.8,0.4-2.8c0.6,0.7,0.6,1.6,0.9,2.3c0.5,1.4,2.5,2.1,3.1,1c0.5-0.9,0.6-1.6,1.9-1.6c1.2,0.1,2.2,1,3.1,1
		c1.4,0,3.3,0.6,4.3-1.2c0.5-0.9,1-0.9,1.9-0.4c3.4,1.8,6.8,1.9,10.5,0.8c2.1-0.7,4.5-0.3,6.8-0.2c3.9,0.1,7.8,0.7,11.7,0.3
		c2.7-0.3,5.2,0.1,7.8,0.3c0.6,0,1.5,0.3,1.9,0c3-2.2,6.1-0.5,9-0.2c3.8,0.4,7.5-0.2,11.2-0.8c0.6-0.1,1.2-0.2,1.8,0
		c2.8,0.9,4.9-0.5,5.4-3.4c0.2-1.1,3.2-3,4.2-2.5c0.7,0.3,1-0.3,1.5-0.4c0.9-0.1,1.7-1.6,2.7-0.1c0.3,0.5,1.3-0.1,1.7-0.4
		c2.7-1.9,5.8-3,9-4.5c-0.4,0.9-1.5,1.2-1.3,2.3c0.3,1.2,1.4,0.9,2.2,1.3c0.3,0.1,0.7,0.2,0.7,0.6c0,0.4-0.5,0.5-0.8,0.5
		c-0.8,0-1.6,0.2-2.3,0c-2.3-0.8-4.4,0.3-6.5,0.8c-1.6,0.3-0.9,2.1-0.5,3.2c0.3,0.7,0.9,1.4,1.1,2.2c0.3,1.2,1.3,1.5,2.4,1.7
		c1.1,0.2,1.7-0.2,2-1.3c0.2-1,1-1.1,1.8-1c1.9,0.3,3.7,0.6,5.6,0.9c0.5,0.1,1.1,0.3,1.1,0.8c0.3,2.3,1.8,1.3,2.8,0.9
		c1.9-0.8,3.7-1.2,5.6,0c1.1,0.7,2.7-0.3,2.9-1.6c0.1-0.8,0.7-0.6,1.1-0.5c3.1,0.6,6.2-0.2,9.3-0.4c0.1,0,0.3-0.1,0.4,0
		c2.2,1.6,4.8,0.8,7.3,1.2c0.1,0,0.3,0.2,0.4,0.2c3.7-1.2,7.6-0.2,11.3-1c2.2-0.4,4.8-0.3,6.5,0.3c1.7,0.6,3.3,0.9,5,1.2
		c0.5,0.1,1.3,0.2,1.6-0.1c1-0.8,1.6-0.5,2.1,0.6c1-1.3,0.3-2.7,1.1-4.4c0.2,4.3,3.4,3.6,5.6,3.8c2.9,0.3,5.8,0.3,8.8-0.5
		c2-0.6,4.2-0.2,6.3,0.1c3.5,0.5,6.9-0.5,10.4,0.1C430.7,101.1,430.7,103.7,430.7,106.4z M56.2,136.1c0-3.5,0.1-7,0-10.5
		c-0.2-5.6-0.4-11.2-0.7-16.8c-0.1-1.8-1.8-3.7-3.3-3.9c-4.1-0.6-5.6,0.5-6.5,4.5c-0.2,0.9-0.3,1.8-0.3,2.7c0,16.4,0,32.8,0,49.2
		c0,3.5,0.7,6.9,1.5,10.4c0.6,2.7,2.9,2.1,4.5,2.5c1.3,0.3,2.5-0.4,3.2-1.8c0.9-1.7,1.1-3.5,1.2-5.3C56.9,156.8,56,146.5,56.2,136.1
		z M24,108.7c0,2.9,0,2.9,2.9,2.7c1.5-0.1,3.1-0.3,4.6-0.3c1.6,0,2.1-0.7,2-2.2c0-3.2-0.2-3.5-3.6-4.5C26.5,103.3,24,105.1,24,108.7
		z M278.6,110c0,0,0-0.1,0-0.1c1.2-0.1,2.4-0.1,3.6-0.2c1-0.1,1.9-0.4,1.7-1.6c-0.1-1,0.4-2.1-1.3-2.6c-2.1-0.6-4.1-0.3-6.2-0.3
		c-0.5,0-1.1,0.2-1.6,0.5c-1.3,0.7-1.6,2-1.4,3.3c0.2,1.2,1.4,0.9,2.3,1C276.7,110.1,277.6,110,278.6,110z M118.5,104.1
		c-1,0-2.2,0-3.3,0.4c-0.7,0.2-1.3,0.6-1.3,1.4c0.1,1,0.9,0.8,1.6,0.8c1.5,0,3-0.7,4.7-0.1c0.7,0.3,1.7-0.3,1.8-1.3
		c0.1-1.2-0.8-1.3-1.7-1.4C119.9,104,119.3,104,118.5,104.1z"/>
	<path d="M430.7,197.2c-1.1-0.7-2.2-1.1-2.5-2.8c-0.2-1.5-4.3-1.3-5.8,0.1c-1.8,1.7-2.4,3.9-2.4,6.3c0,7.4,0,14.7,0,22.1
		c0.1,10,0.2,19.9,0.3,29.9c0,2.2-0.1,4.3,0.7,6.4c0.3,0.8,0.4,1.7-0.9,1.8c-1,0.1-2.4,0.3-2.2-1.3c0.1-1.4-0.5-1.9-1.9-2.2
		c3.7-0.1,3.4-2.7,3.4-4.9c0-13.2,0.3-26.5,0-39.7c-0.1-4.8,0.1-9.6-0.3-14.5c-0.1-1.3-2.3-2.8-3.5-2.3c-0.7,0.3-1.3,0.4-2,0.1
		c-2.9-1.3-5-0.1-5,3.1c0,18.2-0.1,36.4,0,54.7c0,2.2,1.2,4.4-0.3,6.7c-0.7-0.6-0.5-1.4-0.5-2.1c0.5-8.9,0-17.8,0.1-26.7
		c0.1-10.3-0.1-20.6-0.2-30.9c0-2.5-1.2-3.7-3.7-3.7c-1.2,0-2-0.9-3-1.3c-2.2-0.8-3.5-0.4-3.7,2c-0.2,3-0.3,6-0.2,9
		c0.2,15.8,0.4,31.5,0.6,47.3c0,1.7,0.2,3.4,0.3,5c0.1,1.2-0.3,1.8-1.5,1.6c-3.3-0.3-6.7-0.2-10,0.1c-1.5,0.2-2.3-0.3-1.7-2
		c0.3-1.1,0.4-2.2,0.4-3.3c0.1-13.9,0.1-27.8,0.1-41.6c0-1.1-0.1-2.1-0.5-3.1c-0.2-0.4-0.4-0.9,0.3-0.9c0.6-0.1,0.7,0.4,0.7,0.8
		c0,0.4,0,0.8,0,1.3c0,14.9,0.1,29.7,0.1,44.6c0,2.3,1.6,3.5,3.6,2.5c1.6-0.8,3.2-1,4.9-1c1.8,0.1,2.3-0.7,2.3-2.3
		c-0.1-7,0-14-0.1-21c0-10.4-0.1-20.9-0.2-31.3c0-0.4,0-0.8,0-1.3c-0.2-4.9-4.2-7.8-9-6.6c-1.3,0.3-1.5,1.3-1.5,2.4
		c0,3.1,0,6.2-0.2,9.3c-0.8-2.3-0.3-4.6-0.4-6.9c0-1.2-0.2-2.4-0.6-3.5c-0.3-0.8-0.9-0.9-1.6-1.2c-0.6-0.2-1.9,1.7-1.7-0.6
		c-0.2,0-0.4,0-0.5,0.1c-0.9,0.9-1.7,1.7-2.8,0.2c-0.3-0.4-1,0.1-1.2,0.5c-0.5,1.4-1.4,2.5-1.4,4.1c-0.3,10,0,19.9,0.1,29.8
		c0.1,9.8-0.1,19.6-0.2,29.4c0,0.7,0.1,1.6-0.9,1.6c-1.2,0-0.7-0.9-0.7-1.6c0.1-11.8,0-23.7,0.3-35.5c0.1-2.9-1.8-3.2-3.5-3.9
		c-1.9-0.8-4-0.5-6-0.5c-1.2,0-1,0.9-1.1,1.7c-0.1,6.8-0.3,13.6-0.4,20.4c0,1,0,2-0.3,3c-0.6-1.5-0.5-3.1-0.3-4.7
		c0.5-6.3-0.2-12.6,0-18.9c0.2-6.4,0.1-12.9,0.2-19.3c0.1-5.6-0.9-6.7-6.5-6.6c-2.4,0-3.6,1.1-4,3.7c-0.5,3.6-0.6,7.3-0.6,10.9
		c0.1,16.5-0.1,33.1,0.6,49.6c0,0.7,0.2,1.4-0.5,2c-0.8-0.5-0.6-1.3-0.5-2c0.3-13.7,0-27.3,0-41c0-6-0.3-12,0-18
		c0.2-4.2-3.3-5.7-6.4-5.5c-2.8,0.3-3.4,0.9-3.7,3.7c-1,9.6-0.4,19.2-0.3,28.8c0.1,10,0.1,19.9-0.3,29.8c0,1.2,0.1,2.4,0.1,3.6
		c0,0.4,0.1,1.1-0.7,1c-0.5-0.1-0.4-0.6-0.4-1.1c0.3-1.5,0.1-3.1,0-4.6c-0.2-2.8-1.4-3.8-4.2-3.4c-0.7,0.1-1.4,0.3-2.1,0.4
		c-0.4-1.1,2.3-3.2-1.8-3.2c2.5-0.9,4.3-0.7,6.1-0.8c1.5,0,1.9-0.7,1.9-2c0-12.8,0.1-25.5,0.2-38.3c0-3.4,0.3-6.9-0.1-10.3
		c-0.3-2.6-3.9-4.3-6-2.9c-0.5,0.3-0.8,1-1.4,0.7c-2.2-1.2-2.2,0.5-2.6,1.8c-0.7,2.4-0.7,4.9-0.7,7.3c0,9.9,0,19.8,0.1,29.6
		c0.1,5.9,0.1,11.7,0.9,17.6c0.2,1.7,0,3.5,0,5.2c0,1-0.1,2.1,0.4,3.1c0.3,0.6,0.4,1.3-0.5,1.4c-0.6,0.1-1.3,0.3-1.6-0.9
		c-0.4-1.3-0.6-2.3,0.4-3.3c0.6-0.6,0.3-1.3,0.3-2c-0.1-5.7-0.4-11.5-0.4-17.2c0-12.5-0.7-24.9,0-37.4c0.2-2.9-1.4-4.2-3.2-5.6
		c-1.3-1-2.2-0.3-3,2.1c-0.1-0.1-0.3-0.1-0.3-0.2c-0.3-0.9-0.5-2.1-1.5-2c-1.1,0.1-0.8,1.4-0.9,2.3c-1,6.4-0.5,12.9-0.7,19.3
		c0,0.9,0,1.8-0.4,2.7c0-2.5,0-4.9,0-7.4c-0.1-4-0.2-8-0.2-12c0-1.8-1.1-2.6-2.6-2.7c-1.6-0.1-3.1-0.6-4.7-0.8
		c-2.6-0.2-3.4,0.3-3.4,2.9c0,9.9-0.1,19.8-0.1,29.6c0,9.9-0.2,19.8,0.1,29.6c0,0.8,0.3,2.2-0.6,2.1c-1.3-0.1-0.5-1.4-0.5-2.2
		c0.3-8.5,0.2-17,0.2-25.4c0-10.4-0.1-20.9,0-31.3c0-2.9-1.7-5-2.4-7.5c-0.2-0.7-1.2-0.8-1.5-0.2c-0.5,0.9-1.4,1.1-2.1,1.6
		c-0.7,0.5-1.3,2.2-2.1,0c-0.1-0.4-1.8-0.3-2.2,0.9c-0.2,0.5-0.2,1.1-0.2,1.7c-0.1,12.9-0.1,25.9-0.1,38.8c0,6.6,0,13.2,0.1,19.8
		c0,0.8,0,1.7-0.1,2.5c0,0.5,0,1.1-0.7,1c-0.9-0.1-0.2-0.8-0.2-1.2c0.9-7,0.5-14,0.5-21c0.1-11.9,0.1-23.8-0.5-35.7
		c0-0.8,0-1.6,0.1-2.3c0.5-2.5-1.2-4.2-2.5-6c-0.2-0.2-0.6-0.5-0.9-0.4c-4.2,0.2-7.5,1.6-7.3,7c0.3,7.6-0.1,15.3-0.2,22.9
		c-0.1,11.5-0.3,23,0.2,34.5c0,0.6,0,1.2,0,2.1c-1.1-0.6-1-1.5-0.9-2.1c0.2-13.8,0.1-27.6-0.1-41.4c-0.1-5.4,0.3-10.8-0.1-16.2
		c-0.2-2.6-3.2-5.3-5.8-4.9c-1,0.2-1.3,1-1.5,1.8c-0.2,1.1-0.3,2.2-1.5,2.8c-0.8-0.8-0.1-2.1-1.1-3c-0.6,0.8-0.6,1.8-0.6,2.6
		c0,8.8,0.1,17.7,0.1,26.5c0,8.7-0.1,17.4-0.2,26.1c0,2.2,0.2,4.5,0.3,6.7c0,0.5,0,1.1-0.6,1.1c-0.5,0-0.5-0.5-0.5-1
		c0.8-8.3,0.3-16.5,0.4-24.8c0.1-8.5,0-17.1-0.1-25.6c0-2.7-0.2-5.4-0.5-8.2c-0.4,1.2-0.3,2.5-0.9,3.9c-0.9-1.3-2.3-2.1-2.4-3.8
		c0-0.7-0.2-1.6,1-1.2c0.7,0.2,0.6-0.3,0.6-0.7c-0.1-1-0.2-1.9-0.4-3.2c-1.2,1.4-3.1,1.3-4.1,2.7c-0.2,0.3-1.8,0.7-2.6,0.1
		c-1.5-1.1-1.5,0-1.5,1c-0.1,3.4-0.1,6.7-0.1,10.1c0,11,0,22-0.5,33c0-9.9,0-19.8,0-29.6c0-1.5,0-3.1,0-4.6c-0.1-3.9-2-5.6-6-5.2
		c-0.2,0-0.4,0.1-0.6,0.1c-0.7-0.1-1.7,0-1.8-0.7c0-0.9,1.1-0.6,1.7-0.7c1.5-0.1,2.9-0.1,4.4-0.1c2,0,2.7-0.7,1.8-2.5
		c-1-2-1.3-3.9-0.5-6.1c0.2-0.5,0.2-1.1-0.4-1.2c-0.8-0.2-1.2,0.5-1.4,1c-0.8,1.9-2.2,3.1-3.9,4c-1.1,0.5-2.2,1.2-2.7-1.2
		c-1.1,4-1.2,7.6-1.3,11.1c-0.1,17.2-0.5,34.5,0.5,51.7c0,0.7,0.5,1.9-0.6,1.8c-0.9,0-0.5-1.3-0.5-2c0-16.5,0.1-33.1,0.1-49.6
		c0-2.6-0.2-5.2-0.3-7.8c0-1.2-0.6-1.8-1.8-1.9c-0.8-0.1-1.7-0.2-2.5-0.2c-0.7,0-1.9,0-1.9,0.6c-0.1,2.5-3.4,3.1-3.4,4.8
		c0.1,3.1-0.7,6.1-0.7,9.2c0.1,10.5-0.3,21-0.4,31.5c0,3.4,0.2,6.7,0.5,10.1c0.1,1.5,0.5,2.8,2.7,2.1c1.1-0.4,2.2,1.1,3.5,1
		c-1.4,0.5-2.9,0.2-4.2,0.8c-0.4,0.2-1.1,0-1.3,0.6c-0.3,0.6-0.4,1.3-1.3,0.9c-0.7-0.4-0.4-1.1-0.4-1.7c0-16,0-32.1,0-48.1
		c0-3.6,0-7.3-0.1-10.9c-0.1-3.5-3.2-5.7-6.5-4.6c-3.5,1.1-4.2,2-4.2,5.7c0,15.8,0,31.7,0,47.5c0,2.6,0.1,2.8,2.7,2.4
		c2.2-0.3,4,0.3,6,1.5c-1.4,1.7-3.4,1.8-5.2,2c-3.3,0.4-3.4,0.3-3.3,3.6c0.1,3.6-0.3,3.8-4.1,2.8c1.9-1.2,2.4-2.9,2.6-5
		c1.2-12.3,0.6-24.6,0.7-37c0-6-0.2-12-0.4-18.1c0-1,0.3-2.2-1.5-2.5c-1.7-0.2-3.5-1.6-4.7,0.9c-0.6,1.1-0.9,2.6-2.8,2.2
		c-0.4-0.1-0.6,0.5-0.6,1c-0.1,0.9-0.2,1.8-0.3,2.7c-0.4,16.7,0.5,33.5,0,50.2c0,1.5,0.8,2.6,1.4,3.9c0.2,0.5,0.5,1.1,0,1.5
		c-0.8,0.6-1.8,0.4-2.6,0.2c-0.8-0.3-0.3-0.9-0.1-1.4c0.6-2.4,0.4-4.9,0.4-7.3c0-12.4,0-24.8-0.1-37.2c0-4.5,0.4-9.1,0-13.6
		c-0.1-1.5-0.1-3-2.3-2.6c-0.1,0-0.3,0-0.4-0.1c-1.5-2.2-3.9-1.9-6-2.4c-1.1-0.2-1.7-0.4-1.8,1c-0.1,3.7-0.2,7.4-0.3,11.1
		c0,1.7,0.8,2.6,2.6,2.6c1.8,0,3.6-0.3,5.3,0.9c-1.7,0.1-3.3,0.2-5,0.2c-2.8,0-3,0.2-2.8,3c0,0.3,0,0.5-0.5,0.8
		c-0.1-1.6-0.2-3.2-0.2-4.8c0-3.6,0-7.3,0-10.9c0-3.1-1.2-4-4.3-3.5c-1.2,0.2-2.3,0.5-3.5,0.8c-1.6,0.4-2.4,1.4-2.5,3.2
		c-0.3,12-0.3,24-0.3,35.9c0,0.4-0.1,0.8-0.1,1.3c-0.6-0.5-0.4-1-0.4-1.5c0.6-9,0.2-18.1,0.2-27.1c0-3.6-0.5-7.3-0.2-10.9
		c0.1-0.9-0.1-1.6-1.2-1.9c-2.4-0.5-4.8-0.9-7.3-0.5c-1.8,0.3-2.1,1.2-2.1,2.7c0,6.2,0,12.5,0,18.7c0,8.2,0,16.4,0,24.5
		c-0.2,0-0.4,0-0.5,0c0-5.5,0-11.1,0-16.6c-0.1-8.2-0.4-16.4-0.2-24.6c0.1-4.9-3.7-5.7-7-5.1c-3.2,0.6-3.6,1.2-3.6,4.6
		c-0.1,19.5-0.3,39-0.3,58.4c0,1.7-0.5,2.1-2.1,2c-2.2-0.1-4.4,0-6.7-0.3c1.9,0.3,2.4-1.7,3.7-2.3c1-0.5,1.6-1,2.3,0.3
		c0.3,0.6,0.9,1.3,1.7,1c0.7-0.3,0.5-1.1,0.5-1.7c0-12.1,0-24.1,0.1-36.2c0-7.1,0.2-14.2,0.2-21.2c0-2.4-0.7-3.2-3.1-3.3
		c-1.2,0-2.3-0.4-3.5,0c-3.7,1.1-3.9,1.4-3.9,5.2c-0.1,8.9-0.2,17.8-0.1,26.7c0.1,8.8-0.1,17.5-0.2,26.3c0,1.8,0,3.7,0,5.5
		c-0.7-0.2-0.6-0.6-0.5-1c0.7-5.7,0.1-11.3-0.1-17c-0.2-6.7,0.2-13.5,0.2-20.2c0-7.1-0.2-14.2-0.2-21.2c0-2-1-2.9-2.7-3.4
		c-3.8-1.1-7.6,1.5-7.8,5.4c-0.2,3.4-0.1,6.7-0.2,10.1c0,0.3,0,0.6-0.8,0.9c0-3.6,0-7.1,0-10.5c0-1,0-2.1-0.1-3.1
		c0-0.7-0.2-1.4-1.1-1.6c-0.8-0.1-1.7-0.7-2.3,0.4c-0.7,1.1-1.6,0.9-2.5,0.5c-1-0.4-1.7-1.6-3-0.9c-0.2,0.1-0.5-0.2-0.5-0.5
		c0-0.6,0.5-0.6,0.9-0.6c1.9,0,3.8,0,5.7,0c0.5,0,1.3,0.1,1.4-0.6c0.1-0.6-0.5-1-0.9-1.3c-1.4-1-5.7-0.9-7.1,0
		c-0.8,0.5-0.8,1.2-0.8,2c-0.7,12.8-0.5,25.6-0.4,38.5c0,0.1-0.1,0.2-0.5,0.4c0-1.2,0-2.3,0-3.5c-0.1-9.9,0.2-19.9-0.5-29.8
		c-0.2-2.9-0.8-5.7-2.6-8.1c-1.4-1.7-2.5-1.6-3.3,0.4c-0.5,1.4-1.6,2-3,2.7c0.1-1.7,2-1.6,2.3-2.9c-2.8,0.4-3.3,0.9-3.4,3.8
		c-0.6,14.7-0.4,29.4-0.1,44.1c0.1,5.4-0.7,10.8-0.2,16.2c0,0.4,0.1,1-0.5,0.9c-0.7-0.1-0.5-0.7-0.5-1.2c0-4.6,0-9.2,0-13.9
		c0-9-0.1-18.1-0.1-27.1c0-5,0-10-0.1-14.9c0-0.6,0.1-1.6-0.2-1.8c-2.6-1.4-0.7-4.4-2.4-6.1c0.1,2-0.3,3.9-2.1,5.1
		c0.5-2-3.1-1.6-2.3-3.9c0.8-0.4,0.9,0.8,1.6,0.7c0-0.2,0.1-0.4,0-0.5c-0.7-0.9-1.5-1.8-2.8-1.3c-1.2,0.5-2,1.3-2.1,2.8
		c-0.4,10.6-0.3,21.3-0.3,32c0,9.4,0,18.8,0,28.2c0,0.6,0.3,1.3-0.4,1.7c-0.7-0.3-0.6-0.9-0.5-1.4c0.9-8.7,0.2-17.4,0.3-26
		c0.1-11.1,0-22.3-0.1-33.4c0-3.8-0.7-4.6-4.5-4.7c-0.8,0-1.5,0-2.3,0c-3.6-0.1-3.8,0.1-3.8,3.7c0,16.3,0,32.7,0,49
		c0,3.9,0,7.7,0.5,11.5c0.1,0.7,0.2,1.6-0.8,1.6c-0.8,0-0.6-0.8-0.6-1.3c0.7-12.6,0.2-25.2,0.4-37.8c0.1-6.8,0-13.6,0-20.4
		c0-1.9,0.5-3.6-2.7-4.1c-2.1-0.3-4-0.4-6-0.4c-1.3,0.1-1.6,0.7-1.7,1.6c-0.2,0.9-0.3,1.8-0.3,2.7c-0.2,16.8-0.5,33.6,0.2,50.4
		c0.1,2.7,0.8,5.4,0.8,8.1c0,0.6,0.2,1.1-0.6,1.3c-0.6,0.1-1.2-0.1-1.2-0.8c0-1.4-1.4-2.7,0-4.3c0.5-0.6,0.3-1.9,0.3-2.9
		c-0.2-14.8,0.3-29.6-0.4-44.4c-0.2-3.4-0.2-6.9-0.1-10.3c0-1.7-0.6-2.4-2.2-2.6c-1.4-0.1-2.7-0.6-4-1.1c-2.5-1-4,0-4.1,2.6
		c-0.2,9.3-0.2,18.6,0.2,28c0.3,9.2-0.3,18.5-0.2,27.7c0,2.2,0,4.5,0,6.7c0,0.9,0,1.4-1.2,1.4c-3.1-0.1-6.2,0-9.2,0.1
		c-1.8,0.1-2.4-0.8-2.2-2.4c0.2-1.4,0.5-2.7,0.7-4.1c0.6,0.3,0.4,0.8,0.4,1.1c0.4,3.6,1.7,4.5,5.3,3.7c1-0.2,2.1-0.1,3.1-0.1
		c1.5-0.1,2.2-0.7,2.2-2.3c0-8.6,0.1-17.2,0.2-25.8c0.1-10.9,0.3-21.7-0.1-32.6c0-0.8,1.1-2.9-1.5-2.2c-0.3,0.1-0.4-0.5-0.5-0.8
		c-0.4-1.9-2-2.3-3.5-2.2c-3,0.2-4.6,1.4-4.8,3.5c-0.3,2.6-0.4,5.3-0.9,8c0-2.1,0-4.2,0-6.3c0-4.2-3-6.2-7.1-4.8
		c-2.9,1-3.1,1.4-3.3,4.5c-1,19.3-0.5,38.5-0.4,57.8c0,0.4,0,0.8,0,1.3c0.2,4.1,0.2,4.1-4.1,4.1c-2.2,0-4.5,0-6.7,0.1
		c-1.9,0.1-3.8-2.5-2.6-3.8c2-2.2,1.2-4.7,1.3-6.9c0.2-11.7,0.2-23.4,0.3-35.1c0-3.7,0-3.7-3.7-3.9c-1.5-0.1-2.9-0.1-4.4-0.2
		c-1.7-0.2-2.5,0.4-2.6,2.2c-0.4,7.4-0.2,14.7-0.2,22.1c0,8-0.3,16,0.3,24c0.1,1.1-0.2,1.7-1.5,1.6c-1.4-0.2-2.8-0.2-4.2-0.3
		c-0.4,0-0.9-0.2-0.9-0.7c0-0.6,0.4-1,0.9-0.9c3.9,0.6,3.6-2.4,4.1-4.7c0.4-1.7,0.5-3.5,0.5-5.2c0-7.1,0-14.1,0-21.2
		c0-1.1,0-2.2-2.2-2.4c1.5-0.2,2.3-0.2,2.3-1.5c0.2-8.8,0.3-17.6,0.2-26.5c0-0.7,0-1.4-0.1-2.1c-0.1-1.3-0.7-1.8-1.9-1.2
		c-1.4,0.6-2.6,0.8-4.1,0c-1.7-0.9-3.7,0.8-3.9,3.1c-0.2,3.6-0.4,7.3-0.4,10.9c-0.1,4.6,0,9.2,0,13.9c0,0.5,0.2,1.1-0.7,1.8
		c0-1.6,0-2.9,0-4.2c0.2-7.1-0.1-14.1-0.2-21.2c0-2.1-0.5-2.5-2.2-1.4c-2,1.3-4.1,0.7-6.1,0.6c-2-0.1-2.1,0.6-2.1,2.2
		c0.1,10.4,0,20.7-0.4,31.1c-0.2-10.2-0.4-20.4-0.6-30.6c-0.1-3.3-3.2-5.8-6.4-5.2c-3.5,0.6-3.7,0.6-3.7,4.3
		C1,213.2,1,225.8,0.9,238.4c-0.1,7.1-0.1,14.3,0.3,21.4c0.1,0.9,0,1.6-1.2,1.3c0-3.9,0-7.9,0-11.8c0.2-0.9,0.5-1.7,0.4-2.7
		c-0.1-3,0-6-0.1-9c-0.1-4,0.3-7.9-0.3-11.9c0-0.3,0-0.6,0-0.8c0.4-4.6,0.4-9.3,0-13.9c0-7.3,0-14.6,0-21.9c2.6,0.2,5.2-0.1,7.8,0.1
		c1.7,0.2,3.1-0.7,4.3-1.8c2.1-1.9,3.7-4.3,6.4-5.7c1-0.5,1.9-1.3,3.2-0.8c0.7,0.3,0.5-1,1.2-0.9c0.5,0.7,0,1.3-0.2,1.9
		c-0.3,0.9-0.5,1.8,0.6,2.4c1.1,0.6,0.6,1.9,1.3,2.8c0.2,0.3-0.2,0.8-0.6,0.9c-0.6,0-1.3-0.1-1.6-0.8c-0.4-1-0.7-2-0.7-3.1
		c0-0.6,0-1.1-0.2-1.6c-0.2-0.3-0.4-0.7-0.8-0.5c-0.2,0.1-0.5,0.5-0.4,0.6c0.5,1.6,0,3.4,0.7,4.9c0.7,1.6,2.3,2.1,3.9,1.1
		c1.4-1,3-0.2,4.1,0.1c3.6,0.9,7.2-0.2,10.8,0.5c0.2,0,0.6,0.1,0.6,0c0.9-2.5,1.8-0.6,2.7,0c0.5,0.3,1.1,0.4,1.6,0.3
		c4-0.3,8,0.2,12,0.1c8.3-0.3,16.6,0.5,24.9,0.1c5.2-0.3,10.4,0.5,15.7,0.6c4.5,0.1,9,0,13.4,0.4c1.4,0.1,2.7-0.1,3.4-1.8
		c1.4,1.9,3.1,2.1,5.2,2c2.7,0,5.3-0.1,7.9-0.9c1.4-0.4,2.7,0.7,4.1,0.5c5.2-0.5,10.4-0.8,15.7-0.8c1.6,0,3,0.6,4.5,0.8
		c4.2,0.4,8.4,0.4,12.6,0.2c1.9-0.1,3.9,0.2,5.8,0c3.7-0.5,7.5,0,11.1,0.1c2.9,0.1,5.8,0.1,8.7-0.1c3.4-0.3,6.7-0.1,10,0.2
		c1.2,0.1,1.7-0.3,1.9-1.4c0.1-0.9,0.6-1.3,1.4-0.5c2.5,2.6,5.5,1.8,8.5,1.2c1.8-0.3,3.7-0.2,5.6-0.1c4.5,0.1,9,0,13.6,0
		c5.4-0.1,10.7,0.1,16.1,0.1c0.3,0,0.6,0,0.8,0.2c2,1.9,3.4-0.2,5-0.8c0.4-0.2,0.6-0.6,0.4-1c-0.2-0.6-0.7-0.6-1.2-0.4
		c-0.4,0.2-0.7,0.5-1,0.8c-0.4,0.4-0.9,0.6-1.2,0c-0.3-0.5,0.3-0.7,0.6-0.9c2.3-1.2,4.5-2.6,7.5-1.8c-0.3-1.2-1.5-0.3-1.4-1.2
		c0-0.6,0.7-0.6,1.1-0.8c1-0.8,2.3-0.6,3.3-1.2c0.2-0.1,0.5-0.3,0.5,0c0.4,2.5,1.6,0.8,2.5,0.5c0.7-0.2,4.4,1.3,4.7,1.9
		c0.2,0.5-0.3,0.6-0.4,0.8c-0.3,0.8-0.2,1.5,0.7,1.9c0.6,0.3,1.1,0.9,1.6,1.3c0.7,0.6,1.3,1.7,2.5,0.3c0.7-0.9,2.1-0.3,3.2-0.2
		c3.4,0.1,6.8,0.4,10.3,0.6c0.3,0,0.7,0.1,0.8,0c1.6-2.3,3-0.1,4.4,0.3c1.2,0.3,2.3,0.5,3.5,0.3c7.2-0.8,14.4-0.6,21.6,0
		c1,0.1,2.1,0.2,3.1,0.1c5.2-0.5,10.3,0,15.5,0.2c6.1,0.1,12.2-0.3,18.3-0.4c0.6,0,1.1-0.1,1.7,0c2.2,0.5,3.6,0,3.5-2.9
		c0.6,2.3,2.3,2.2,4,2.2c9.4-0.2,18.9-0.7,28.3-0.6c5.2,0.1,10.3,0.4,15.5,0.3c8.1,0,16.2-0.3,24.4-0.5
		C430.7,191.9,430.7,194.6,430.7,197.2z M56.7,227.2C56.7,227.2,56.7,227.2,56.7,227.2c0-9.5,0-18.9,0.1-28.4c0-1.5-0.7-2.7-1.1-4
		c-0.4-1.1-1.6-1-2.6-0.8c-0.7,0.1-1.1,0.5-1,1.3c0.1,0.6,0.9,1.2,0.2,1.7c-0.8,0.7-1.4-0.4-2-0.6c-1.6-0.7-2.8-0.3-3,1.5
		c-0.4,4-0.9,7.9-0.7,11.9c0.2,3.9-0.1,7.8,0,11.7c0.1,10.6-0.9,21.3-0.2,31.9c0.1,1.2,0.2,2.3-0.1,3.5c-0.3,1.3,0.3,2,1.7,1.9
		c1.6,0,3.2,0,4.8,0c3.8,0,4-0.2,4-3.9C56.7,245.8,56.7,236.5,56.7,227.2z M374,209.1c0.1,0,0.1,0,0.2,0c0-1.7,0-3.4,0-5
		c0-2.7-0.2-5.4-1.6-7.9c-0.5-0.9-0.9-1.4-1.8-0.3c-0.5,0.6-1.2,0.6-1.9,0.2c-3-1.7-4.5-1.1-4.8,2.5c-0.6,6.3-0.7,12.6-0.7,18.9
		c0,1.2,0.5,1.7,1.6,1.6c2.4-0.1,4.7,0.1,7.1-0.1c1.4-0.2,2-0.6,1.9-2.1C374,214.3,374,211.7,374,209.1z M42.5,196.8
		c-0.9-0.2-1.1-0.9-1.6-1.3c-1.8-1.5-5.6-0.7-5.8,1.2c-0.4,4.4-0.7,8.8-0.2,13.2c0.1,0.5,0.4,1.5,0.8,1.3c1.8-1,3.1,0.4,4.7,0.5
		c4.8,0.1,5.1,0.2,5.1-4.6c0-3.7,0.5-7.4-0.9-11c-0.3-0.9-0.6-2.1-1.9-1.7C41.4,194.8,42.4,195.9,42.5,196.8z M19.1,195.5
		c0-0.2,0-0.5,0.1-0.7c0.4-1.4-0.9-3,0.5-4.3c0.2-0.2,0-0.8-0.4-1.1c-0.1-0.1-0.5,0-0.5,0.1c-0.7,1.5-2.6,2.3-2.6,4.2
		c0,0.7,0.1,1.9,0.8,1.4C18,194.2,18.2,195.8,19.1,195.5z M267,192.1c1.6,1.3,2.8,1,3.8-0.5C269.7,193,268.4,191.1,267,192.1z"/>
	<path d="M430.7,289.3c-0.7-3.7-3.8-4-6.6-4.7c-2-0.5-3.4,0.7-3.5,2.7c-0.2,4.7-0.4,9.4-1.1,14.1c0-2,0-4,0-6c0-2.8,0.4-5.6-0.8-8.3
		c-0.2-0.5,0-1.5-1-1.3c-0.8,0.2-0.4,1-0.4,1.6c0.2,2.1,0.4,4.1,0.6,6.3c-2.7-1.5-2.9-3.9-2.9-6.5c-0.1-2.9-0.2-2.3-2.8-2.4
		c-3.4-0.1-3,1.8-3,3.8c0,15.6,0,31.1,0,46.7c0,2-0.1,3.9-0.2,5.9c0,1.1,0,2.2,0.7,3.2c0.5,0.6,0.7,1.3,0.2,2.1
		c-0.8,1.1-0.5,2.3,0.3,3.3c-2.2,0.7-2.3,0.6-2.2-2.1c0.5-15.8,0.3-31.7,0.3-47.5c0-3.7-0.9-7.3-1.3-11c-0.1-1.3-1.4-2-1.9-3.6
		c-1.1,3.3,0.3,6.2-0.3,9.6c-0.9-1.5-0.6-2.6-0.7-3.6c-0.1-1.9,0.2-3.9-0.7-5.8c-0.6-1.2-1.3-1.6-2.4-1.6c-1.4,0.1-2,1-2.1,2.2
		c-0.3,4.1-0.6,8.2-0.8,12.4c-0.8,16.7-0.7,33.3-0.9,50c0,0.4,0.1,0.9-0.4,1.2c-0.8-0.2-0.5-0.9-0.5-1.3c0.7-17.3,0.5-34.6,0.5-51.9
		c0-2.5,0-5-0.3-7.5c-0.1-1,0.8-2.7-1.4-2.8c-0.1,0-0.1-0.9-0.1-1.4c-0.1-0.7-0.2-1.6-1.1-1.6c-1,0-0.9,1-0.8,1.6
		c0.2,1.7-0.5,3.3,0,5c0.1,0.5-0.2,1.2-0.5,1.8c-0.2-1.9-0.9-3.7-0.4-5.7c0.4-1.6,0-3-2.1-3.4c-1.9-0.4-3,0.5-3.6,2
		c-0.3,0.8-0.4,1.8-0.4,2.7c-0.1,17.3-0.1,34.6-0.1,51.9c0,3.3,0.1,6.6,0.1,9.9c0,0.5,0.3,1.3-0.6,1.3c-0.8,0-0.6-0.8-0.6-1.3
		c0.1-6.9,0.4-13.7,0.4-20.6c0-12.4-0.1-24.8-0.4-37.2c-0.1-2.2-1.4-4.4-1.8-6.8c-0.7,0.9-0.2,1.9-0.1,2.8c0.1,1,0.1,2.1-0.9,2.8
		c-0.3,0.2-0.8,0.1-0.9-0.3c-0.3-1-0.5-2.1,0.3-3c1.4-1.7,0.1-2.7-1.1-3.3c-1.5-0.8-3.1-1.5-4.7-2.9c-0.2,2.6-0.5,4.8-0.5,7
		c-0.5,18.6-0.5,37.3-0.6,55.9c0,1.7,0.2,3.4,0.5,5c0.1,0.7,0.2,1.4-0.4,1.9c-0.2,0.1-0.6,0.2-0.8,0.1c-0.7-0.5-0.3-1.3-0.3-1.9
		c0.1-1.5,0.5-2.9-0.4-4.4c-1-1.8-1.9-1.8-3.1-0.4c-0.8-0.3-0.4-1.8-1.7-1.5c-1.8,0.4-3.8,0.4-4.9,2c-0.9,1.4,0.1,5,1.4,6.2
		c-2.7,0.8-2.7,0.6-2.6-2.3c0.2-6.2,0.2-12.3,0.1-18.5c0-11.9-0.1-23.8-0.2-35.7c0-2.1-0.1-4.2-0.2-6.3c-0.1-2.1-1.5-3.4-3.6-3.6
		c-4.2-0.3-5.7,0.9-5.8,5.1c-0.2,10.3-0.2,20.6-0.3,30.9c-0.1,9.7-0.1,19.5-0.2,29.2c0,0.6,0.2,1.3-0.5,1.8
		c-0.6-0.6-0.4-1.4-0.4-2.2c0.3-15.7,0.2-31.4,0.3-47.1c0-5.3-1-10.3-2.6-15.3c-0.2-0.6-0.5-1.1-1.1-1.5c-0.9-0.6-1.3-0.6-1.6,0.8
		c-0.3,1.8,0.5,3.6,0.2,5.3c-0.1,0.6,0.1,1.8-0.4,1.5c-0.8-0.3-2.3,0.4-2.4-1.4c-0.1-1.1-0.1-2.2,0.1-3.3c0.1-0.9,0.3-2.1-0.8-2.3
		c-1.3-0.3-1.8,0.9-2,2c-0.2,0.8-0.2,1.7-0.2,2.5c-0.1,6.7-0.2,13.3-0.3,20c0,0.2-0.1,0.5-0.2,0.7c-0.6-2.7-0.3-5.4-0.3-8.1
		c-0.1-5.7-0.3-11.3-0.4-17c0-1.4-1.2-1.7-1.8-2.7c-0.5,0.6,0,1.1,0,1.5c0,1-0.4,1.4-1.3,0.9c-0.8-0.5-2.3-0.3-2.3-1.9
		c0-0.5-0.8-0.7-1.4-0.7c-1,0.1-1.7,0.7-2.1,1.6c-0.5,1.4-0.6,2.9-0.7,4.3c-0.3,6.7-0.5,13.4-0.5,20.2c-0.1,12.4-0.2,24.8-0.3,37.2
		c0,1.5,0.1,2.9,0.1,4.4c0,0.4-0.1,0.9-0.6,0.9c-0.5,0-0.5-0.5-0.5-1c0.8-15.5,0.7-30.9,0.5-46.4c0-0.8-0.1-1.7-0.1-2.5
		c0-1.4-0.5-2.2-2.1-2.5c-1.4-0.3-2.7-1.3-4.4-1.4c1.5-0.1,3-0.2,4.4-0.2c1.3,0,1.9-0.6,1.9-1.9c0-2.5,0-5,0-7.6
		c0-1.8-1.4-3.3-1.6-5.2c-0.1-0.7-3.9-0.6-4.7,0c-2.1,1.4-2.9,3.3-2.9,6c-0.3,18.2,0,36.3,0.1,54.5c0,2.5,0,5.1-0.2,7.6
		c-0.7-3.3-0.4-6.7-0.4-10c-0.2-16.9,0.5-33.8-0.1-50.7c-0.1-1.9-0.1-3.8-0.3-5.6c-0.1-1.9-1.2-2.9-2.9-2.3
		c-1.9,0.8-3.7,0.3-5.5,0.1c-2-0.2-2,0.7-2,2c-0.1,6-0.1,12.1-0.1,18.1c0,13,0,25.9,0,38.9c0,2.9,0.2,5.7,0.3,8.6
		c0,0.5,0.2,1.3-0.8,1.8c-0.1-1.7-0.3-3.2-0.2-4.8c0.6-20.7-0.2-41.3-0.1-62c0-3.4-0.4-3.3-3.7-3.5c-2.2-0.1-3.9,1.2-6,1.1
		c-0.5,0-0.6,0.6-0.6,1c-0.6,5.3-0.1,10.6-0.1,16c0,1,0.7,1,1.5,1c1.4,0,2.8,0,4.7,0c-2.2,0.7-3.4,2-4.9,2.7c-1,0.5-1.2,1.5-1.1,2.5
		c0.1,13,0.2,25.9,0.2,38.9c0,2.2,0,4.3-0.3,6.5c-0.9-1.7-0.6-3.5-0.6-5.2c0-13.2,0.1-26.3,0.1-39.5c0-7.6-0.3-15.3-0.4-22.9
		c0-2-0.9-2.8-2.8-2.8c-1.4,0-2.8-0.1-4.1-0.2c-1.7-0.2-2.5,0.7-2.9,2.3c-0.8,3.4-0.6,6.8-0.6,10.2c-0.1,9.7-0.3,19.5,0,29.2
		c0.2,6.4-0.2,12.9,0,19.3c0.1,2.5,0.6,5,0.8,7.5c0.1,0.7,0.3,1.7-0.5,2.1c-0.7,0.4-1.1-0.5-1.6-0.8c-1.2-0.7-2.4-1.2-3.6-2.1
		c0.7,0,1.4-0.2,2-0.1c2,0.3,2.5-0.8,2.5-2.6c-0.1-10.9-0.1-21.9-0.1-32.8c0-5.1,0.3-10.2-0.8-15.3c-0.5-2.5-0.6-5.2,0.4-7.8
		c0.9-2.4,0.2-5,0-7.5c-0.1-1.3-1.5-1.8-2.7-1.9c-1.7-0.2-3.4-0.2-5-0.2c-1.8,0.1-2.6,1.2-2.7,2.9c-0.2,2.8-0.3,5.6-0.3,8.4
		c0.1,17.6,0.1,35.2,0.1,52.8c0,2.9,0,2.9,2.9,3c0.5,0,1.1-0.2,1.6,0.2c-0.9,0.1-0.1,1.3-1.1,1.6c-0.9,0.3-1,1.5-2.2,1.9
		c-2.2,0.8-2-0.4-1.9-1.6c0.1-5.9,0.3-11.8,0.3-17.6c-0.1-13.5-0.2-26.9-0.3-40.4c0-2.5-0.1-5-0.1-7.6c0-0.9-0.1-1.6-0.9-2.2
		c-1.4-1.1-6.5-1-7.8,0.2c-0.2,0.2-0.4,0.5-0.4,0.7c0,2.2-1.3,4-1.3,6.3c0,18.6-0.1,37.1,0.1,55.7c0,2,0,4,0,6c-0.2,0-0.4,0-0.6,0
		c0-2,0-4,0-6c0.1-6.2-0.2-12.3-0.2-18.5c0.1-10.3,0.2-20.6,0.2-30.9c0-3.2-0.4-6.4-0.5-9.6c-0.1-1.3-1-2.3-1.1-3.6
		c-0.1-0.8-0.9-0.7-1.7-0.6c-1.8,0.2-3.5,1.6-5.5,0c-1.1-0.8-1.9,0.6-1.9,1.9c-0.1,3.2-0.1,6.4-0.2,9.7c-0.2,9.9,0.1,19.8,0.2,29.6
		c0,2.7,2.1,1.2,3.2,1.8c-0.9,0.3-2.1-0.3-2.8,0.5c-0.7,0.8-0.3,1.9-0.3,2.9c0.1,6.4-0.5,12.9,0.5,19.3c0.1,1-0.1,2.1-0.2,3.1
		c0,0.5,0,1.3-0.7,1.3c-0.8-0.1-0.6-0.9-0.6-1.4c0-5.3,0.1-10.5,0.1-15.8c-0.1-16.9-0.1-33.8-0.2-50.7c0-1.9-0.7-2.5-2.5-2.2
		c-1.2,0.2-2.7-0.3-3.2,1.5c-0.1,0.4-0.7,0.6-1,0.1c-0.4-0.6-0.6-1.6-1.4-0.9c-0.9,0.7-2.1,1.3-2.2,2.7c-0.1,0.6-0.1,1.3-0.1,1.9
		c0,9.2-0.1,18.5-0.1,27.7c0,0.4,0,0.8-0.5,1.2c0-2.6,0-5.2,0-7.8c-0.1-8.1-0.2-16.1-0.2-24.2c0-1.7-0.6-2.6-2.3-2.4
		c-1.8,0.2-3.6-1.1-5.5,0c-1,0.6-1.6,1.3-1.7,2.4c-1.4,9-1.2,18-1.2,27c0,13,0,26.1,0,39.1c0,0.5,0,1.1-0.3,1.5
		c-0.6-0.1-0.6-0.5-0.6-0.8c0.9-12.3,0.4-24.6,0.4-37c0-5.6-0.2-11.2,0-16.8c0.2-3.8-1.3-7.3-1.3-11c0-1.9-1.3-2.3-3.1-1.3
		c-0.7,0.4-1.1,0.7-2,0.2c-1.4-0.8-3.8,0.8-3.9,2.4c-0.1,2-0.1,4.1-0.2,6.1c-0.3,11.8-0.6,23.5-0.8,35.3c0-7.3,0-14.7,0-22
		c0-6-0.2-11.9-0.1-17.9c0-1.8-1-3-1.6-4.4c-0.3-0.7-0.7-0.5-1.1,0c-1,1.2-2.2,2.2-1.9,4.1c-0.4-1.6-0.5-3.2-2.1-4.2
		c-1.7-1-2.7-0.7-3.3,1.2c-0.5,1.6-0.5,3.2-0.5,4.8c0.1,19.9,0.1,39.8,0.1,59.7c0,0.5-0.1,0.9-0.4,1.4c-0.6-1.9-0.5-3.9-0.5-5.8
		c0.3-19.3-0.2-38.5-0.2-57.8c0-0.8-0.1-2.2-0.9-2.1c-1.3,0.3-2.4-2-3.7-0.1c-0.4,0.6-0.8,0.4-1.1,0c-1.3-1.7-2.7-0.4-4,0
		c-1,0.3-0.6,1.6-0.7,2.4c-0.5,14.8-0.5,29.6-0.2,44.4c0,2.8-0.2,5.5-0.1,8.2c0.1,2.9,0.3,5.7,0.5,8.6c0,0.5,0,1-0.1,1.5
		c0,0.3,0,0.7-0.4,0.9c-0.5,0.2-0.8-0.1-1-0.5c-0.3-0.7-0.6-1.3-1.3-0.6c-2.1,2-4.4,0.8-6.6,0.7c1.1-1.1,2.5-0.5,3.8-0.6
		c2.7-0.3,4.5-2,4.5-4.7c0-18.9-0.1-37.8,0-56.8c0-1.7-0.9-3-1.1-4.8c-0.8,0.5-1.4,0.8-2.1,1.2c-0.2,0.1-0.4,0.5-0.6,0.5
		c-2.3-0.3-2.3-0.3-4.5,1.4c-0.1,0-0.1,0.1-0.2,0.1c-3.3-0.7-1.7,1.9-1.7,2.9c-0.2,16.2-0.2,32.4-0.3,48.6c0,3.6-0.6,7.1,0.1,10.7
		c0.1,0.5,0.1,1.1-0.9,1.6c0-19.3,0.4-38.4-0.1-58c-0.9,1.7-0.8,3-1,4.2c-0.2,1.2-0.2,2.5-0.4,3.8c-0.8-3-0.9-6.5,0.2-9
		c1.2-2.5,0.8-4.8,1.2-7.2c0.3-1.7-1.3-2-2.1-2.6c-0.9-0.6-1,0.8-1.3,1.4c-0.5,0.8-1,0.5-1.6,0.2c-3.3-1.5-5.3-0.3-5.4,3.4
		c-0.3,15.1-0.6,30.3-0.2,45.4c0.2,5.6,0.2,11.2,0.2,16.8c0,0.4,0.2,1-0.4,1.4c-0.5-0.9-0.4-1.8-0.4-2.6
		c-0.1-15.3-0.1-30.6-0.2-45.8c0-4.8,0.1-9.7,0-14.5c0-3.7-2.8-5.2-6.2-4c-3.4,1.2-3.9,4-4.1,6.5c-0.9,8.9-0.4,17.9-0.4,26.9
		c0,10.3,0.2,20.6,0.3,30.9c0,0.7,0.2,1.4-0.2,2.2c-0.7-0.5-0.4-1.1-0.4-1.7c-0.1-19.6-0.1-39.1-0.1-58.7c0-4.2,0-4.2-3.8-5.7
		c-1-0.4-1.7-0.6-1.9-1.9c-0.2-1-0.7-2.2-1.7-2.8c0,0,0.1,0.1,0.1,0.1c-0.6-1.6-1.4-3-2.7-4.2c-0.4-0.4-1.1-0.9-0.6-1.6
		c0.4-0.6,1.2-0.5,1.8-0.3c2.1,0.6,4.2,1,6.3,1.5c1.5,0.4,3.1,0.2,4.6,0.4c0.7,0.1,1.4-0.2,1.6-0.8c0.5-1.7,1.4-1.1,2.2-0.4
		c2.5,1.8,5.5,1.6,8.3,2.2c0.3,0.1,0.8-0.5,1.2-0.7c0.5-0.3,1.2-1.6,1.3,0.3c0,0.2,0.3,0.5,0.4,0.3c1.2-1.7,2.1,0.1,3.2,0.1
		c1,0,2-0.8,3-1.4c0.7-0.4,1.1-1.2,2,0.1c0.2,0.4,2.5,0.3,2.4-1.3c0-1.4,0.7-0.9,1.3-0.8c0.9,0.2,2.1,0.1,2.2,1.4
		c0,1.4,1.3,1.4,2,1.8c0.5,0.2,0.8-0.7,0.5-1.4c-0.3-0.6,0.2-0.7,0.6-0.8c2.4-0.8,4.8-0.1,6.6,1.9c0.9,1,1.9,2.7,2.7-0.2
		c0.2-0.8,1.2-0.9,2-0.9c2.1,0.1,4.2-0.8,6.2-0.5c2.6,0.3,4.9-0.4,7.4-0.6c0.5-0.1,1-0.1,1.2,0.6c0.1,0.6,0.6,0.7,0.9,0.3
		c1.3-1.4,3-0.9,4.4-0.5c1.8,0.5,3.5,0.3,5.1-0.2c1.6-0.5,2.9-0.4,4.4,0.5c1.1,0.7,2.7-0.5,3.9,0.5c0.4-0.9,0.9-1.9,1.4-3
		c0.7,1.1,0.6,2.3,0.6,3.5c0.1,1.4,0.4,1.8,2,1.6c3.3-0.3,6.3-1,9.1-2.7c0.4-0.3,1.3-0.4,1.6-0.2c1.3,1.1,3.2,1.1,4.4,2.1
		c2.7,2.2,5.9,1.8,8.9,2.3c1,0.1,2-0.6,0.9-1.9c-0.4-0.5-0.6-1,0-1.5c0.5-0.4,0.8,0.2,1.2,0.4c1.8,1.2,3.9,0.4,5.8,0.6
		c0.9,0.1,1.7,0,2.7,0.4c0.2-0.7-0.5-0.7-0.7-1.1c-0.3-0.6,0-1.5,0.4-1.2c1.1,0.7,2.9,0.3,3.5,1.9c0.3,1,0.9,1.2,1.5,0.6
		c2.6-2.3,5.3-0.4,8-0.4c0.7,0,1.3,0.5,2.1,0c0.2-0.1,0.7-0.2,0.8-0.1c1.5,1.3,3-0.4,4.3,0c1.6,0.4,2.9,0.6,4.5,0.1
		c0.9-0.2,0.8,1.2,1.6,1.5c0.7-0.1,0.6-0.8,0.9-1.2c0.4-0.6,0.8-1,1.5-1c0.7,0,1,0.5,1,1.1c0.1,1.2,0.8,0.9,1.5,0.6
		c1.3-0.7,2.6-1.4,3.2,0.8c0.1,0.4,0.5,0.5,0.8,0.3c0.9-0.7,0.3-1.3-0.3-2.3c3.2,0.6,6.2-1.3,8.9,1.1c0.2,0.2,0.5,0.4,0.9,0
		c1.4-1.5,1.9-1.5,3.6,0.1c0.2,0.2,0.5,0.5,0.7,0.2c1.1-1.9,1.8-0.3,2.8,0.2c1,0.5,2.1,0.8,3.3,0.4c1.5-0.4,0.3-2.1,1.1-2.8
		c0.9,0.1,0.5,1.2,1.3,1.5c0.5-1.8,1.9-1.8,3.6-2c4.1-0.6,8.2,0.2,12.3-0.1c2-0.2,3.6,0.9,5.4,1.2c3.9,0.7,7.9,0.8,11.9,1
		c3.6,0.2,7.3-0.4,10.9-0.2c0.4,0,0.9,0,1.2-0.2c4-2.3,8.3-0.9,12.5-1c2.5-0.1,4.7,0.7,7,1c1.6,0.2,1.7-0.5,1.6-1.7
		c-0.1-0.7-0.1-1.4,0.2-2.1c0.4,1.2,0.9,2.3,1.2,3.5c0.5,1.9,2,2.2,3.2,1.6c2.8-1.4,6-1.7,8.5-3.8c0.3-0.3,0.9-0.5,1.4-0.4
		c5.4,0.8,10.6-1.7,15.9-1C430.7,278.1,430.7,283.7,430.7,289.3z M367.6,284.5c-1.7,1.3-4.3,1.4-4.3,4.5c-0.4,16.4-0.1,32.8,0,49.2
		c0,1.4,0.5,1.9,1.8,1.8c1.4-0.1,3.4,0.5,4.1-0.2c1.4-1.4,2.2,0.1,3.2,0c1.1-0.1,1.3-0.8,1.4-1.7c0.1-1.9,0.3-3.8,0.3-5.7
		c-0.1-15.1-0.3-30.3-0.4-45.4c0-1.4-0.7-2.5-1.6-3.6c-1.2,1.9-1.5,3.9-2.1,5.8C369.3,287.5,367.3,286.7,367.6,284.5z M377.6,279
		c-4.3-1.2-8.7-1-13.1-1C368.8,279.9,373.2,278.9,377.6,279z"/>
	<path d="M151.9,279.5C151.9,279.5,151.9,279.5,151.9,279.5c0.9,1.9,1.7,3.8-0.7,5.6c-1.3,0.9-1.5,2.5-1.6,4.1
		c-0.1,10.2-0.1,20.3-0.5,30.5c-0.3,8.1-0.2,16.3-0.2,24.4c0,2,0.7,4,0,5.9c-0.2,0-0.4,0-0.5,0c0-2,0-4.1,0-6.1
		c0.3-10.2,0.2-20.3,0.1-30.5c-0.1-8.5,0.1-17-0.5-25.4c0-0.6,0.3-1.5-0.4-1.7c-0.8-0.2-1,0.8-1.3,1.4c-0.4,1-0.7,2.1-1.2,3.8
		c-0.2-2.8-2-3.6-3.3-4.8c-0.6-0.6-1.2-0.9-2.1-0.5c-0.9,0.4-1.3,1-1.3,1.9c-0.1,1.8-0.4,3.6-0.4,5.4c0.1,7.3-0.4,14.6-0.3,21.8
		c0.2,11.1-0.1,22.1-0.1,33.2c0,0.4,0.1,0.9-0.8,1.2c0.3-17.1,0.3-33.9-0.1-50.9c-0.5,0.5-0.2,1.1-0.3,1.7c-0.2,0.8-0.3,1.5-1.3,0.8
		c-1.4-0.9-1.6-0.1-1.7,1.1c0,0.6-0.1,1.1-0.3,1.6c-0.2,0.5-0.3,1.5-1.1,1.3c-0.9-0.3-0.9-1.4-0.5-2c1.4-1.7,0-2.7-0.6-4.5
		c-1,1.9-0.2,3.5-0.9,5.1c-0.6-0.9-0.4-1.8-0.4-2.6c-0.1-1.9,0.4-3.7,0.1-5.6c-0.2-0.8-0.3-1.9,0.6-2.3c1-0.5,0.6,1.3,1.7,1.3
		c0-2.1,2-1.4,3.1-2.2c0.4-0.3,1.7-0.1,1-1c-0.3-0.4,0.3-2.8-1.6-1.2c-0.2,0.2-0.4,0.1-0.5-0.1c-0.5-1.2-1.8-1-2.7-1.3
		c-3.8-1.5-5.5-0.4-5.5,3.6c-0.1,4.7-0.2,9.4-0.1,14.1c0.3,13.7-0.6,27.3-0.1,41c0,0.8,0.4,2.1-0.6,2.1c-1,0-0.6-1.4-0.6-2.1
		c0-19.3-0.1-38.7,0-58c0-2.7-0.9-5.2-2-7.6c-0.9-1.8-2.3-0.9-3.4-0.9c-1.1,0-2.1,0.2-2.3,1.6c0,0.3-0.1,0.8-0.3,1
		c-0.6,0.5-0.4,1,0,1.5c0.6,0.6,1.1,0.1,1.7-0.2c0.4-0.3,0.6-1,1.5-1c-0.8,2.7,1.2,3.2,3,3.8c0.3,0.1,0.8,0.2,0.7,0.6
		c0,0.4-0.4,0.7-0.7,0.6c-1.8-0.7-2.1,0.6-2.7,1.7c-0.3,0.5-0.5,1.5-1.2,1.2c-0.9-0.3-0.5-1.3-0.4-2.1c0.2-2.5,0-2.7-2.3-3
		c-1.5-0.2-1.9,0.4-1.9,1.7c0,3-0.1,6-0.1,9c-0.2,16.8-0.2,33.6,0,50.4c0,0.6,0.4,1.5-0.6,1.8c-1.1,0.3-0.7-0.9-1.1-1.2
		c-1.1-1.2-2.7-1.2-4.3-1.2c-1.4,0-2.9,0.2-4.3,0.1c1.8-1,3.8-1,5.7-0.9c3,0.1,3.6-0.5,3.6-3.7c0.1-5.9,0-11.9,0.1-17.8
		c0.1-7.9,0.3-15.8,0.3-23.7c0-3.9-0.1-7.8-0.4-11.8c-0.1-2.6-2.7-2.9-4.2-4.2c-0.2-0.2-0.5-0.2-0.8-0.3c-4.5-1.7-5.4-1.1-5.4,3.7
		c0,19.4,0.1,38.8,0.1,58.2c0,1-0.1,2.1-0.2,3.5c-1-1.3-0.9-2.5-0.9-3.6c0.4-12.8,0.2-25.6,0.1-38.5c-0.1-7.3-0.1-14.7-0.3-22
		c-0.1-3.2-1.2-4.2-4.4-4.7c-1.9-0.3-3.6-0.4-4.4,2.1c-0.5,1.7-1,3.3-1.1,5.1c-0.5,7.9-0.4,15.8-0.6,23.7c-0.2,0-0.4,0-0.6,0
		c0-7.1,0-14.3,0-21.4c0-1.6-0.4-2.9-1.5-4.2c-1-1.2-2.6-2.6-0.9-4.6c0.4-0.5,0.1-1-0.5-1.1c-0.7-0.1-1.7-0.2-1.7,0.7
		c0,2-0.9,4,0.2,6c0.5,0.8,0.7,1.7-0.5,2.3c-1.1,0.6-1.4-0.3-2-0.9c0,2.9,0,5.7,0,8.6c-0.1,0-0.3,0-0.4,0c0-3.2,0-6.4,0-10.1
		c-1.4,1.4-1,3-1.9,4.3c-0.5-2,0.8-4.1-1.1-6.1c-0.8,21.7-0.5,43,0.1,64.8c-1.3-1-1.2-1.7-1.2-2.4c0.2-12.8,0.5-25.5,0.1-38.3
		c-0.1-4.3,0-8.6-0.7-12.8c-0.1-0.6,0.3-2.1-1.3-1.4c-0.3,0.1-0.5-0.4-0.5-0.8c0.1-2.7-1.6-4.6-2.9-6.7c-0.4-0.6-0.4-0.9,0-1.4
		c0.8-1.3,0.3-2.1-0.9-2.7c-0.2-0.1-0.6-0.2-0.7-0.4c-0.7-0.9-1.6-2-2.7-1.4c-1.1,0.5-0.8,2-0.9,3.1c-0.4,11.8-0.2,23.5-0.2,35.3
		c0,9.1,0.2,18.2,0.3,27.3c0,0.7,0.1,1.5-0.4,2.3c-0.9-0.4-0.6-1.1-0.6-1.8c0-19.5,0.3-39,0.1-58.4c0-2.5-0.9-4.6-1.7-6.8
		c-0.4-1-1.3-1.5-2.3-1.7c-3.3-0.9-6.4,1.4-6.4,4.8c-0.1,11.5-0.2,23-0.2,34.5c0,9.3,0,18.5,0,27.8c0,0.5,0.3,1.1-0.3,1.6
		c-0.3,0.2-0.5,0-0.7-0.2c-0.5-0.5-0.2-1-0.1-1.5c0.7-3,0.6-6,0.6-9c-0.1-18.2-0.3-36.4-0.5-54.6c0-1.3-0.5-1.7-1.7-2.1
		c-2.1-0.7-4.2-0.8-6.3-1.1c-0.7-0.1-0.8,0.2-1.1,0.7c-0.7,1.5-1.2,3-1.2,4.8c-0.1,17.9-0.3,35.7-0.4,53.6c0,2.7,0.2,5.3,0.4,8
		c0.1,1.4-0.3,1.9-1.6,1.6c-2.4-0.5-4.9,0.2-7.3-0.6c-0.3-0.1-0.6-0.1-0.8,0c-2.5,0.5-2.6,0.4-2.5-2.1c0.4-12,0.3-24.1,0.3-36.1
		c0-3.2,0-6.4,0-9.7c0-0.6,0-1.4-0.7-1.6c-0.7-0.3-0.5,1-1.2,0.9c-0.6-1.3,0.7-1.6,1.3-2.3c-1.8-1.4-1.6-3.6-1.6-5.4
		c0-1.5-0.9-3.7,1.5-4.6c0.4-0.1,0.2-0.9,0.1-1.4c-0.5-1.9-3.9-3.9-5.7-3.5c-4,1-4.4,1.4-4.4,5.5c-0.1,5,0,9.9,0,14.9
		c-0.2,0-0.4,0-0.6,0c0-4.6,0-9.2,0-13.8c0-1.3-0.2-2.5-0.3-3.8c-0.1-1.1-0.2-1.9-1.6-1.9c-1.3,0-1.9,0.7-2.1,1.9
		c-0.4,2.4-0.3,4.8,0.1,7.6c-2-2.3-1.9-4.6-1.4-6.8c0.6-2.2-0.7-2.9-2.3-3.3c-0.7-0.2-1.3-0.7-2.2-0.8c-0.6,1.9-0.6,3.9-0.7,5.8
		c-0.4,14.2-0.6,28.4-0.5,42.7c0,5.1,0.1,10.2,0.3,15.3c0,1-0.1,1.8-0.8,2.6c-0.1-0.2-0.3-0.4-0.3-0.5c1-20,0.4-39.9,0.3-59.9
		c0-4.3-1.9-5.6-6.1-4.4c-0.3,0.1-0.5,0.1-0.8,0.1c-3.1,0.1-3.2,0.2-3.3,3.4C1,297.9,1,306.5,0.9,315.1c-0.1,10.1-0.1,20.2-0.2,30.3
		c0,1.3,0,2.7,0.2,4c0.1,0.8-0.1,1.2-0.9,1.4c0-26.1,0-52.1,0-78.2c3.5,0,7,0,10.5,0c2.9,0,5.7,0.5,8.2,2.2c0.2,0.2,0.6,0.4,0.7,0.4
		c2.2-1,4.9,0.3,6.9-1.1c2.9-1.9,6-1.2,8.9-0.5c2.1,0.5,4.2,1.1,6.4,0.9c5.3-0.5,10.6-0.1,15.8,0.9c2.2,0.4,1.1-1.7,1.9-2.3
		c0.8,1.3,0,3.5,1.3,4c1.2,0.4,2.8-0.4,4.2-0.9c4.9-1.8,10-0.9,14.9-1.4c4.2-0.4,8.4,0.6,12.7,0.1c3.7-0.5,7.5-0.8,11.2-1.2
		c2.1-0.2,3.6,0.9,4.9,1.8c2.1,1.4,4,0.7,5.8,0.3c1.7-0.4,2.9-0.5,3.9,1.2c0.5,0.9,1.5,1.4,1.9-0.4c0.3-1.1,0.9-2.2,2-0.3
		c0.7,1.1,1.8,0.5,2.6,0.1c1.1-0.5,2-1.3,3.3-0.6c0.1,0.1,0.3,0.1,0.4,0c2.1-2,5-0.8,7.3-1.9c1.7-0.8,3.3-3.3,3.2-5.6
		c0-0.8-0.2-1.5,0.4-2.8c0.5,1.9,0.5,3.6,1.5,4.8c0.3,0.4,0,1.4,1,1c0.6-0.2,0.7-0.9,0.4-1.5c-0.4-1-0.6-2,0.8-2.2
		c1.3-0.2,1.8,0.7,1.6,1.8c-0.3,1.9,1.8,3.2,1.2,5.4c-0.1,0.5,1.8,1.8,2.9,2.4C150.1,277.5,151.1,278.4,151.9,279.5z M43.3,300.8
		c1.2-0.8,0.5-2.2,0.9-3.2c1.5-4-0.4-7.8-0.3-11.6c0.1-1.9-2.8-3.9-4.1-3.1c-1,0.6-2.2,1-3.1,1c-2.6-0.1-2,1.7-2,3
		c-0.2,5-0.1,10,0.1,15c0.5,11.7,0,23.5,0.2,35.2c0.1,3.5-0.5,7,0.2,10.5c0.4,2,2.4,3,4.1,1.8c0.6-0.4,0.8-0.2,1.2,0
		c1.8,0.8,4.3-0.6,4.3-2.7c0.1-3.2-0.1-6.5,0.2-9.7c0.5-6.1-1.3-12.1-0.6-18.3c0.6-4.9,0.1-9.9-0.1-14.9
		C44.3,302.7,44.1,301.7,43.3,300.8L43.3,300.8z M129.3,287.8c0.8-0.1,1.7-0.1,2.5-0.2c1.2-0.3,1.7-1.4,1.8-2.4
		c0.1-0.9-1.1-0.8-1.8-1c-1.2-0.3-2.2-0.4-2.9-1.7c-0.2-0.4-1.4-0.6-2.1,0.2c-1,1.2-1.3,2.7-0.7,4.1
		C126.7,288.3,128.2,287.5,129.3,287.8z M77.6,290.6c0,0.6-0.4,1.4,0.3,1.7c0.5,0.3,0.8-0.3,0.8-0.7c0.1-1.3,0.2-2.6,0.2-3.9
		c0-0.7-0.2-1.6-1.2-1.4c-0.8,0.2-0.6,1-0.5,1.6C77.3,288.9,77.9,289.7,77.6,290.6z"/>
	<path d="M430.7,261.2c-2.4,0-4.8,0-7.5,0c2.1-3.1,2.8-3.4,5.8-2.7c0.5,0.1,1.1,0.1,1.7,0.2C430.7,259.5,430.7,260.3,430.7,261.2z"
		/>
	<path d="M430.7,69.4c-1-0.9-1-0.9-4.3-0.9c0.7-0.6,0.7-0.6,4.3-0.8C430.7,68.3,430.7,68.8,430.7,69.4z"/>
	<path d="M268.7,360c0.6-0.8,2-0.8,2.1-2.1c0.3,0.2,0.6,0.3,0.8,0.6c0.6,1-0.9,0.8-0.8,1.6C270.1,360,269.4,360,268.7,360z"/>
	<path d="M102.1,59.3c0.3,6.8,1.2,13.6,0.7,20.4c0,0.1,0,0.1,0,0.2c-0.3,1.3,1.3,2.9,0,3.7c-0.9,0.6-2.6,0-3.9,0c-1.3,0-2.5,0-3.8,0
		c-0.5,0-0.9-0.2-0.7-0.7c0.1-0.4,0.6-0.3,0.9-0.1c1.9,1,3.7,0,5.5-0.2c0.8-0.1,0.8-0.8,0.9-1.4c0.6-3.8,0.4-7.5,0.4-11.3
		C102.2,66.2,102.1,62.8,102.1,59.3z"/>
	<path d="M170,68.7c0.7,0.5,1.6,0.7,1.4,2c-0.4,4.2,0.2,8.4,0.1,12.6c0,0.6,0.3,1.4-0.6,1.6c-0.6,0.1-1.5,0.1-1.2-0.9
		c0.9-2.6-0.7-5.2,0.2-7.6C170.9,73.7,169.8,71.3,170,68.7z"/>
	<path d="M136.3,55.5c0.7,8.5,0.3,17,0.4,25.5c0,1.6-0.4,3.5,2.2,3.7c0.2,0,0.3,0.4,0.5,0.7c-3.1-0.2-3.1-0.2-3.1-3.3
		C136.3,73.3,136.3,64.4,136.3,55.5z"/>
	<path d="M238.8,61.9c1.1,7.3,0.2,14.5,1,21.7c0,0.4,0.3,1.2-0.3,1.2c-0.9,0.1-0.6-0.7-0.6-1.2C238.8,76.4,238.8,69.1,238.8,61.9z"
		/>
	<path d="M11.3,49.8c0,10.9,0,21.8,0,32.6c-0.1,0-0.2,0-0.3,0c0-10.8,0-21.7,0-32.5C11.1,49.8,11.2,49.8,11.3,49.8z"/>
	<path d="M356.7,38c1.5-0.2,2.7-0.3,4-0.1c0.7,0.1,1.4,0.3,1.4,1.2c0,0.9-0.6,1.3-1.3,1.3c-1,0.1-1.9,0-2.9-0.1
		c-0.5,0-0.9-0.3-0.5-0.8C357.7,38.9,357.3,38.5,356.7,38z"/>
	<path d="M369.9,61.4c-0.1-2.2-1-4.3-1.2-6.5c-0.1-0.8,0-1.7,1-1.7c1.1,0,0.9,0.9,0.7,1.5C370,57,370.9,59.2,369.9,61.4z"/>
	<path d="M425.6,15.7c-0.2,3.5-0.4,6.9-0.6,10.4c-1.4-3.5-0.3-7,0-10.5C425.2,15.6,425.4,15.7,425.6,15.7z"/>
	<path d="M144.3,31c0-1.9,0-3.5,0-5.2c0-0.5,0.2-1.1,0.8-0.9c0.5,0.1,0.5,0.6,0.3,1C144.8,27.5,146.2,29.3,144.3,31z"/>
	<path d="M177.5,36.9c0.9,1.7,0.8,3.6,1,5.4c0,0.4-0.1,0.9-0.7,0.8c-0.5-0.1-0.5-0.6-0.5-1C177.5,40.4,177.5,38.6,177.5,36.9z"/>
	<path d="M77.3,14.9c-1.1-0.2-1.2-1.1-1.4-2c-0.1-0.8,0.6-0.9,1.1-0.8c1.1,0.1,1.2,1,1.3,1.8C78.4,14.6,78,14.9,77.3,14.9z"/>
	<path d="M179.6,46.7c0.5,2.2,0.5,4.4,0,6.7C178.8,51.1,179.5,48.9,179.6,46.7z"/>
	<path d="M311.7,67.9c1.9-0.3,3.5,0.2,5.3,0.3C315.1,68.7,313.5,70.2,311.7,67.9z"/>
	<path d="M370.1,73.1c-0.6-1.7-0.4-3.4,0-5.1C370.9,69.7,370.5,71.4,370.1,73.1z"/>
	<path d="M100.4,42c0-2.2,0-4.4,0-6.6c0.1,0,0.2,0,0.3,0c0,2.2,0,4.4,0,6.6C100.6,41.9,100.5,41.9,100.4,42z"/>
	<path d="M181.1,43.2c0,2.7,0,5.3,0,8C180.7,48.5,180.3,45.9,181.1,43.2z"/>
	<path d="M426,28.2c0.4,1.7,0.8,3.5,0.2,5.2C426,31.7,425.3,30,426,28.2z"/>
	<path d="M327.9,84.5c-2.7-0.4-2.8-0.4-1.8-2.9C326.8,82.6,326.8,83.9,327.9,84.5C327.9,84.5,327.9,84.5,327.9,84.5z"/>
	<path d="M60.9,83.4c1.4,0.5,3.1-1.2,5.5,0C64.1,83.4,62.4,83.4,60.9,83.4z"/>
	<path d="M212.2,58c-0.7-1.6-0.1-2.5,0-3.7C213.6,55.6,212.8,56.5,212.2,58z"/>
	<path d="M226.2,19.1c0.6,1.3,0.6,2.6,0.2,4c-0.2-1.3-0.5-2.6-0.7-4C225.9,19.1,226.1,19.1,226.2,19.1z"/>
	<path d="M234.4,65.4c-0.6-1.1-1.3-2.2,0.1-3.4C235.1,63.2,234.6,64.3,234.4,65.4z"/>
	<path d="M179.6,41.7c0-1.9,0-3.9,0-5.8C179.8,37.8,180.5,39.7,179.6,41.7z"/>
	<path d="M257.6,22.2c0.2,1.5,0.6,2.3-0.2,3.1c-0.3,0.3-0.8,0.2-0.9-0.2C256.1,24,257.1,23.5,257.6,22.2z"/>
	<path d="M394.9,24.4c0.5,1.5,0.5,3,0.2,4.5C394.9,27.4,394.5,25.9,394.9,24.4z"/>
	<path d="M351.3,79c0-1.6,0-3.1,0-4.9C352.2,75.8,351.6,77.4,351.3,79z"/>
	<path d="M241.6,17c0.8-1.1,1.3-1.8,2.1-2.9C243.9,15.9,243.5,16.7,241.6,17z"/>
	<path d="M108.3,140.8c0.7-0.6,1.3-0.5,1.9-0.4c3,0.2,3.2,0,3.1-3.1c0-0.8-0.3-1.6,0.2-2.6c0.6,2.2,0.9,4.3,0.7,6.4
		c-0.8,8.9-0.3,17.9-0.4,26.8c0,1.3,0.1,2.5,2.1,2.2c-0.8,0.5-1.6,0.9-0.6,1.7c0.9,0.7,0.7,1.9,0.5,2.7c-0.3,0.9-1.5,0.5-2.3,0.5
		c-1,0-2,0-3,0c2-2.2,2.4-4.8,2.5-7.4c0.2-8,0.1-16.1,0.3-24.1c0-1.9-0.9-2.5-2.6-2.3C109.9,141.1,109.1,141.3,108.3,140.8z"/>
	<path d="M350.8,150.1c0.8-3.2,0.3-6.5,0.4-9.8c0-1.5,0-2.9,0.4-4.4c0,4.1-0.2,8.2,0.1,12.3c0.2,2.9,0,6,1.2,8.8
		c0.6,1.4-0.8,2.8-0.5,4.4c0.5,3.9,0.2,7.8,0.1,11.7c0,0.5,0.1,1.2-0.5,1.2c-0.6,0-0.6-0.7-0.6-1.1c0-3.2-0.1-6.4-0.1-9.6
		C351.1,159.1,351,154.6,350.8,150.1L350.8,150.1z"/>
	<path d="M261.6,145.9c0,6.5,0,13.1,0,19.6c0,2,0.2,4,0.2,6.1c0,1.2,0.2,1.5,1.4,0.9c2.1-1,6.3-0.1,8,1.7c-3.4,0.1-6.6,0.2-9.9,0.2
		c-0.8,0-0.8-0.7-0.7-1.3c0.9-8.8,0.4-17.6,0.6-26.4c0-0.3,0-0.5,0-0.8C261.4,145.9,261.5,145.9,261.6,145.9z"/>
	<path d="M408.6,156.4c0,2-0.1,4,0,6c0.3,3.8,0.3,7.7,1.8,11.3c0.2,0.6,0.2,1-0.5,1c-1,0-2.3,0.6-3-0.3c-0.7-1-0.6-2.4,0-3.4
		c0.7-1.2,1.8-2.2-0.2-3.3c-0.1-0.1-0.2-0.5-0.1-0.6C409.1,163.9,407.5,160,408.6,156.4z"/>
	<path d="M250.6,160.3c0,2.1,0,4.3,0,6.4c0,1.8,0,3.6,0.6,5.4c0.5,1.6,0.2,2.4-1.7,2.4c-2.2-0.1-4.4-0.1-6.6-0.2
		c-0.5,0-0.8-0.3-0.7-0.8c0-0.4,0.3-0.7,0.7-0.6c1.6,0.4,3.1-0.7,4.8-0.2c1.5,0.4,2.1-0.1,2.1-1.8c-0.1-3.5,0-7,0-10.5
		C250,160.3,250.3,160.3,250.6,160.3z"/>
	<path d="M273.3,145.9c0,7.9,0,15.8,0,23.6c0,1.3,0.1,2.5,0.2,3.8c0,0.4,0,0.9-0.5,1c-0.7,0.1-0.8-0.5-0.8-1c0-1.1,0.6-2.5,0.1-3.3
		c-1.3-1.9-0.2-4.2-1.1-6.1c-0.3-0.6,0.2-1.6,0.4-2.4c1.2-5.2,0.8-10.4,1-15.6C272.9,145.9,273.1,145.9,273.3,145.9z"/>
	<path d="M29.8,172.7c-0.8-2,0.2-2.7,1.9-3.2c-0.3,1.7-0.9,3.2-0.2,4.8c0.2,0.4-0.4,0.5-0.7,0.5c-1.4,0.1-2.5,0.7-4.2,1.6
		c1-1.3,2.2-2.4,0.1-2.9c-0.4-0.1-0.5-0.5-0.3-0.9c0.1-0.4,0.4-0.7,0.9-0.8C28.2,171.6,29,172,29.8,172.7z"/>
	<path d="M97.2,144.1c1.1,1.6,0.4,3.1,0.4,4.4c0,3.5-0.2,7-0.4,10.4c0,0.5,0.2,1.1-0.6,1.1c-0.6,0-0.7-0.6-0.7-1.1
		c-0.2-1.4,0.7-2.7,0.7-4.1c-0.1-2.7,0-5.4,0.1-8.2C96.7,145.8,96.7,145,97.2,144.1z"/>
	<path d="M255.2,173.6c0.5,0.8,1.7,1.2,1.5,2.5c-0.8-0.5-1.5-1.1-2.3-1.3c-0.9-0.3-1.6-0.8-1.5-1.7c0.1-1.1,1.3-1,2-1
		c1.2,0,2.4,0.3,3.6,0.6c0.5,0.1,0.9,0.6,0.8,1.1c-0.1,0.8-0.9,0.5-1.4,0.6C257,174.5,256.4,173.4,255.2,173.6z"/>
	<path d="M307.1,150c0,1.7,0,3.1,0,4.5c-0.2,6.4-0.5,12.7,0.5,19.1c0.1,0.3,0.3,0.7-0.2,0.8c-0.5,0.1-0.8-0.1-0.8-0.6
		c0-1.3,0-2.7,0-4c0.1-5.9,0.1-11.8-0.1-17.7C306.5,151.5,306.3,150.9,307.1,150z"/>
	<path d="M11.3,163.2c1,3.4,0.2,6.8,0.5,10.2c0,0.5-0.2,1-0.8,0.9c-0.6-0.1-0.8-0.6-0.8-1.1C10.5,169.9,10.9,166.6,11.3,163.2z"/>
	<path d="M318.1,174.3c-0.4-3.8,0.1-7.6,0.6-11.4c0,3.8,0,7.5,0,11.3C318.4,174.2,318.2,174.2,318.1,174.3z"/>
	<path d="M275,174c1.6-1,3.3-2,5.3-0.8c0.3,0.2,0.7,0.3,0.6,0.7c-0.1,0.4-0.5,0.4-0.9,0.4C278.3,174.2,276.7,174.6,275,174z"/>
	<path d="M133,120.1c-0.6-1.6-0.6-2.9-1.8-3.8c-0.3-0.2-0.3-0.9,0.2-1.3c0.4-0.3,0.8-0.1,1.2,0.1C134,115.9,134.2,117.4,133,120.1z"
		/>
	<path d="M193.3,166.1c0.2,2.5,0.4,4.5,0.6,6.6c0,0.6,0.2,1.4-0.6,1.6c-0.3,0.1-0.9,0.1-1.2-0.2c-0.6-0.5-0.8-1.5-0.3-1.9
		C193.6,170.7,192.8,168.4,193.3,166.1z"/>
	<path d="M368.2,162.9c-0.1,3.7,1.2,7.3,0.2,11.5C367,170.2,368.3,166.5,368.2,162.9z"/>
	<path d="M308.8,140.8c2.1,0,4.1,0,6.5,0C312.9,143.7,310.8,141.5,308.8,140.8z"/>
	<path d="M214.5,111.8c-0.1,0.6,0,1.6-0.8,1.6c-1.1,0-1.4-1-1.4-1.9c0-0.6,0-1.6,1-1.5C214.2,110,214.5,110.8,214.5,111.8z"/>
	<path d="M34.3,161.9c-0.5,2.2,1.8,3.9,1.1,6.4C33.5,166.2,33.6,164.1,34.3,161.9z"/>
	<path d="M41.3,115c-0.8-1.1-1.2-1.7-1.7-2.3c-0.5-0.6-0.5-1.1,0-1.7c0.3-0.4,0.6-0.6,1.1-0.5c0.7,0.2,0.7,0.8,0.7,1.4
		C41.3,112.8,41.3,113.7,41.3,115z"/>
	<path d="M359.4,151.9c-1.3,0.2-1.8,2.5-3.6,1.2c-0.3-0.2-0.7-0.3-0.5-0.7c0.1-0.2,0.4-0.4,0.6-0.5
		C357,151.8,358.2,151.3,359.4,151.9z"/>
	<path d="M368.4,158.6c-0.8-1.5-0.7-3-0.1-4.6C369.2,155.6,368.9,157.1,368.4,158.6z"/>
	<path d="M382.6,173.4c-0.1,0.6-0.3,1.2-0.9,1.2c-0.5,0-1-0.4-0.9-1c0.1-0.7,0.7-1.1,1.3-1.2C382.7,172.3,382.6,173,382.6,173.4z"/>
	<path d="M350.9,150.1c-1.6,0.1-3.1,0.3-4.7-0.4C347.8,149.6,349.4,148.9,350.9,150.1C350.8,150.1,350.9,150.1,350.9,150.1z"/>
	<path d="M122.3,171.3c-0.2,0.6-0.7,0.8-1.3,0.8c-0.7-0.1-0.6-0.5-0.6-1.1c-0.1-1,0.5-0.6,0.8-0.6
		C121.8,170.3,122.3,170.6,122.3,171.3z"/>
	<path d="M131.2,124.4c0.2,0.8,0.4,1.7,0.6,2.5c0.1,0.4,0,0.7-0.5,0.8c-0.4,0-0.7-0.3-0.7-0.6c0-0.9,0.1-1.7,0.1-2.6
		C131,124.5,131.1,124.5,131.2,124.4z"/>
	<path d="M39.3,140.4c-0.6-1.5-0.8-3,0-4.8C39.3,137.5,39.3,138.9,39.3,140.4z"/>
	<path d="M165,112.2c0.7,0.8,0.8,1.4,0.4,2.2c0,0.1-0.5,0.1-0.5,0C164.4,113.7,164.5,113,165,112.2z"/>
	<path d="M144.5,121.4c-0.8,0.9,0.2,1.9-1,2.3c-0.2,0.1-0.9-0.4-0.9-0.6C142.6,122.3,143.1,121.7,144.5,121.4z"/>
	<path d="M26.5,261.4c-2.2,0.1-4.2,0.4-6.1,0.1c-0.5-0.1-1.1,0-1.2-0.6c-0.1-0.6,0.4-1,0.9-1c2.1-0.3,2.5-1.8,2.6-3.6
		c0.5-8.6,0.4-17.2,0.3-25.8c0-1.2,0-2.3,0-3.8c1.6,1.2,2.1,2.3,1.3,4c-1.2,2.5-0.2,5.3-0.3,7.9c-0.2,5.5-0.2,10.9-0.1,16.4
		c0,1.7,0.5,3.4,0.7,5.2C24.7,261.1,25.7,261,26.5,261.4z"/>
	<path d="M204.9,224.9c0.8,1.1,0.6,2.3,0.6,3.4c-0.2,8.5-0.3,17,0.1,25.6c0.1,2,0.7,4,0.3,6c-0.1,0.6-0.1,1.5-0.9,1.5
		c-0.8,0-0.3-0.9-0.5-1.4c-0.8-2,0.4-3.8,0.3-5.8c-0.1-9.2,0-18.5,0-27.7C204.9,226,204.9,225.4,204.9,224.9z"/>
	<path d="M288.2,244.3c0.1-1.3-1.5-2.5,0-3.8c0.3-0.3-0.2-0.7-0.4-1.1c-0.5-0.8-0.9-1.5,0.6-1.7c0.8-0.1,0.8-1,0.6-1.6
		c-0.8-2.1,0.2-4.1,0.1-6.4C289.9,235.1,290.6,240.9,288.2,244.3z"/>
	<path d="M193.6,255.5c0.8,2.3,1,2.5,3.5,3.1c-2.2,2.7-5.1,3.2-8.5,2.5c0.4-0.8,1.2-1,1.9-1.3C193.4,258.6,193.4,258.6,193.6,255.5z
		"/>
	<path d="M11.8,248.1c0.7,4.3-0.3,8.8,1.2,13.1c-0.5,0.4-1.2,0.3-1.8,0.1c-0.3-0.1-0.8-0.2-0.8-0.6
		C11.2,256.6,11.1,252.3,11.8,248.1z"/>
	<path d="M147.1,261.7c-2,0.3-4.1,0.3-6.2-0.3c1.8-0.1,2-0.8,1.5-2.2c-0.3-1,0.6-1.6,1.3-1.1C145.1,259,146.5,260,147.1,261.7
		L147.1,261.7z"/>
	<path d="M39.2,255.9c0.5,1.3,1.5,2.1,1,3.7c-0.4,1.2-1,1.8-1.9,2.1c-0.4,0.2-2.1,1-1.3-1c0.1-0.2-0.1-0.7-0.3-0.9
		c-0.8-1-0.8-1.6,0.6-1.8C38.4,257.8,38.5,256.7,39.2,255.9z"/>
	<path d="M319,238.7c0.6,1.9,0.2,3.2,0.2,4.5c0,5.5,0,11,0,16.6c0,0.9,0.4,1.6,1.1,2.2c-1.8,0.9-2-0.1-1.9-1.4
		c0.4-5.2,0.6-10.3,0.4-15.5C318.8,243.1,318.5,241.1,319,238.7z"/>
	<path d="M182.7,257.9c0.6,1.4,1.7,2,3.1,2.1c0.4,0.1,1.1-0.1,1,0.7c-0.1,0.6-0.7,0.5-1.2,0.5c-0.2,0-0.4,0-0.6,0
		C181.8,261.4,181.7,261.3,182.7,257.9z"/>
	<path d="M261.8,254.2c0.8,2.7,0.2,5,1.2,7.1c-1.1,0.5-2.1,0.1-3.8,0.2C262.3,259.6,261.7,257.1,261.8,254.2z"/>
	<path d="M402.6,255.7c0-5.8,0-11.5,0-17.3C402.5,244.2,403.5,250,402.6,255.7z"/>
	<path d="M406.5,201.7c0.7,1.6,1.2,3.2,0.4,5C406.1,205,406.3,203.4,406.5,201.7z"/>
	<path d="M404.9,260.7c-1.2,0-2-0.8-3-1.3c-0.1,0,0-0.5,0-0.5c1.1-0.4,2.1,0.3,3.2,0.5c0.5,0.1,1,0.4,0.8,1
		C405.8,260.9,405.3,260.6,404.9,260.7z"/>
	<path d="M110,198.2c0.3,1,0.6,2-0.4,2.3c-0.9,0.3-1.8-0.4-2.7-0.8c-0.3-0.1-0.1-0.5,0.1-0.7c0.2-0.3,0.5-0.7,0.8-0.3
		C108.7,199.6,109.2,198.5,110,198.2z"/>
	<path d="M41.9,240.6c0.9,0.9,1.4,1.8,1.2,3c-0.1,0.5-0.2,1-0.8,1.1c-0.7,0-0.8-0.5-0.7-1.1C41.8,242.7,41.5,241.7,41.9,240.6z"/>
	<path d="M137.2,256.9c0.6,1.6-0.8,3.6,1.7,4c0.1,0,0.2,0.5,0.1,0.8c-0.1,0.4-0.5,0.4-0.8,0.4c-0.6-0.1-1.1-0.3-1.2-1
		C136.7,259.8,137.1,258.6,137.2,256.9z"/>
	<path d="M177.9,198.6c0.3,0.7,0.5,1.4,0.8,2c0.2,0.4,0.7,0.7,0,1c-0.5,0.3-1.1,0.1-1.2-0.5c-0.1-0.8,0-1.6,0-2.4
		C177.7,198.6,177.8,198.6,177.9,198.6z"/>
	<path d="M147.1,261.7c1.4-0.3,0.9-1.6,1.3-3c0.4,1.4,0.8,2.2,1.6,3C148.8,261.9,148,262.3,147.1,261.7
		C147.1,261.7,147.1,261.7,147.1,261.7z"/>
	<path d="M28.2,200.8c0.9-0.7,1.7-0.8,2.5-0.7c0.1,0,0.2,0.4,0.1,0.5C30.2,201.4,29.4,201.2,28.2,200.8z"/>
	<path d="M116.5,245.4c2-0.3,4-0.2,6,0.5C120.5,245.8,118.5,245.6,116.5,245.4z"/>
	<path d="M362.8,249.6c0.4,2,0.4,3.4,0,4.9C362.8,253,362.8,251.6,362.8,249.6z"/>
	<path d="M155.5,261.4c-1.2,0-2.3,0-3.6,0c1.2-1.9,2.4,0.2,3.5-0.2c0,0,0.1,0.1,0.1,0.1C155.5,261.4,155.5,261.4,155.5,261.4z"/>
	<path d="M345.3,326.6c0-3.3,0-6.7,0-10c0-0.4-0.2-1.2,0.5-1.2c0.6,0,1.1,0.4,1.7,0.5c0.5,0.1,0.2,0.9,0.2,1.3
		c0,0.4-0.9,0.2-0.7,0.8c1.1,3.2,0.5,6.4,0.4,9.6c0,1.1,0.2,2.1-0.2,3.2c-0.5,1.3-0.5,2.7,0.1,4.1c0.3,0.5,0.5,1.2-0.1,1.5
		c-0.8,0.4-0.7-0.5-0.9-1C344.8,332.7,345.1,329.6,345.3,326.6z"/>
	<path d="M420.3,318.4c0,3-0.1,5.9,0,8.9c0.1,6.8-0.1,13.6,0.7,20.3c0.1,1,0.5,2.3-0.7,2.8c-1.2,0.5-2.8,0.2-3.8-0.4
		c-1.2-0.7-0.3-2.3-0.5-3.5c-0.1-0.8,0.6-0.7,1.1-0.8c1.8-0.4,2.3-1.8,2.3-3.4c0.2-7.1,0.3-14.1-0.1-21.2c0-0.9-0.3-1.8,0.1-2.7
		C419.8,318.4,420,318.4,420.3,318.4z"/>
	<path d="M23.1,309.1c0,10.8,0,21.7,0,32.5c0,2.3,0.6,4.4,1.4,6.5c0.5,1.3,1.2,2.2,2.5,0.8c0.5-0.5,1.3-0.6,1.3,0
		c-0.1,1.7,1.2,1.2,1.7,1.3c-2.3,0-4.8,0-7.3,0c-0.3,0-0.6-0.2-0.8-0.1c-2.9,1.3-3.1-1.2-4.5-3.2c1.2,0.6,1.4,1.7,2.3,1.6
		c2.5-0.3,2.9,0.3,2.9-2.8c0-12.2,0-24.5,0-36.7C22.8,309.1,23,309.1,23.1,309.1z"/>
	<path d="M88.9,350.5c0.1-0.1,0.2-0.3,0.2-0.3c-0.3-1.6,1.2-2.6,1.3-3.9c0.2-1.7,0.2-3.3,0.2-5c0-8.4,0-16.9,0-25.3
		c0.2,0,0.4,0,0.7,0c0,6.6,0,13.3,0,19.9c0,4.2,0.2,8.4,0.4,12.6C91.8,350.5,90.8,350.9,88.9,350.5z"/>
	<path d="M239.3,324.9c0,2.8,0.1,5.6,0,8.3c-0.1,3.8,0.7,7.5,0.3,11.3c0,0.4,0,0.9,0.3,1.2c1.7,1.5,0.8,3.1,0.4,4.7
		c-0.1,0.5-0.2,1.1-0.8,1c-0.7-0.1-0.5-0.7-0.5-1.2c0-3.4,0-6.8,0-10.3c0-5,0-10.1,0-15.1C239,324.9,239.2,324.9,239.3,324.9z"/>
	<path d="M340,351.4c0-6.8,0-13.5,0-20.3c0.1,0,0.3,0,0.4,0c0,6.8,0,13.5,0,20.3C340.3,351.5,340.2,351.4,340,351.4z"/>
	<path d="M184.2,304.2c0.1-4.6-0.4-9.2,0.7-13.8c0,4.6,0,9.2,0,13.8C184.7,304.2,184.4,304.2,184.2,304.2z"/>
	<path d="M384,348.7c-0.1,1.1-0.3,2-1.7,1.9c-0.6-0.1-1.6-0.1-1.3-0.8c0.4-1,1.2-1.9,2.3-2.2C384.1,347.3,383.9,348.2,384,348.7z"/>
	<path d="M217,351.5c-0.8-5-0.2-10-0.2-15.1C217,341.4,216.9,346.4,217,351.5z"/>
	<path d="M12.9,355c1,0.7,1.5,1.5,2,2.4c0.4,0.7,0.2,1.3-0.4,1.8c-0.4,0.3-0.8,0.4-1.1,0c-0.3-0.3-0.4-0.7,0.1-1
		c0.5-0.4,0.5-0.5-0.1-0.9c-0.7-0.4-0.7-1.1-0.7-1.8C12.6,355.4,12.8,355.2,12.9,355z"/>
	<path d="M340.2,319.9c-0.4-2-0.3-4.1,0-6.1C340.7,315.9,340.5,317.9,340.2,319.9z"/>
	<path d="M422.4,349.7c1.6-0.3,2.6-1.5,4-0.8c0.3,0.2,0.7,0.3,0.6,0.7c0,0.4-0.4,0.6-0.7,0.6C425.1,350.4,423.9,350.6,422.4,349.7z"
		/>
	<path d="M134.9,323.6c0.4,2.5,0.4,5-0.8,7.3C134.4,328.5,134.7,326.1,134.9,323.6z"/>
	<path d="M146.5,311.7c-2.1,0.9-4,0.4-6,0.1c0-0.2,0-0.4,0-0.6C142.5,311.4,144.5,311.6,146.5,311.7z"/>
	<path d="M166.3,335.2c0.1-1.6-0.4-3.3,0.3-5.1C167.7,332,166.7,333.6,166.3,335.2z"/>
	<path d="M129.9,310.4c1.1,1.6,0.8,2.9,0.1,4.8C129.4,313.3,129.5,312,129.9,310.4z"/>
	<path d="M233.2,342.1c-0.2-0.6-0.1-1.1,0.6-1.1c0.8,0,0.8,0.8,0.9,1.4c0.1,0.7-0.1,1.4-0.8,1.4
		C232.9,343.7,233.5,342.6,233.2,342.1z"/>
	<path d="M135.9,308.2c-0.4-1.5-0.5-3-0.1-4.6C136.4,305.1,136.1,306.6,135.9,308.2z"/>
	<path d="M382.7,299.1c-0.5-1-0.4-1.7-0.3-2.4c0-0.5-0.2-1.4,0.7-1.3c0.7,0.1,0.9,0.9,0.7,1.5C383.6,297.7,383.1,298.3,382.7,299.1z
		"/>
	<path d="M419.8,314.6c-0.5-1.4-0.5-2.9-0.3-4.4C420.2,311.6,419.9,313.1,419.8,314.6z"/>
	<path d="M176.6,319.4c0.3,0.9,0.5,1.8-0.3,2.5c-0.1,0.1-0.5-0.1-0.5-0.2C175.4,320.8,176.1,320.1,176.6,319.4z"/>
	<path d="M14.8,352.5c0.7-1.4,1.7-0.4,2.6-0.6c0.4-0.1,0.3,0.3,0.2,0.6c-0.2,0.3-0.5,1-0.8,0.5C16.2,352.1,15.4,353.2,14.8,352.5z"
		/>
	<path d="M405.7,346.7c-0.7,1-1.6,0.8-2.5,0.8c0,0-0.1-0.4,0-0.5C404,346.1,404.7,346.3,405.7,346.7z"/>
	<path d="M53.1,119c0.7,0.4,0.7,0.9,0.7,1.4c0,0.7,0.3,1.6-0.5,2.1c-0.1,0.1-0.5-0.1-0.5-0.2c-0.3-0.7-1-1.4-0.1-2.3
		C52.9,119.9,52.9,119.5,53.1,119z"/>
	<path d="M368.3,335.8c-0.8-5.2-0.9-10.5-1-15.8c0-0.8,0.1-1.5,0.3-2.3c0.1-0.5,0.2-1.3,1-1c0.8,0.3,0.7,1,0.5,1.6
		c-0.1,0.4-0.4,0.7-0.6,1.1c-0.8,1.2-1,2.4-0.1,3.7c0.5,0.7,0.8,1.4,0.5,2.2c-1.3,2.8,0.5,5.3,0.9,7.8c0.3,1.7-0.3,3.1-0.3,4.6
		c0,0.4-0.4,0.6-0.8,0.5c-0.5-0.1-0.7-0.4-0.6-0.9C368.1,336.8,368.2,336.3,368.3,335.8z"/>
	<path d="M368.7,298.5c0.4,0.9,0.8,1.9,1.2,2.9c0.6-0.6,0.1-1.5,0.9-1.8c0.5,0.2,0.3,0.6,0.4,0.9c0.1,1,0.2,1.9-0.8,2.6
		c-0.5,0.3-0.9,0.2-1.3-0.1c-0.9-0.7-1-1.6-0.8-2.6c0.1-0.6,0.1-1.2,0.1-1.8C368.5,298.5,368.6,298.5,368.7,298.5z"/>
	<path d="M43.4,300.7c-1.1-0.6-2.3-0.5-3.4-0.3c-0.9,0.2-1.7,0.2-2.5-0.3C39.4,300.3,41.5,299.2,43.4,300.7
		C43.3,300.8,43.4,300.7,43.4,300.7z"/>
</g>
</svg>
