<svg id="Layer_1" data-name="Layer 1" xmlns="http://www.w3.org/2000/svg" viewBox="0 0 479.47 91.68"><title>logo</title><path d="M0,42.67c2.54-.43,4.85-.81,7.15-1.21a7.3,7.3,0,0,1,5.51,1c2.49,1.71,5.14,3.34,7.13,5.54a3.2,3.2,0,0,0,4,1.11,2.23,2.23,0,0,1,.53,0,6.36,6.36,0,0,1,.4,1.74c-.18,3.47-.58,6.87-2.57,9.93a9.72,9.72,0,0,0-1.27,4,2.93,2.93,0,0,0,1,2.1C28,72,34.09,77.1,40.2,82.19a4.22,4.22,0,0,0,1.27.64c4.1,1.44,8.21,2.83,12.29,4.32A6.45,6.45,0,0,1,56,88.71a1.85,1.85,0,0,1,.34,1.62A1.63,1.63,0,0,1,55,91c-3.58-.34-7.16-.73-10.73-1.19-9.87-1.27-19.74-2.54-29.6-3.9-4.34-.6-8.75-.83-12.9-2.55A2.38,2.38,0,0,1,0,80.75C.07,68.48,0,56.21,0,43.93Z"/><path d="M69.66,32.12c.15,2.91-.37,3.61-3.21,4.42a3.43,3.43,0,0,0-1.36.61c-1.93,1.73-4.2,1.7-6.52,1.25a19.4,19.4,0,0,0-6.81-.59c-3,.46-7-3.5-6.88-6.42a2.17,2.17,0,0,1,.95-1.45c2.65-1.7,5.34-3.33,8-5,2.26-1.37,4.46-1.08,6.73.1a19.33,19.33,0,0,0,4.5,1.77C68.82,27.72,69.46,28.35,69.66,32.12Z"/><path d="M116.2,4.22c1.55.2,1.57,1,1,2.11-1.76,3.08-3.66,6.08-5.26,9.24a33.23,33.23,0,0,0-1.7,5.31L109,24.76c-2.3-.6-2.6-1-2.84-3a3.66,3.66,0,0,0-.9-2c-1.18-1.26-2.61-2.29-3.71-3.61a16.89,16.89,0,0,1-1.94-3.49A4.86,4.86,0,0,1,99,10.86a8,8,0,0,1,.18-3.22,11,11,0,0,1,6.19-6c1.81-.78,4.09-.45,5.94-1.61.18-.12.73.36,1.11.55s1,.7,1.46.69C116.55,1.18,116.86,1.5,116.2,4.22Z"/><path d="M114.32,61.85V90.67h-.9q-1.76,0-5.19.33v-.49a4.06,4.06,0,0,0,2.62-1.62c.8-1,1.2-3,1.2-6V69.53a12.35,12.35,0,0,0-.84-5.38,4.43,4.43,0,0,0-3-2.14v-.49Q111.86,61.79,114.32,61.85Zm4,28.82h-2V61.85c.46,0,.81,0,1.07,0,1,0,2-.1,3-.19a19.38,19.38,0,0,1,2.11-.11q4.86,0,7.16,2.55a9.26,9.26,0,0,1,2.27,6.39,8.13,8.13,0,0,1-2.49,6.24A9,9,0,0,1,123,79.08a13.55,13.55,0,0,1-4.43-.77v4.87a10.56,10.56,0,0,0,1,5.28,4.11,4.11,0,0,0,3.25,2.05V91c-.77-.11-1.71-.19-2.84-.25Zm.21-20.37v6a10.33,10.33,0,0,0,4,.79,6.63,6.63,0,0,0,5.2-1.91,7,7,0,0,0,1.72-4.81,7.28,7.28,0,0,0-1.72-5q-1.73-2-5.39-2a5.37,5.37,0,0,0-3,.63C118.84,64.48,118.53,66.56,118.53,70.3ZM131,77.93a10.13,10.13,0,0,0,3-7.33,11.23,11.23,0,0,0-3-7.79q5.49,2.2,5.49,7.54T131,77.93Z"/><path d="M145.11,64.42q-3,4.65-3,11.9A21.73,21.73,0,0,0,145,87.69q-5.53-3.63-5.53-11.65Q139.45,67.82,145.11,64.42Zm23,11.7a20.91,20.91,0,0,1-1.54,8.51,10.66,10.66,0,0,1-4.23,5.08,11.65,11.65,0,0,1-6.27,1.67,10.45,10.45,0,0,1-8.8-4.07q-3.12-4.08-3.12-11.21,0-7.41,3.17-11.38a10.6,10.6,0,0,1,8.7-3.91,10.9,10.9,0,0,1,8.86,3.91Q168.14,68.61,168.14,76.12Zm-2.57,0q0-13.1-9.52-13.1-9.33,0-9.32,13.43,0,12.63,9.43,12.63T165.57,76.15Zm1.58,11.7q3-4,3-12.19,0-7.2-2.95-11.21,5.63,3.36,5.63,11.51T167.15,87.85Z"/><path d="M176.2,61.52l5.77.33V90.67h-1.69a32.86,32.86,0,0,0-4.08.33v-.49A4.66,4.66,0,0,0,179,88a15.74,15.74,0,0,0,.74-5.68V69.21q0-4.18-1.09-5.53A4.58,4.58,0,0,0,176.2,62Zm20.4,29.15H183.94V61.85c1.24,0,2.63-.11,4.16-.22l2-.11V62a4.47,4.47,0,0,0-3,2.16,10.93,10.93,0,0,0-.88,5V81a37.78,37.78,0,0,0,.27,4.78,6.18,6.18,0,0,0,.58,2.55c.2.22.73.32,1.58.32h5.75a11.61,11.61,0,0,0,5-1,8.33,8.33,0,0,0,3.5-3.78h.54a22.63,22.63,0,0,1-1.23,4.16,17.53,17.53,0,0,0-.87,2.9A32.35,32.35,0,0,0,196.6,90.67Z"/><path d="M226.57,84.05,224.14,79H213.83l-2.6,5.08-.14.36s-.15.28-.41.79a5.25,5.25,0,0,0-.57,2.35,3.06,3.06,0,0,0,2.3,3V91c-.31,0-.85,0-1.62-.14a24.22,24.22,0,0,0-2.9-.19,26.13,26.13,0,0,0-2.89.19c-.79.09-1.31.14-1.56.14v-.49q3-1.53,5.47-6.32L218,66.53a7.84,7.84,0,0,0-2.85-3.26A8.7,8.7,0,0,0,210.87,62v-.49h1c.86,0,2,.06,3.53.17s2.59.16,3.06.16l13.81,28.82q-2.65.06-6.37.33v-.49a2.15,2.15,0,0,0,2.08-2.25A11.09,11.09,0,0,0,226.57,84.05Zm-11.68-7.13h8.26l-4-8.32Zm19.53,13.75L220.61,61.85h2.68c.36.95.87,2.14,1.53,3.58s1.14,2.47,1.23,2.76a4.58,4.58,0,0,1,.25.58l6.42,13.31c2.24,4.64,4.63,7.44,7.17,8.43V91C237.41,90.78,235.58,90.67,234.42,90.67Z"/><path d="M248.39,61.85V90.67h-1.18c-.45,0-1.17.06-2.16.16a22.91,22.91,0,0,1-3,.17v-.49a4.07,4.07,0,0,0,2.9-1.73c.76-1,1.15-3,1.15-5.9V68.82q0-6-4.05-6.81v-.49C243.27,61.65,245.36,61.76,248.39,61.85Zm2.79,28.82h-.79V61.85c1.09,0,2.26,0,3.5-.14,1.42-.12,2.57-.19,3.47-.19a6.72,6.72,0,0,1,5.58,2.3,8.63,8.63,0,0,1,1.83,5.6q0,5.67-4.79,7.25a9.32,9.32,0,0,1,4,1.42,43.67,43.67,0,0,1,5.22,4.71q5.32,5.4,8.69,5.41a2.49,2.49,0,0,0,1.4-.47l.11.5a3.61,3.61,0,0,1-3,1.42A7.77,7.77,0,0,1,272,88.1a52.17,52.17,0,0,1-6.37-5.8q-5.08-5.25-9.89-5.25,3,.93,8.06,6.27a62.66,62.66,0,0,0,5.74,5.41,6.94,6.94,0,0,0,4.19,1.69v.25a5.45,5.45,0,0,1-1.83.33,7.94,7.94,0,0,1-4.6-1.34,26.75,26.75,0,0,1-2.64-2.26q-1.59-1.52-3.84-3.92A53.8,53.8,0,0,0,256,78.72a11.05,11.05,0,0,0-3.3-1.8V83.4q0,6.52,3.93,7.11V91C254.41,90.78,252.6,90.67,251.18,90.67Zm1.48-21.3V75.3a13.83,13.83,0,0,0,3.5.41q6.15,0,6.15-6.39,0-6-6.1-6a5.13,5.13,0,0,0-3.06.79C252.82,64.85,252.66,66.6,252.66,69.37ZM265,75.28a11.37,11.37,0,0,0,1.78-6.21,11.23,11.23,0,0,0-2.05-6.21q4.69,2,4.7,6.29C269.47,72.05,268,74.09,265,75.28Z"/><path d="M282.19,91.68l19.25-34.37h2.4L284.57,91.68Z"/><path d="M314.78,61.85V90.67h-.9c-1.17,0-2.9.11-5.2.33v-.49a4.05,4.05,0,0,0,2.63-1.62c.8-1,1.2-3,1.2-6V69.53a12.17,12.17,0,0,0-.85-5.38,4.41,4.41,0,0,0-3-2.14v-.49Q312.33,61.79,314.78,61.85Zm4,28.82h-2V61.85c.45,0,.81,0,1.06,0,1,0,2-.1,3-.19a19.38,19.38,0,0,1,2.11-.11q4.86,0,7.16,2.55a9.31,9.31,0,0,1,2.27,6.39,8.13,8.13,0,0,1-2.49,6.24,9,9,0,0,1-6.48,2.38,13.5,13.5,0,0,1-4.43-.77v4.87a10.68,10.68,0,0,0,1,5.28,4.12,4.12,0,0,0,3.26,2.05V91c-.77-.11-1.72-.19-2.85-.25ZM319,70.3v6a10.33,10.33,0,0,0,4.05.79,6.61,6.61,0,0,0,5.19-1.91A7,7,0,0,0,330,70.33a7.23,7.23,0,0,0-1.73-5c-1.14-1.31-2.94-2-5.38-2a5.4,5.4,0,0,0-3,.63C319.29,64.48,319,66.56,319,70.3Zm12.42,7.63a10.17,10.17,0,0,0,3-7.33,11.28,11.28,0,0,0-3-7.79q5.49,2.2,5.49,7.54T331.41,77.93Z"/><path d="M356.18,84.05,353.75,79H343.44l-2.6,5.08-.14.36s-.15.28-.41.79a5.25,5.25,0,0,0-.57,2.35,3.06,3.06,0,0,0,2.29,3V91c-.31,0-.84,0-1.61-.14a24.22,24.22,0,0,0-2.9-.19,26.44,26.44,0,0,0-2.9.19c-.78.09-1.3.14-1.55.14v-.49q3-1.53,5.46-6.32l9.08-17.66a7.84,7.84,0,0,0-2.85-3.26A8.7,8.7,0,0,0,340.48,62v-.49h1c.86,0,2,.06,3.53.17s2.59.16,3.06.16l13.81,28.82q-2.65.06-6.37.33v-.49a2.15,2.15,0,0,0,2.08-2.25A11.09,11.09,0,0,0,356.18,84.05ZM344.5,76.92h8.26l-4-8.32ZM364,90.67,350.22,61.85h2.68c.36.95.87,2.14,1.53,3.58s1.14,2.47,1.23,2.76a4.58,4.58,0,0,1,.25.58l6.42,13.31c2.24,4.64,4.63,7.44,7.17,8.43V91C367,90.78,365.19,90.67,364,90.67Z"/><path d="M370.56,61.85l31.5,26.91V91h-.55L376.74,69.92V82.63c0,2.77.36,4.7,1.07,5.77a5.09,5.09,0,0,0,3.36,2.11V91c-2.75-.22-4.62-.33-5.6-.33s-2.79.11-5,.33v-.49a4.47,4.47,0,0,0,3.2-2.22q.86-1.67.85-5.9l0-14.28-2-1.67A22.84,22.84,0,0,0,365.67,62v-.49Zm31.5,24.23L373.65,61.85h3.23l23,19.58V70.08a18.85,18.85,0,0,0-.38-4.37,4.61,4.61,0,0,0-1.56-2.44,6.31,6.31,0,0,0-3-1.26v-.49l1,.08c2.39.17,4,.25,4.87.25s2.65-.11,5.6-.33V62a4.46,4.46,0,0,0-2.48,1.18,4.74,4.74,0,0,0-1.43,2.3,15.76,15.76,0,0,0-.38,3.91Z"/><path d="M415.41,61.85V90.67q-1.95,0-6.1.33v-.49a4.44,4.44,0,0,0,3-2.46c.56-1.21.85-3.7.85-7.5V69.26a11.39,11.39,0,0,0-.85-5.06,4.72,4.72,0,0,0-3-2.19v-.49Q412.87,61.79,415.41,61.85ZM419,90.67h-1.66V61.85c2.51-.05,4.27-.12,5.27-.19,1.52-.09,2.56-.14,3.12-.14a12.52,12.52,0,0,1,7,1.89,12.07,12.07,0,0,1,4.32,5,18.21,18.21,0,0,1,1.42,7.71q0,7.11-3.41,11A11.88,11.88,0,0,1,425.74,91q-2.73,0-6.18-.3A3.12,3.12,0,0,0,419,90.67Zm1-26.28q-.44,1.23-.43,8.62v6.67a34.68,34.68,0,0,0,.79,8.75,16.09,16.09,0,0,0,4.81.65,10.21,10.21,0,0,0,8-3.19q2.93-3.24,2.92-9.49t-2.89-9.52c-1.94-2.26-4.78-3.39-8.54-3.39A9.93,9.93,0,0,0,420.05,64.39ZM436,88.54q4.53-3.48,4.54-12,0-8.37-3.72-11.82a13.37,13.37,0,0,1,6.29,11.73Q443.08,84.3,436,88.54Z"/><path d="M466.16,84.05,463.72,79H453.41l-2.59,5.08-.14.36s-.16.28-.41.79a5.26,5.26,0,0,0-.58,2.35,3.07,3.07,0,0,0,2.3,3V91c-.31,0-.85,0-1.61-.14a24.35,24.35,0,0,0-2.9-.19,26.44,26.44,0,0,0-2.9.19c-.78.09-1.3.14-1.56.14v-.49q3-1.53,5.47-6.32l9.08-17.66a7.86,7.86,0,0,0-2.86-3.26A8.66,8.66,0,0,0,450.46,62v-.49h1c.85,0,2,.06,3.52.17s2.59.16,3.07.16l13.81,28.82q-2.65.06-6.38.33v-.49a2.15,2.15,0,0,0,2.08-2.25A11,11,0,0,0,466.16,84.05Zm-11.68-7.13h8.26l-4-8.32ZM474,90.67,460.19,61.85h2.68c.37.95.88,2.14,1.54,3.58s1.13,2.47,1.23,2.76a3.49,3.49,0,0,1,.24.58l6.43,13.31c2.24,4.64,4.63,7.44,7.16,8.43V91C477,90.78,475.17,90.67,474,90.67Z"/></svg>