<?xml version="1.0" encoding="utf-8"?>
<!-- Generator: Adobe Illustrator 22.0.1, SVG Export Plug-In . SVG Version: 6.00 Build 0)  -->
<svg version="1.1" id="Layer_1" xmlns="http://www.w3.org/2000/svg" xmlns:xlink="http://www.w3.org/1999/xlink" x="0px" y="0px"
	 viewBox="0 0 117.6 91.2" style="enable-background:new 0 0 117.6 91.2;" xml:space="preserve">
<style type="text/css">
	.st0{fill:#FFFFFF;}
</style>
<g>
	<path class="st0" d="M117.6,5.8c0,28.5,0,57,0,85.4c-39.2,0-78.4,0-117.6,0c0-3.2,0-6.4,0-9.6c0.7,0.6,1.4,1.4,2.2,1.9
		c1,0.5,2.2,0.8,3.3,1c3.5,0.6,6.9,1.1,10.4,1.6c5.1,0.7,10.2,1.4,15.3,2.1c4.7,0.6,9.4,1.2,14.1,1.8c3.1,0.4,6.3,0.7,9.4,1
		c0.5,0,1.5-0.3,1.6-0.7c0.2-0.5-0.1-1.4-0.5-1.8c-0.6-0.6-1.4-1.1-2.2-1.4c-2.4-0.9-4.9-1.7-7.3-2.6c-2.2-0.9-4.7-1.4-6.5-2.8
		c-6-4.7-11.8-9.8-17.7-14.7c-0.9-0.8-1.4-1.8-1-3c0.4-1.2,0.8-2.5,1.5-3.6c1.7-3.1,2.2-6.4,2.2-9.8c0-1.4-0.2-1.5-1.6-1.2
		c-1.2,0.2-2.1-0.2-2.9-1c-2.5-2-5-4.1-7.6-6c-1.3-1-2.9-1.3-4.4-1.1c-2.7,0.4-5.4,0.9-8.1,1.4C0,28.5,0,14.2,0,0
		c37,0,74.1,0,111.1,0c-0.9,0.3-1.7,0.8-2.6,0.9c-3.7,0.5-6.6,2.1-8.5,5.3c-1.3,2.1-1.3,4.2-0.4,6.4c1,2.4,2.5,4.4,4.5,6.1
		c1.1,0.9,1.9,1.9,2.1,3.3c0.3,2,0.7,2.4,2.8,2.7c0.7-2.3,1.1-4.8,2.2-7C113.2,13.6,115.5,9.7,117.6,5.8z M69.6,32.3
		c-0.2-4.1-0.5-4.4-4.5-5.5c-1.6-0.4-3.1-1.1-4.5-1.8c-2.2-1-4.3-1.5-6.5-0.2c-2.7,1.6-5.4,3.3-8.1,5.1c-0.5,0.3-1,1.1-1.1,1.7
		c-0.1,2.8,3.9,6.3,6.7,6.2c2.2,0,4.4,0.1,6.5,0.5c2.6,0.5,5,0.5,7.1-1.3c0.4-0.3,0.9-0.4,1.4-0.6C69.3,35.7,69.8,35,69.6,32.3z"/>
	<path d="M0,42.7c2.7-0.5,5.4-1,8.1-1.4c1.6-0.2,3.2,0.1,4.4,1.1c2.6,1.9,5.1,4,7.6,6c0.9,0.7,1.8,1.2,2.9,1
		c1.4-0.3,1.6-0.2,1.6,1.2c0,3.4-0.5,6.7-2.2,9.8c-0.6,1.1-1,2.4-1.5,3.6c-0.4,1.2,0.1,2.2,1,3c5.9,4.9,11.7,10,17.7,14.7
		c1.8,1.4,4.3,2,6.5,2.8c2.4,0.9,4.9,1.7,7.3,2.6c0.8,0.3,1.6,0.8,2.2,1.4c0.4,0.4,0.7,1.3,0.5,1.8c-0.1,0.4-1.1,0.7-1.6,0.7
		c-3.1-0.3-6.3-0.6-9.4-1c-4.7-0.6-9.4-1.2-14.1-1.8C26.1,87.4,21,86.7,15.9,86c-3.5-0.5-6.9-1-10.4-1.6c-1.1-0.2-2.3-0.5-3.3-1
		C1.4,83,0.7,82.2,0,81.6C0,68.6,0,55.7,0,42.7z"/>
	<path d="M117.6,5.8c-2.1,3.9-4.4,7.8-6.3,11.9c-1,2.2-1.5,4.7-2.2,7c-2.1-0.3-2.5-0.7-2.8-2.7c-0.2-1.4-1.1-2.5-2.1-3.3
		c-2-1.6-3.5-3.6-4.5-6.1c-0.9-2.2-0.9-4.3,0.4-6.4c2-3.2,4.9-4.8,8.5-5.3c0.9-0.1,1.7-0.6,2.6-0.9c0.2,0,0.3,0,0.5,0
		c0.9,0.4,1.7,1.1,2.6,1.2c2.3,0.3,2.3,0.2,2.2,2.5c0,0.1,0,0.2,0,0.4c0.4,0.2,0.8,0.4,1.2,0.7C117.6,5.1,117.6,5.4,117.6,5.8z"/>
	<path class="st0" d="M117.6,4.8c-0.4-0.2-0.8-0.4-1.2-0.7c0-0.1,0-0.2,0-0.4c0.2-2.3,0.2-2.2-2.2-2.5c-0.9-0.1-1.8-0.8-2.6-1.2
		c2,0,4,0,6,0C117.6,1.6,117.6,3.2,117.6,4.8z"/>
	<path d="M69.6,32.3c0.1,2.7-0.4,3.4-2.9,4.1c-0.5,0.1-1,0.3-1.4,0.6c-2.1,1.8-4.5,1.7-7.1,1.3c-2.1-0.4-4.3-0.5-6.5-0.5
		c-2.9,0.1-6.9-3.4-6.7-6.2c0-0.6,0.5-1.4,1.1-1.7c2.7-1.8,5.4-3.5,8.1-5.1c2.2-1.3,4.3-0.8,6.5,0.2c1.5,0.7,3,1.4,4.5,1.8
		C69.1,27.9,69.4,28.3,69.6,32.3z"/>
</g>
</svg>
